<svg xmlns="http://www.w3.org/2000/svg" width="24" height="24" fill="none"><g fill="#D5C9F8" clip-path="url(#a)"><path d="M12.83 9.51h-1.66v.873a2.075 2.075 0 0 0 .416 4.107h.83a.415.415 0 1 1 0 .83H9.51v1.66h1.66v.83h1.66v-.872a2.075 2.075 0 0 0-.415-4.108h-.83a.415.415 0 1 1 0-.83h2.905v-1.66h-1.66v-.83Z"/><path d="M17.81 3.7h-1.66v-.83a.83.83 0 1 0-1.66 0v.83h-1.66v-.83a.83.83 0 1 0-1.66 0v.83H9.51v-.83a.83.83 0 1 0-1.66 0v.83H6.19a1.66 1.66 0 0 0-1.66 1.66V20.3c0 .917.743 1.66 1.66 1.66h11.62a1.66 1.66 0 0 0 1.66-1.66V5.36a1.66 1.66 0 0 0-1.66-1.66ZM6.19 20.3V5.36h1.66v.83a.83.83 0 0 0 1.66 0v-.83h1.66v.83a.83.83 0 1 0 1.66 0v-.83h1.66v.83a.83.83 0 1 0 1.66 0v-.83h1.66V20.3H6.19Z"/></g><defs><clipPath id="a"><path fill="#fff" d="M0 0h24v24H0z"/></clipPath></defs></svg>