<svg xmlns="http://www.w3.org/2000/svg" width="370" height="370" fill="none"><g clip-path="url(#a)"><mask id="b" width="370" height="370" x="0" y="0" maskUnits="userSpaceOnUse" style="mask-type:luminance"><path fill="#fff" d="M370 0H0v370h370V0Z"/></mask><g mask="url(#b)"><mask id="c" width="370" height="370" x="0" y="0" maskUnits="userSpaceOnUse" style="mask-type:luminance"><path fill="#fff" d="M354 0H16C7.163 0 0 7.163 0 16v338c0 8.837 7.163 16 16 16h338c8.837 0 16-7.163 16-16V16c0-8.837-7.163-16-16-16Z"/></mask><g mask="url(#c)"><path fill="#F2FFFB" d="M354 0H16C7.163 0 0 7.163 0 16v338c0 8.837 7.163 16 16 16h338c8.837 0 16-7.163 16-16V16c0-8.837-7.163-16-16-16Z"/><path stroke="#CCF6EA" d="M354 .5H16C7.44.5.5 7.44.5 16v338c0 8.56 6.94 15.5 15.5 15.5h338c8.56 0 15.5-6.94 15.5-15.5V16c0-8.56-6.94-15.5-15.5-15.5Z"/><g filter="url(#d)"><path fill="#1D1D1B" d="M70 59.062C70 49.087 78.087 41 88.062 41H508.01c9.975 0 18.062 8.087 18.062 18.062v251.969c0 9.975-8.087 18.062-18.062 18.062H88.062c-9.975 0-18.062-8.087-18.062-18.062V59.062Z"/><path fill="#fff" d="M98.106 258.65v-10.404h4.11c.101 0 .221.005.361.015.14.005.275.019.405.043.563.087 1.035.279 1.416.578.385.299.674.677.867 1.134.192.453.289.956.289 1.51a3.76 3.76 0 0 1-.297 1.51 2.832 2.832 0 0 1-.866 1.135c-.381.298-.851.491-1.409.578a5.526 5.526 0 0 1-.766.058h-2.824v3.843h-1.286Zm1.286-5.065h2.78c.092 0 .196-.004.311-.014.121-.01.234-.026.34-.051.332-.077.602-.216.809-.419.212-.207.366-.448.462-.722.097-.279.145-.564.145-.853 0-.289-.048-.57-.145-.845a1.848 1.848 0 0 0-.462-.73 1.598 1.598 0 0 0-.809-.419 1.522 1.522 0 0 0-.34-.05 3.629 3.629 0 0 0-.311-.015h-2.78v4.118Zm7.606 5.065 3.482-10.404h1.792l3.482 10.404h-1.336l-3.259-9.652h.405l-3.23 9.652h-1.336Zm1.676-2.435v-1.206h5.404v1.206h-5.404Zm11.638 2.435v-9.183h-3.547v-1.221h8.381v1.221h-3.548v9.183h-1.286Zm7.429 0v-10.404h4.111c.101 0 .222.005.361.015.14.005.275.019.405.043.563.087 1.035.279 1.416.578.385.299.674.677.867 1.134.193.453.289.956.289 1.51 0 .805-.21 1.503-.629 2.096-.419.587-1.033.956-1.842 1.105l-.491.08h-3.201v3.843h-1.286Zm6.192 0-2.052-4.234 1.272-.39 2.254 4.624h-1.474Zm-4.906-5.065h2.782c.091 0 .195-.004.31-.014.121-.01.234-.026.34-.051.332-.077.602-.216.809-.419.212-.207.366-.448.463-.722.096-.279.144-.564.144-.853 0-.289-.048-.57-.144-.845a1.861 1.861 0 0 0-.463-.73 1.598 1.598 0 0 0-.809-.419 1.522 1.522 0 0 0-.34-.05 3.626 3.626 0 0 0-.31-.015h-2.782v4.118Zm9.56 5.065v-10.404h1.286v10.404h-1.286Zm9.176.217c-1.035 0-1.914-.229-2.637-.686a4.415 4.415 0 0 1-1.654-1.908c-.376-.814-.564-1.755-.564-2.825 0-1.069.188-2.011.564-2.825.38-.814.932-1.45 1.654-1.907.723-.458 1.602-.686 2.637-.686 1.205 0 2.194.305 2.97.917.78.612 1.317 1.435 1.611 2.471l-1.308.347c-.212-.776-.59-1.387-1.134-1.835-.544-.448-1.257-.672-2.139-.672-.775 0-1.42.176-1.936.527-.515.352-.903.843-1.163 1.474-.26.626-.393 1.356-.397 2.189-.005.829.122 1.558.382 2.189.261.627.651 1.118 1.171 1.474.52.352 1.168.528 1.943.528.882 0 1.595-.224 2.139-.672.544-.453.922-1.065 1.134-1.835l1.308.346c-.294 1.031-.831 1.855-1.611 2.471-.776.612-1.765.918-2.97.918Zm11.948-.217v-10.404h4.053c.622 0 1.152.128 1.59.383.443.255.78.593 1.011 1.012.236.414.354.862.354 1.344 0 .563-.144 1.057-.433 1.481a2.2 2.2 0 0 1-1.171.874l-.014-.354c.67.178 1.19.506 1.561.982.371.477.556 1.046.556 1.705 0 .607-.125 1.132-.376 1.576a2.544 2.544 0 0 1-1.069 1.033c-.462.245-1.012.368-1.647.368h-4.415Zm1.301-1.228h2.868c.385 0 .73-.07 1.033-.21.304-.144.542-.346.715-.606.179-.261.268-.574.268-.94 0-.351-.08-.667-.239-.946a1.707 1.707 0 0 0-.657-.665 1.856 1.856 0 0 0-.975-.253h-3.013v3.62Zm0-4.834h2.738c.308 0 .585-.065.831-.195.25-.134.448-.322.592-.563.15-.241.224-.523.224-.845 0-.448-.151-.814-.455-1.099-.303-.284-.701-.426-1.192-.426h-2.738v3.128Zm8.368 6.062 3.483-10.404h1.791l3.483 10.404H176.8l-3.258-9.652h.404l-3.229 9.652h-1.337Zm1.676-2.435v-1.206h5.405v1.206h-5.405Zm11.639 2.435v-9.183h-3.548v-1.221h8.381v1.221h-3.547v9.183h-1.286Zm7.429 0v-10.404h6.574v1.221h-5.288v3.259h4.421v1.221h-4.421v3.482h5.288v1.221h-6.574Zm9.756 0v-10.404h1.17l3.931 8.287 3.908-8.287h1.185v10.397h-1.221v-7.572l-3.533 7.579h-.686l-3.533-7.579v7.579h-1.221Zm12.943 0 3.482-10.404h1.792l3.482 10.404h-1.336l-3.259-9.652h.405l-3.23 9.652h-1.336Zm1.676-2.435v-1.206h5.404v1.206h-5.404Zm9.819 2.435v-10.404h1.3l5.426 8.128v-8.128h1.301v10.404h-1.301l-5.426-8.135v8.135h-1.3Zm-120.614 35.547c-.961 0-1.828-.224-2.601-.672a5 5 0 0 1-1.82-1.821c-.449-.773-.673-1.64-.673-2.601v-6.069c0-.961.224-1.824.672-2.59a4.974 4.974 0 0 1 1.821-1.831c.773-.448 1.64-.672 2.601-.672.961 0 1.825.224 2.59.672a4.952 4.952 0 0 1 1.832 1.831c.448.766.672 1.629.672 2.59v6.069c0 .961-.224 1.828-.672 2.601a4.977 4.977 0 0 1-1.832 1.821c-.765.448-1.629.672-2.59.672Zm0-1.539c.643 0 1.229-.156 1.756-.466a3.592 3.592 0 0 0 1.257-1.268 3.373 3.373 0 0 0 .466-1.745v-6.221c0-.643-.155-1.228-.466-1.755a3.49 3.49 0 0 0-1.257-1.257 3.335 3.335 0 0 0-1.756-.477c-.643 0-1.228.159-1.755.477-.528.31-.947.729-1.258 1.257a3.398 3.398 0 0 0-.466 1.755v6.221c0 .636.156 1.217.466 1.745.311.527.73.95 1.258 1.268.527.31 1.112.466 1.755.466Zm13.88 1.539c-.961 0-1.828-.224-2.601-.672a5 5 0 0 1-1.821-1.821c-.448-.773-.672-1.64-.672-2.601v-6.069c0-.961.224-1.824.672-2.59a4.974 4.974 0 0 1 1.821-1.831c.773-.448 1.64-.672 2.601-.672.961 0 1.824.224 2.59.672a4.949 4.949 0 0 1 1.831 1.831c.448.766.672 1.629.672 2.59v6.069c0 .961-.224 1.828-.672 2.601a4.974 4.974 0 0 1-1.831 1.821c-.766.448-1.629.672-2.59.672Zm0-1.539c.643 0 1.228-.156 1.755-.466a3.576 3.576 0 0 0 1.257-1.268 3.374 3.374 0 0 0 .467-1.745v-6.221a3.39 3.39 0 0 0-.467-1.755 3.475 3.475 0 0 0-1.257-1.257 3.332 3.332 0 0 0-1.755-.477c-.643 0-1.229.159-1.756.477a3.49 3.49 0 0 0-1.257 1.257 3.388 3.388 0 0 0-.466 1.755v6.221c0 .636.155 1.217.466 1.745.311.527.73.95 1.257 1.268.527.31 1.113.466 1.756.466Zm13.879 1.539c-.961 0-1.828-.224-2.601-.672a4.99 4.99 0 0 1-1.82-1.821c-.448-.773-.672-1.64-.672-2.601v-6.069c0-.961.224-1.824.672-2.59a4.964 4.964 0 0 1 1.82-1.831c.773-.448 1.64-.672 2.601-.672.961 0 1.824.224 2.59.672a4.952 4.952 0 0 1 1.832 1.831c.448.766.672 1.629.672 2.59v6.069c0 .961-.224 1.828-.672 2.601a4.977 4.977 0 0 1-1.832 1.821c-.766.448-1.629.672-2.59.672Zm0-1.539c.643 0 1.228-.156 1.756-.466a3.592 3.592 0 0 0 1.257-1.268 3.373 3.373 0 0 0 .466-1.745v-6.221c0-.643-.155-1.228-.466-1.755a3.49 3.49 0 0 0-1.257-1.257 3.338 3.338 0 0 0-1.756-.477c-.643 0-1.228.159-1.756.477a3.49 3.49 0 0 0-1.257 1.257 3.398 3.398 0 0 0-.466 1.755v6.221c0 .636.156 1.217.466 1.745.311.527.73.95 1.257 1.268.528.31 1.113.466 1.756.466Zm15.657 1.214v-3.024h-7.304v-1.517l5.223-11.065h1.788l-5.223 11.065h5.516v-4.552h1.604v4.552h1.701v1.517h-1.701v3.024h-1.604Zm18.424 0v-3.024h-7.304v-1.517l5.223-11.065h1.789l-5.224 11.065h5.516v-4.552h1.604v4.552h1.702v1.517h-1.702v3.024h-1.604Zm11.322.325c-.975 0-1.839-.195-2.59-.586a4.404 4.404 0 0 1-1.756-1.636c-.419-.708-.628-1.535-.628-2.482 0-.968.234-1.828.704-2.579.47-.759 1.185-1.333 2.146-1.723l-.022.628c-.802-.296-1.412-.78-1.831-1.452a4.135 4.135 0 0 1-.629-2.232c0-.867.199-1.611.596-2.233a3.959 3.959 0 0 1 1.626-1.452c.693-.34 1.488-.509 2.384-.509.896 0 1.691.169 2.384.509.694.34 1.239.824 1.637 1.452.397.622.596 1.366.596 2.233 0 .816-.203 1.557-.607 2.221-.398.665-1.008 1.153-1.832 1.463l-.054-.628c.961.383 1.68.954 2.157 1.712.484.759.726 1.622.726 2.59 0 .947-.213 1.774-.64 2.482a4.386 4.386 0 0 1-1.766 1.636c-.752.391-1.618.586-2.601.586Zm0-1.528c.983 0 1.781-.271 2.395-.813.614-.549.921-1.337.921-2.363 0-1.04-.303-1.828-.91-2.362-.607-.542-1.409-.813-2.406-.813-.997 0-1.795.271-2.395.813-.6.534-.9 1.322-.9 2.362 0 1.026.304 1.814.911 2.363.607.542 1.401.813 2.384.813Zm0-7.89c.867 0 1.571-.22 2.113-.661.542-.448.813-1.109.813-1.983 0-.874-.271-1.528-.813-1.962-.542-.441-1.246-.661-2.113-.661s-1.571.22-2.113.661c-.535.434-.802 1.088-.802 1.962 0 .874.267 1.535.802 1.983.542.441 1.246.661 2.113.661Zm13.223 9.418c-.975 0-1.839-.195-2.59-.586a4.41 4.41 0 0 1-1.756-1.636c-.419-.708-.628-1.535-.628-2.482 0-.968.235-1.828.704-2.579.47-.759 1.185-1.333 2.146-1.723l-.022.628c-.802-.296-1.412-.78-1.831-1.452a4.135 4.135 0 0 1-.629-2.232c0-.867.199-1.611.596-2.233a3.971 3.971 0 0 1 1.626-1.452c.694-.34 1.488-.509 2.384-.509.896 0 1.691.169 2.384.509.694.34 1.239.824 1.637 1.452.397.622.596 1.366.596 2.233 0 .816-.202 1.557-.607 2.221-.397.665-1.008 1.153-1.832 1.463l-.054-.628c.961.383 1.68.954 2.157 1.712.484.759.726 1.622.726 2.59 0 .947-.213 1.774-.639 2.482a4.389 4.389 0 0 1-1.767 1.636c-.751.391-1.618.586-2.601.586Zm0-1.528c.983 0 1.781-.271 2.395-.813.614-.549.921-1.337.921-2.363 0-1.04-.303-1.828-.91-2.362-.607-.542-1.409-.813-2.406-.813-.997 0-1.795.271-2.395.813-.6.534-.899 1.322-.899 2.362 0 1.026.303 1.814.91 2.363.607.542 1.402.813 2.384.813Zm0-7.89c.867 0 1.572-.22 2.113-.661.542-.448.813-1.109.813-1.983 0-.874-.271-1.528-.813-1.962-.541-.441-1.246-.661-2.113-.661s-1.571.22-2.113.661c-.535.434-.802 1.088-.802 1.962 0 .874.267 1.535.802 1.983.542.441 1.246.661 2.113.661Zm13.603-6.827c.982 0 1.871.238 2.666.715a5.184 5.184 0 0 1 1.907 1.929c.47.809.705 1.719.705 2.731v5.419c0 1.04-.235 1.972-.705 2.796a5.21 5.21 0 0 1-1.929 1.95c-.809.47-1.73.705-2.763.705a5.311 5.311 0 0 1-2.471-.586 5.26 5.26 0 0 1-1.864-1.636l1.213-1.008a3.75 3.75 0 0 0 1.323 1.236c.556.31 1.156.466 1.799.466.736 0 1.387-.174 1.95-.521a3.856 3.856 0 0 0 1.344-1.387 3.702 3.702 0 0 0 .499-1.875v-3.403l.39.456a5.21 5.21 0 0 1-1.788 1.734 4.651 4.651 0 0 1-2.428.661c-.961 0-1.831-.231-2.612-.694a5.175 5.175 0 0 1-1.842-1.864c-.448-.78-.672-1.651-.672-2.612 0-.961.238-1.835.715-2.622a5.27 5.27 0 0 1 1.918-1.886 5.136 5.136 0 0 1 2.645-.704Zm0 1.538c-.679 0-1.297.167-1.853.499a3.704 3.704 0 0 0-1.333 1.322 3.596 3.596 0 0 0-.488 1.853c0 .679.162 1.297.488 1.853a3.696 3.696 0 0 0 1.322 1.333 3.596 3.596 0 0 0 1.853.488c.679 0 1.297-.162 1.853-.488a3.672 3.672 0 0 0 1.333-1.333 3.547 3.547 0 0 0 .499-1.853c0-.672-.167-1.286-.499-1.842a3.712 3.712 0 0 0-1.322-1.333 3.547 3.547 0 0 0-1.853-.499Zm18.137 14.696a5.428 5.428 0 0 1-2.135-.412 4.82 4.82 0 0 1-1.679-1.17 4.716 4.716 0 0 1-1.03-1.832l1.517-.455c.26.773.687 1.358 1.279 1.756.6.397 1.275.588 2.027.574.693-.014 1.289-.17 1.788-.466a2.948 2.948 0 0 0 1.16-1.235c.267-.528.401-1.138.401-1.832 0-1.062-.311-1.915-.933-2.558-.614-.65-1.426-.975-2.438-.975-.282 0-.578.04-.889.119-.31.072-.599.177-.867.315l-.802-1.268 6.069-5.603.26.65h-7.954v-1.528h9.017v1.55l-5.289 5.05-.022-.629c1.084-.137 2.038-.014 2.861.369a4.281 4.281 0 0 1 1.929 1.755c.47.781.705 1.698.705 2.753 0 .997-.217 1.878-.65 2.644a4.67 4.67 0 0 1-1.767 1.788c-.751.427-1.604.64-2.558.64Zm13.574-16.234c.982 0 1.871.238 2.666.715a5.184 5.184 0 0 1 1.907 1.929c.47.809.705 1.719.705 2.731v5.419c0 1.04-.235 1.972-.705 2.796a5.202 5.202 0 0 1-1.929 1.95c-.809.47-1.73.705-2.763.705a5.311 5.311 0 0 1-2.471-.586 5.26 5.26 0 0 1-1.864-1.636l1.214-1.008c.332.513.773.925 1.322 1.236.556.31 1.156.466 1.799.466.737 0 1.387-.174 1.95-.521a3.856 3.856 0 0 0 1.344-1.387 3.692 3.692 0 0 0 .499-1.875v-3.403l.39.456a5.21 5.21 0 0 1-1.788 1.734 4.649 4.649 0 0 1-2.428.661c-.961 0-1.831-.231-2.612-.694a5.175 5.175 0 0 1-1.842-1.864c-.448-.78-.672-1.651-.672-2.612 0-.961.239-1.835.715-2.622a5.273 5.273 0 0 1 1.919-1.886 5.133 5.133 0 0 1 2.644-.704Zm0 1.538c-.679 0-1.297.167-1.853.499a3.704 3.704 0 0 0-1.333 1.322 3.605 3.605 0 0 0-.488 1.853c0 .679.163 1.297.488 1.853a3.704 3.704 0 0 0 1.322 1.333 3.596 3.596 0 0 0 1.853.488c.679 0 1.297-.162 1.853-.488a3.672 3.672 0 0 0 1.333-1.333 3.538 3.538 0 0 0 .499-1.853c0-.672-.166-1.286-.499-1.842a3.712 3.712 0 0 0-1.322-1.333 3.547 3.547 0 0 0-1.853-.499Zm13.712 14.707c-.976 0-1.839-.195-2.59-.586a4.398 4.398 0 0 1-1.756-1.636c-.419-.708-.629-1.535-.629-2.482 0-.968.235-1.828.705-2.579.469-.759 1.185-1.333 2.146-1.723l-.022.628c-.802-.296-1.413-.78-1.832-1.452a4.134 4.134 0 0 1-.628-2.232c0-.867.198-1.611.596-2.233a3.962 3.962 0 0 1 1.625-1.452c.694-.34 1.489-.509 2.385-.509.896 0 1.69.169 2.384.509a3.95 3.95 0 0 1 1.636 1.452c.398.622.596 1.366.596 2.233a4.19 4.19 0 0 1-.606 2.221c-.398.665-1.008 1.153-1.832 1.463l-.054-.628c.961.383 1.68.954 2.156 1.712.485.759.727 1.622.727 2.59 0 .947-.214 1.774-.64 2.482a4.386 4.386 0 0 1-1.766 1.636c-.752.391-1.619.586-2.601.586Zm0-1.528c.982 0 1.781-.271 2.395-.813.614-.549.921-1.337.921-2.363 0-1.04-.304-1.828-.91-2.362-.607-.542-1.409-.813-2.406-.813-.997 0-1.796.271-2.395.813-.6.534-.9 1.322-.9 2.362 0 1.026.304 1.814.91 2.363.607.542 1.402.813 2.385.813Zm0-7.89c.867 0 1.571-.22 2.113-.661.542-.448.813-1.109.813-1.983 0-.874-.271-1.528-.813-1.962-.542-.441-1.246-.661-2.113-.661s-1.572.22-2.114.661c-.534.434-.802 1.088-.802 1.962 0 .874.268 1.535.802 1.983.542.441 1.247.661 2.114.661Zm13.602-6.827c.983 0 1.872.238 2.666.715a5.194 5.194 0 0 1 1.908 1.929c.469.809.704 1.719.704 2.731v5.419c0 1.04-.235 1.972-.704 2.796a5.217 5.217 0 0 1-1.929 1.95c-.81.47-1.731.705-2.764.705a5.314 5.314 0 0 1-2.471-.586 5.268 5.268 0 0 1-1.864-1.636l1.214-1.008c.332.513.773.925 1.322 1.236.556.31 1.156.466 1.799.466.737 0 1.387-.174 1.951-.521a3.864 3.864 0 0 0 1.344-1.387 3.701 3.701 0 0 0 .498-1.875v-3.403l.39.456a5.21 5.21 0 0 1-1.788 1.734 4.648 4.648 0 0 1-2.427.661c-.961 0-1.832-.231-2.612-.694a5.185 5.185 0 0 1-1.843-1.864c-.448-.78-.672-1.651-.672-2.612 0-.961.239-1.835.716-2.622a5.27 5.27 0 0 1 1.918-1.886 5.133 5.133 0 0 1 2.644-.704Zm0 1.538c-.679 0-1.297.167-1.853.499a3.712 3.712 0 0 0-1.333 1.322 3.605 3.605 0 0 0-.488 1.853c0 .679.163 1.297.488 1.853a3.704 3.704 0 0 0 1.322 1.333 3.598 3.598 0 0 0 1.853.488 3.6 3.6 0 0 0 1.854-.488 3.687 3.687 0 0 0 1.333-1.333 3.547 3.547 0 0 0 .498-1.853c0-.672-.166-1.286-.498-1.842a3.715 3.715 0 0 0-1.323-1.333 3.547 3.547 0 0 0-1.853-.499Zm18.55 14.707a5.076 5.076 0 0 1-2.244-.499 5.182 5.182 0 0 1-1.755-1.376 5.368 5.368 0 0 1-1.041-2.016l1.528-.412c.138.564.387 1.052.748 1.463.361.405.784.719 1.268.943a3.667 3.667 0 0 0 1.539.336c.694 0 1.315-.166 1.864-.498.556-.34.997-.788 1.322-1.344a3.569 3.569 0 0 0 .488-1.832c0-.686-.17-1.304-.509-1.853a3.806 3.806 0 0 0-1.344-1.322 3.547 3.547 0 0 0-1.821-.488c-.737 0-1.373.163-1.907.488a3.861 3.861 0 0 0-1.279 1.203l-1.452-.607.477-8.117h8.333v1.528h-7.629l.791-.748-.423 6.925-.401-.531c.448-.513.99-.914 1.626-1.203a4.79 4.79 0 0 1 2.005-.433c.961 0 1.828.231 2.601.693a5.09 5.09 0 0 1 1.842 1.853c.455.781.683 1.651.683 2.612 0 .954-.242 1.828-.726 2.623a5.567 5.567 0 0 1-1.929 1.896 5.097 5.097 0 0 1-2.655.716Zm13.831 0a5.177 5.177 0 0 1-2.666-.705 5.431 5.431 0 0 1-1.907-1.929c-.47-.816-.704-1.734-.704-2.752v-5.408c0-1.048.234-1.98.704-2.796a5.148 5.148 0 0 1 1.918-1.94c.817-.477 1.741-.715 2.775-.715.888 0 1.712.195 2.471.585a5 5 0 0 1 1.874 1.636l-1.224 1.008a3.711 3.711 0 0 0-1.322-1.246 3.588 3.588 0 0 0-1.799-.466c-.73 0-1.38.177-1.951.531a3.832 3.832 0 0 0-1.344 1.398 3.704 3.704 0 0 0-.488 1.864v3.403l-.401-.455a5.329 5.329 0 0 1 1.789-1.734 4.674 4.674 0 0 1 2.427-.661c.968 0 1.839.231 2.612.693a5.09 5.09 0 0 1 1.842 1.853c.456.781.683 1.655.683 2.623 0 .961-.242 1.835-.726 2.623a5.388 5.388 0 0 1-1.918 1.885 5.099 5.099 0 0 1-2.645.705Zm0-1.55a3.61 3.61 0 0 0 1.854-.488 3.605 3.605 0 0 0 1.333-1.322 3.547 3.547 0 0 0 .498-1.853c0-.679-.166-1.297-.498-1.853a3.593 3.593 0 0 0-1.323-1.333 3.538 3.538 0 0 0-1.853-.499c-.679 0-1.297.166-1.853.499a3.68 3.68 0 0 0-1.333 1.333 3.605 3.605 0 0 0-.488 1.853c0 .672.163 1.286.488 1.842a3.704 3.704 0 0 0 1.322 1.333 3.608 3.608 0 0 0 1.853.488Zm14.092 1.55a5.174 5.174 0 0 1-2.666-.705 5.426 5.426 0 0 1-1.908-1.929c-.469-.816-.704-1.734-.704-2.752v-5.408c0-1.048.235-1.98.704-2.796a5.148 5.148 0 0 1 1.918-1.94c.817-.477 1.742-.715 2.775-.715.888 0 1.712.195 2.471.585.766.39 1.39.935 1.875 1.636l-1.225 1.008a3.703 3.703 0 0 0-1.322-1.246 3.588 3.588 0 0 0-1.799-.466c-.73 0-1.38.177-1.951.531a3.832 3.832 0 0 0-1.344 1.398 3.703 3.703 0 0 0-.487 1.864v3.403l-.401-.455a5.316 5.316 0 0 1 1.788-1.734 4.674 4.674 0 0 1 2.427-.661c.968 0 1.839.231 2.612.693a5.09 5.09 0 0 1 1.842 1.853c.456.781.683 1.655.683 2.623 0 .961-.242 1.835-.726 2.623a5.388 5.388 0 0 1-1.918 1.885 5.098 5.098 0 0 1-2.644.705Zm0-1.55c.679 0 1.296-.163 1.853-.488a3.605 3.605 0 0 0 1.333-1.322 3.547 3.547 0 0 0 .498-1.853c0-.679-.166-1.297-.498-1.853a3.598 3.598 0 0 0-1.322-1.333 3.542 3.542 0 0 0-1.854-.499 3.54 3.54 0 0 0-1.853.499c-.556.325-1 .769-1.333 1.333a3.605 3.605 0 0 0-.487 1.853c0 .672.162 1.286.487 1.842a3.704 3.704 0 0 0 1.322 1.333 3.61 3.61 0 0 0 1.854.488Zm13.906 1.55c-.96 0-1.827-.224-2.601-.672a5.005 5.005 0 0 1-1.82-1.821c-.448-.773-.672-1.64-.672-2.601v-6.069c0-.961.224-1.824.672-2.59a4.98 4.98 0 0 1 1.82-1.831c.774-.448 1.641-.672 2.601-.672.961 0 1.825.224 2.591.672a4.949 4.949 0 0 1 1.831 1.831c.448.766.672 1.629.672 2.59v6.069c0 .961-.224 1.828-.672 2.601a4.974 4.974 0 0 1-1.831 1.821c-.766.448-1.63.672-2.591.672Zm0-1.539c.643 0 1.229-.156 1.756-.466a3.584 3.584 0 0 0 1.257-1.268 3.373 3.373 0 0 0 .466-1.745v-6.221c0-.643-.155-1.228-.466-1.755a3.482 3.482 0 0 0-1.257-1.257 3.335 3.335 0 0 0-1.756-.477c-.643 0-1.228.159-1.755.477-.528.31-.947.729-1.257 1.257a3.388 3.388 0 0 0-.466 1.755v6.221c0 .636.155 1.217.466 1.745.31.527.729.95 1.257 1.268.527.31 1.112.466 1.755.466Z"/></g></g><path fill="#fff" fill-rule="evenodd" d="M106.911 69.952a3.27 3.27 0 0 1 2.308-.952c2.908 0 4.364 3.502 2.307 5.55l-6.915 6.887a.283.283 0 0 0 0 .401c.112.11.292.11.403 0l8.446-8.411a6.832 6.832 0 0 1 9.634 0 6.765 6.765 0 0 1 0 9.595l-8.058 8.026a3.27 3.27 0 0 1-2.308.952c-2.907 0-4.363-3.502-2.307-5.55l8.057-8.025a.283.283 0 0 0 0-.401.285.285 0 0 0-.402 0l-8.446 8.412a6.832 6.832 0 0 1-9.635 0 6.766 6.766 0 0 1 0-9.596l6.916-6.888Z" clip-rule="evenodd"/><path fill="#fff" d="M132.195 90.271V72.12h10.793v2.634h-8.148v5.118h6.63v2.647h-6.63v7.752h-2.645Zm13.327-15.844v-2.56h2.644v2.56h-2.644Zm0 15.844V76.658h2.644V90.27h-2.644Zm16.035 0v-6.693c0-.53-.046-1.072-.139-1.626a4.879 4.879 0 0 0-.506-1.563 2.963 2.963 0 0 0-1.051-1.16c-.447-.294-1.033-.441-1.758-.441-.473 0-.92.08-1.342.24-.421.15-.793.398-1.113.743-.312.345-.561.798-.747 1.361-.177.563-.265 1.248-.265 2.055l-1.645-.618c0-1.235.232-2.323.696-3.264.464-.95 1.13-1.69 1.999-2.219.869-.53 1.919-.794 3.151-.794.944 0 1.737.151 2.378.454.641.302 1.16.702 1.557 1.197.405.488.712 1.021.923 1.601.211.58.355 1.147.431 1.702.076.554.113 1.042.113 1.462v7.563h-2.682Zm-9.604 0V76.658h2.366v3.932h.317v9.681h-2.683Zm15.835-15.844v-2.56h2.645v2.56h-2.645Zm0 15.844V76.658h2.645V90.27h-2.645Zm4.926 0 5.112-6.882-4.998-6.731h3.138l3.404 4.676 3.365-4.676h3.138l-4.998 6.73L186 90.272h-3.151l-3.479-4.828-3.505 4.828h-3.151Z"/></g></g><rect width="368" height="368" x="1" y="1" stroke="#CCF6EA" stroke-width="2" rx="29"/><defs><clipPath id="a"><rect width="370" height="370" fill="#fff" rx="30"/></clipPath><filter id="d" width="516.072" height="348.093" x="40" y="30" color-interpolation-filters="sRGB" filterUnits="userSpaceOnUse"><feFlood flood-opacity="0" result="BackgroundImageFix"/><feColorMatrix in="SourceAlpha" result="hardAlpha" values="0 0 0 0 0 0 0 0 0 0 0 0 0 0 0 0 0 0 127 0"/><feOffset dy="19"/><feGaussianBlur stdDeviation="15"/><feComposite in2="hardAlpha" operator="out"/><feColorMatrix values="0 0 0 0 0 0 0 0 0 0 0 0 0 0 0 0 0 0 0.33 0"/><feBlend in2="BackgroundImageFix" result="effect1_dropShadow_94_465"/><feBlend in="SourceGraphic" in2="effect1_dropShadow_94_465" result="shape"/></filter></defs></svg>