<svg xmlns="http://www.w3.org/2000/svg" width="370" height="370" fill="none"><g clip-path="url(#a)"><rect width="370" height="370" fill="#EEFCF8" rx="21.622"/><g filter="url(#b)"><rect width="282" height="282" x="44" y="44" fill="#F2FFFB" rx="8"/></g><rect width="280.649" height="280.649" x="44.676" y="44.676" stroke="#CCF6EA" stroke-width="1.351" rx="7.324"/><path fill="#000" d="M200.074 113.175c-10.336-2.578-21.212-2.947-31.796-.662a1.515 1.515 0 1 0 .64 2.962c10.135-2.188 20.576-1.827 30.507.662 23.749 5.952 43.517 23.808 51.046 47.133 2.912 9.021 4.149 18.626 4.397 28.692a1.514 1.514 0 1 0 3.029-.075c-.251-10.204-1.503-20.056-4.486-29.374-7.819-24.42-28.48-43.138-53.337-49.338Zm-39.484 4.584a1.515 1.515 0 0 0-.806-2.921c-11.068 3.053-26.637 13.604-36.26 27.698l-.011.017c-8.449 12.732-13.745 28.733-12.266 44.259l.005.044c.354 2.835.949 5.665 1.545 8.498 1.254 5.967 2.512 11.949 1.532 18.025a1.514 1.514 0 1 0 2.991.483c1.025-6.352-.248-12.548-1.52-18.745-.589-2.866-1.177-5.733-1.539-8.615-1.39-14.671 3.619-29.976 11.772-42.266 9.256-13.553 24.244-23.632 34.557-26.477Z"/><path fill="#000" d="M180.471 121.144c19.022-1.162 38.04 6.601 50.812 21.474a1.515 1.515 0 0 1-2.299 1.974c-12.146-14.143-30.243-21.531-48.337-20.423l-.02.001c-22.882 1.107-44.311 16.63-52.194 38.382a1.514 1.514 0 1 1-2.849-1.032c8.304-22.915 30.806-39.207 54.887-40.376Zm55.427 28.093a1.514 1.514 0 1 0-2.515 1.689c7.08 10.543 10.008 22.015 11.165 35.63a1.515 1.515 0 0 0 3.019-.257c-1.182-13.912-4.201-25.944-11.669-37.062Zm10.656 43.494a1.516 1.516 0 0 1 1.607 1.418c.571 9.136.576 19.472-.434 27.111a1.516 1.516 0 0 1-3.004-.398c.974-7.362.979-17.479.414-26.524a1.516 1.516 0 0 1 1.417-1.607ZM126.145 169.89a1.514 1.514 0 1 0-2.945-.711 61.29 61.29 0 0 0-1.712 14.073c-.024 4.881.886 9.646 1.797 14.412.745 3.899 1.49 7.799 1.724 11.766.308 5.21-.788 10.428-2.682 15.394a1.515 1.515 0 1 0 2.831 1.079c2.002-5.249 3.216-10.903 2.876-16.652-.233-3.939-.978-7.817-1.723-11.693-.908-4.73-1.816-9.457-1.793-14.291.022-4.5.57-8.998 1.627-13.377Z"/><path fill="#000" d="M165.9 136.222a1.516 1.516 0 0 1-.841 1.971c-15.707 6.308-27.502 20.542-29.908 37.327-1.006 7.013.08 13.959 1.166 20.904.612 3.911 1.223 7.821 1.461 11.742.515 8.503-.453 17.842-5.987 26.339a1.514 1.514 0 1 1-2.539-1.653c5.042-7.742 5.996-16.342 5.501-24.503-.241-3.978-.849-7.934-1.456-11.887-1.089-7.092-2.177-14.177-1.146-21.372 2.569-17.922 15.131-33.024 31.779-39.709a1.515 1.515 0 0 1 1.97.841Zm53.188 8.626c-12.392-11.606-30.351-15.656-46.673-12.076a1.515 1.515 0 1 0 .649 2.959c15.456-3.39 32.367.477 43.952 11.329 9.765 9.146 15.436 22.454 16.92 36.974a1.516 1.516 0 0 0 3.015-.308c-1.542-15.077-7.452-29.126-17.863-38.878Zm17.546 46.093a1.515 1.515 0 0 1 1.662 1.352c1.438 14.01.818 29.142-1.354 43.78a1.514 1.514 0 1 1-2.997-.445c2.142-14.434 2.745-29.309 1.336-43.025a1.515 1.515 0 0 1 1.353-1.662Z"/><path fill="#000" d="M183.813 141.791c-23.217 0-42.08 18.522-42.08 41.422 0 2.446.217 4.843.631 7.174a1.514 1.514 0 1 0 2.983-.53 37.995 37.995 0 0 1-.584-6.644c0-21.18 17.46-38.392 39.05-38.392 9.756 0 18.671 3.516 25.513 9.327a1.514 1.514 0 1 0 1.961-2.31c-7.373-6.261-16.977-10.047-27.474-10.047Zm30.869 15.696a1.515 1.515 0 0 1 2.142.045c6.686 6.973 8.826 17.931 10.242 27.128 1.596 10.359 1.839 20.465 1.839 25.151a1.515 1.515 0 0 1-3.03 0c0-4.61-.241-14.545-1.803-24.69-1.315-8.538-3.21-19-9.435-25.492a1.515 1.515 0 0 1 .045-2.142Zm13.838 61a1.515 1.515 0 0 0-3.02-.24c-.744 9.332-1.716 18.654-3.689 27.266a1.515 1.515 0 1 0 2.954.676c2.024-8.838 3.009-18.344 3.755-27.702Zm-83.718-22.524a1.514 1.514 0 0 1 1.779 1.194c3.204 16.267.991 31.045-7.492 43.99a1.516 1.516 0 0 1-2.535-1.661c7.982-12.18 10.13-26.125 7.054-41.744a1.515 1.515 0 0 1 1.194-1.779Z"/><path fill="#000" d="M183.813 151.649c-15.071 0-29.855 11.665-31.364 26.327-.661 6.419.267 12.741 1.196 19.067.81 5.523 1.621 11.048 1.375 16.64-.564 12.8-4.319 23.365-10.772 32.067a1.515 1.515 0 0 0 2.434 1.805c6.844-9.229 10.777-20.389 11.365-33.739.245-5.567-.568-11.074-1.381-16.578-.93-6.294-1.859-12.583-1.203-18.952 1.326-12.88 14.583-23.607 28.35-23.607 6.421 0 23.034 3.477 28.319 20.692 3.312 10.788 4.215 25.388 3.413 39.573-.802 14.182-3.297 27.747-6.652 36.445a1.515 1.515 0 1 0 2.827 1.091c3.51-9.101 6.038-23.009 6.85-37.365.812-14.355-.08-29.359-3.541-40.633-5.867-19.11-24.256-22.833-31.216-22.833Z"/><path fill="#000" d="M160.497 241.149c.701.457.899 1.396.441 2.097-.939 1.44-1.765 2.947-2.592 4.454-.826 1.508-1.653 3.015-2.593 4.456a1.515 1.515 0 0 1-2.538-1.656c.94-1.44 1.766-2.947 2.593-4.454.826-1.508 1.653-3.015 2.592-4.456a1.515 1.515 0 0 1 2.097-.441Zm12.973-73.773a1.515 1.515 0 0 0-1.684-2.519c-6 4.013-9.681 9.531-9.681 17.614 0 4.814.853 8.748 1.728 12.784 1.308 6.038 2.196 12.064 2.037 18.267-.194 7.531-1.668 14.414-4.501 20.97a1.516 1.516 0 0 0 2.782 1.202c2.995-6.932 4.545-14.199 4.748-22.095.165-6.445-.747-12.709-2.104-18.985-.877-4.053-1.66-7.672-1.66-12.143 0-6.926 3.047-11.559 8.335-15.095Zm5.913-5.324c6.287-1.281 13.053.302 18.033 4.333 8.894 7.199 10.077 20.329 11.036 30.968l.049.542c1.239 13.714-.179 27.035-3.036 40.412a1.516 1.516 0 1 1-2.963-.633c2.813-13.176 4.185-26.18 2.981-39.507l-.12-1.341v-.007c-.852-9.614-1.918-21.656-9.854-28.079-4.257-3.446-10.096-4.824-15.52-3.719a1.514 1.514 0 1 1-.606-2.969Zm23.941 83.794a1.515 1.515 0 0 0-2.937-.748c-.916 3.598-2.327 6.846-4.116 9.835a1.515 1.515 0 1 0 2.6 1.556c1.928-3.221 3.459-6.74 4.453-10.643Zm-7.409-21.986a1.515 1.515 0 0 1 1.327 1.682c-1.431 12.092-4.662 22.876-9.845 32.23a1.516 1.516 0 0 1-2.65-1.469c4.96-8.951 8.092-19.344 9.485-31.117a1.515 1.515 0 0 1 1.683-1.326Z"/><path fill="#000" d="M195.603 181.677c-1.051-5.613-5.867-9.906-11.715-9.906-7.919 0-13.475 7.982-11.517 15.408 3.313 13.109 3.857 25.742 1.614 37.91l-.002.009c-1.946 10.925-5.683 20.753-10.781 29.082a1.516 1.516 0 0 0 2.585 1.582c5.306-8.669 9.17-18.856 11.179-30.128 2.328-12.637 1.751-25.714-1.659-39.205l-.004-.016c-1.469-5.555 2.625-11.612 8.585-11.612 4.301 0 7.933 3.165 8.735 7.423 2.205 12.792 3.353 24.653 2.536 34.866a1.515 1.515 0 1 0 3.02.242c.848-10.586-.349-22.74-2.572-35.634l-.004-.021Zm-16.236 65.618a1.516 1.516 0 0 1 .655 2.04l-4.015 7.813a1.515 1.515 0 0 1-2.695-1.385l4.015-7.813a1.516 1.516 0 0 1 2.04-.655Z"/><path fill="#000" d="M185.015 183.138a1.516 1.516 0 0 0-2.95.693c5.109 21.748 4.407 40.846-1.816 57.115a1.515 1.515 0 1 0 2.83 1.082c6.489-16.963 7.149-36.7 1.936-58.89Z"/></g><rect width="368" height="368" x="1" y="1" stroke="#CCF6EA" stroke-width="2" rx="29"/><defs><clipPath id="a"><rect width="370" height="370" fill="#fff" rx="30"/></clipPath><filter id="b" width="285" height="287.92" x="44" y="44" color-interpolation-filters="sRGB" filterUnits="userSpaceOnUse"><feFlood flood-opacity="0" result="BackgroundImageFix"/><feBlend in="SourceGraphic" in2="BackgroundImageFix" result="shape"/><feColorMatrix in="SourceAlpha" result="hardAlpha" values="0 0 0 0 0 0 0 0 0 0 0 0 0 0 0 0 0 0 127 0"/><feOffset dx="3" dy="5.92"/><feGaussianBlur stdDeviation="6"/><feComposite in2="hardAlpha" k2="-1" k3="1" operator="arithmetic"/><feColorMatrix values="0 0 0 0 0 0 0 0 0 0 0 0 0 0 0 0 0 0 0.04 0"/><feBlend in2="shape" result="effect1_innerShadow_109_669"/></filter></defs></svg>