<svg xmlns="http://www.w3.org/2000/svg" width="124" height="20" fill="none"><path fill="#FFC700" d="m10 0 2.245 6.91h7.266l-5.878 4.27 2.245 6.91L10 13.82l-5.878 4.27 2.245-6.91L.49 6.91h7.266L10 0Zm26 0 2.245 6.91h7.266l-5.878 4.27 2.245 6.91L36 13.82l-5.878 4.27 2.245-6.91-5.878-4.27h7.266L36 0Zm26 0 2.245 6.91h7.266l-5.878 4.27 2.245 6.91L62 13.82l-5.878 4.27 2.245-6.91-5.878-4.27h7.266L62 0Zm26 0 2.245 6.91h7.266l-5.878 4.27 2.245 6.91L88 13.82l-5.878 4.27 2.245-6.91-5.878-4.27h7.266L88 0Zm26 0 2.245 6.91h7.266l-5.878 4.27 2.245 6.91L114 13.82l-5.878 4.27 2.245-6.91-5.878-4.27h7.266L114 0Z"/></svg>