<svg xmlns="http://www.w3.org/2000/svg" width="370" height="370" fill="none"><g clip-path="url(#a)"><mask id="b" width="370" height="370" x="0" y="0" maskUnits="userSpaceOnUse" style="mask-type:luminance"><path fill="#fff" d="M354 0H16C7.163 0 0 7.163 0 16v338c0 8.837 7.163 16 16 16h338c8.837 0 16-7.163 16-16V16c0-8.837-7.163-16-16-16Z"/></mask><g mask="url(#b)"><path fill="#FAF7FF" d="M354 0H16C7.163 0 0 7.163 0 16v338c0 8.837 7.163 16 16 16h338c8.837 0 16-7.163 16-16V16c0-8.837-7.163-16-16-16Z"/><path stroke="#D5C9F8" d="M354 .5H16C7.44.5.5 7.44.5 16v338c0 8.56 6.94 15.5 15.5 15.5h338c8.56 0 15.5-6.94 15.5-15.5V16c0-8.56-6.94-15.5-15.5-15.5Z"/><g filter="url(#c)"><path fill="#fff" fill-opacity=".5" d="M875 33H75c-5.523 0-10 4.477-10 10v68c0 5.523 4.477 10 10 10h800c5.523 0 10-4.477 10-10V43c0-5.523-4.477-10-10-10Z"/></g><path fill="#1D1D1B" d="M166.62 69.3c-1.033 0-1.967-.177-2.8-.53a5.37 5.37 0 0 1-2.05-1.53c-.533-.667-.88-1.457-1.04-2.37l2.18-.33c.22.88.68 1.567 1.38 2.06.7.487 1.517.73 2.45.73.58 0 1.113-.09 1.6-.27.487-.187.877-.45 1.17-.79.3-.347.45-.76.45-1.24a1.62 1.62 0 0 0-.51-1.21 1.994 1.994 0 0 0-.57-.39 4.263 4.263 0 0 0-.73-.29l-3.69-1.09a8.894 8.894 0 0 1-1.1-.41 4.34 4.34 0 0 1-1.03-.67 3.275 3.275 0 0 1-.75-1.03c-.193-.413-.29-.913-.29-1.5 0-.887.227-1.637.68-2.25.46-.62 1.08-1.087 1.86-1.4.78-.32 1.653-.48 2.62-.48.973.013 1.843.187 2.61.52a4.942 4.942 0 0 1 1.92 1.44c.513.62.867 1.373 1.06 2.26l-2.24.38a2.937 2.937 0 0 0-.64-1.39 3.21 3.21 0 0 0-1.2-.9 3.82 3.82 0 0 0-1.54-.33 3.769 3.769 0 0 0-1.47.24c-.44.173-.793.417-1.06.73-.26.313-.39.673-.39 1.08 0 .4.117.723.35.97.233.247.52.443.86.59.347.14.69.257 1.03.35l2.66.75c.333.093.71.22 1.13.38.427.153.837.37 1.23.65.4.28.73.653.99 1.12.26.46.39 1.04.39 1.74 0 .727-.147 1.367-.44 1.92a4.066 4.066 0 0 1-1.21 1.38 5.502 5.502 0 0 1-1.76.83 7.78 7.78 0 0 1-2.11.28Zm10.101 0c-.8 0-1.47-.147-2.01-.44-.54-.3-.95-.693-1.23-1.18a3.29 3.29 0 0 1-.41-1.62c0-.547.097-1.027.29-1.44.193-.413.48-.763.86-1.05.38-.293.847-.53 1.4-.71a15.34 15.34 0 0 1 1.63-.37 55.24 55.24 0 0 1 1.91-.3c.673-.093 1.34-.187 2-.28l-.76.42c.013-.847-.167-1.473-.54-1.88-.367-.413-1-.62-1.9-.62-.567 0-1.087.133-1.56.4-.473.26-.803.693-.99 1.3l-1.95-.6c.267-.927.773-1.663 1.52-2.21.753-.547 1.753-.82 3-.82.967 0 1.807.167 2.52.5a3.11 3.11 0 0 1 1.58 1.56c.173.353.28.727.32 1.12.04.393.06.817.06 1.27V69h-1.85v-2.47l.36.32c-.447.827-1.017 1.443-1.71 1.85-.687.4-1.533.6-2.54.6Zm.37-1.71c.593 0 1.103-.103 1.53-.31a3 3 0 0 0 1.03-.81c.26-.327.43-.667.51-1.02.113-.32.177-.68.19-1.08.02-.4.03-.72.03-.96l.68.25-1.8.27c-.54.08-1.03.16-1.47.24a8.71 8.71 0 0 0-1.16.27c-.287.1-.543.22-.77.36-.22.14-.397.31-.53.51-.127.2-.19.443-.19.73 0 .28.07.54.21.78.14.233.353.42.64.56.287.14.653.21 1.1.21Zm9.896 1.41-3.92-10.8h2.11l2.87 8.18 2.87-8.18h2.11l-3.92 10.8h-2.12Zm7.442-12.57V54.4h2.09v2.03h-2.09Zm0 12.57V58.2h2.09V69h-2.09Zm12.073 0v-5.31c0-.42-.037-.85-.11-1.29-.067-.447-.2-.86-.4-1.24a2.344 2.344 0 0 0-.83-.92c-.353-.233-.817-.35-1.39-.35-.373 0-.727.063-1.06.19-.333.12-.627.317-.88.59-.247.273-.443.633-.59 1.08-.14.447-.21.99-.21 1.63l-1.3-.49c0-.98.183-1.843.55-2.59a4.133 4.133 0 0 1 1.58-1.76c.687-.42 1.517-.63 2.49-.63.747 0 1.373.12 1.88.36.507.24.917.557 1.23.95.32.387.563.81.73 1.27.167.46.28.91.34 1.35.06.44.09.827.09 1.16v6h-2.12Zm-7.59 0V58.2h1.87v3.12h.25V69h-2.12Zm16.165 5.1c-.58 0-1.144-.09-1.69-.27a4.822 4.822 0 0 1-1.48-.8 4.325 4.325 0 0 1-1.11-1.29l1.93-.98c.233.46.566.797 1 1.01.433.213.89.32 1.37.32.593 0 1.1-.107 1.52-.32.42-.207.736-.52.95-.94.22-.42.326-.94.32-1.56v-3.02h.25V58.2h1.85v11.09c0 .287-.01.56-.03.82-.02.26-.057.52-.11.78-.154.727-.447 1.327-.88 1.8-.427.473-.974.827-1.64 1.06-.66.233-1.41.35-2.25.35Zm-.16-4.8c-1.007 0-1.877-.25-2.61-.75-.727-.5-1.29-1.18-1.69-2.04-.394-.867-.59-1.84-.59-2.92 0-1.087.2-2.057.6-2.91.4-.86.966-1.537 1.7-2.03.74-.5 1.616-.75 2.63-.75 1.02 0 1.876.25 2.57.75.7.493 1.226 1.17 1.58 2.03.36.86.54 1.83.54 2.91s-.18 2.05-.54 2.91c-.36.86-.89 1.543-1.59 2.05-.7.5-1.567.75-2.6.75Zm.29-1.89c.686 0 1.246-.163 1.68-.49.433-.327.75-.777.95-1.35.2-.573.3-1.233.3-1.98 0-.747-.104-1.407-.31-1.98-.2-.573-.514-1.02-.94-1.34-.42-.32-.957-.48-1.61-.48-.694 0-1.264.17-1.71.51-.447.34-.78.797-1 1.37-.214.573-.32 1.213-.32 1.92 0 .713.106 1.36.32 1.94.22.573.546 1.03.98 1.37.44.34.993.51 1.66.51Zm11.118 1.88c-1.314 0-2.384-.29-3.21-.87-.827-.58-1.334-1.397-1.52-2.45l2.14-.33c.133.56.44 1.003.92 1.33.486.32 1.09.48 1.81.48.653 0 1.163-.133 1.53-.4a1.28 1.28 0 0 0 .56-1.1c0-.273-.067-.493-.2-.66-.127-.173-.397-.337-.81-.49-.414-.153-1.044-.343-1.89-.57-.927-.24-1.664-.497-2.21-.77-.54-.28-.927-.603-1.16-.97-.227-.373-.34-.823-.34-1.35 0-.653.173-1.223.52-1.71.346-.487.833-.863 1.46-1.13.633-.267 1.373-.4 2.22-.4.826 0 1.563.13 2.21.39.646.26 1.17.63 1.57 1.11.4.473.64 1.03.72 1.67l-2.14.39a1.764 1.764 0 0 0-.73-1.23c-.414-.3-.95-.463-1.61-.49-.634-.027-1.147.08-1.54.32-.394.233-.59.557-.59.97 0 .24.073.443.22.61.153.167.446.327.88.48.433.153 1.073.337 1.92.55.906.233 1.626.493 2.16.78.533.28.913.617 1.14 1.01.233.387.35.857.35 1.41 0 1.067-.39 1.903-1.17 2.51-.774.607-1.844.91-3.21.91ZM166.096 99v-2.12H160.8v-1.352l3.8-8.048h1.616l-3.8 8.048h3.68v-3.24h1.44v3.24h1.2v1.352h-1.2V99h-1.44Zm7.609-11.752c.736 0 1.4.176 1.992.528a3.884 3.884 0 0 1 1.408 1.44c.352.608.528 1.299.528 2.072v3.832c0 .805-.173 1.517-.52 2.136a3.782 3.782 0 0 1-1.44 1.456c-.608.352-1.307.528-2.096.528-.629 0-1.219-.13-1.768-.392a3.888 3.888 0 0 1-1.384-1.112l1.064-.944c.235.33.536.597.904.8.368.197.763.296 1.184.296.512 0 .963-.123 1.352-.368a2.6 2.6 0 0 0 .92-.96 2.55 2.55 0 0 0 .336-1.28v-2.312l.312.352c-.331.48-.755.864-1.272 1.152a3.412 3.412 0 0 1-1.688.432c-.715 0-1.355-.168-1.92-.504a3.74 3.74 0 0 1-1.344-1.36 3.815 3.815 0 0 1-.496-1.936c0-.715.179-1.363.536-1.944a3.954 3.954 0 0 1 1.424-1.392 3.849 3.849 0 0 1 1.968-.52Zm0 1.376c-.459 0-.877.112-1.256.336a2.49 2.49 0 0 0-.896.896 2.38 2.38 0 0 0-.336 1.248c0 .459.109.877.328 1.256.224.373.523.672.896.896.379.224.797.336 1.256.336.459 0 .877-.112 1.256-.336a2.49 2.49 0 0 0 .896-.896c.224-.379.336-.797.336-1.256 0-.453-.112-.867-.336-1.24a2.468 2.468 0 0 0-.896-.904 2.377 2.377 0 0 0-1.248-.336Zm9.457-1.376c.736 0 1.4.176 1.992.528a3.876 3.876 0 0 1 1.408 1.44c.352.608.528 1.299.528 2.072v3.832c0 .805-.173 1.517-.52 2.136a3.768 3.768 0 0 1-1.44 1.456c-.608.352-1.306.528-2.096.528-.629 0-1.218-.13-1.768-.392a3.888 3.888 0 0 1-1.384-1.112l1.064-.944c.235.33.536.597.904.8.368.197.763.296 1.184.296.512 0 .963-.123 1.352-.368.395-.245.702-.565.92-.96a2.55 2.55 0 0 0 .336-1.28v-2.312l.312.352c-.33.48-.754.864-1.272 1.152a3.412 3.412 0 0 1-1.688.432c-.714 0-1.354-.168-1.92-.504a3.74 3.74 0 0 1-1.344-1.36 3.825 3.825 0 0 1-.496-1.936c0-.715.179-1.363.536-1.944a3.962 3.962 0 0 1 1.424-1.392 3.854 3.854 0 0 1 1.968-.52Zm0 1.376c-.458 0-.877.112-1.256.336a2.49 2.49 0 0 0-.896.896 2.38 2.38 0 0 0-.336 1.248c0 .459.11.877.328 1.256.224.373.523.672.896.896.379.224.798.336 1.256.336a2.48 2.48 0 0 0 2.488-2.488c0-.453-.112-.867-.336-1.24a2.46 2.46 0 0 0-.896-.904 2.377 2.377 0 0 0-1.248-.336Zm9.29 10.616c-.736 0-1.387-.147-1.952-.44a3.35 3.35 0 0 1-1.328-1.24c-.32-.528-.48-1.144-.48-1.848 0-.688.163-1.31.488-1.864.331-.555.827-.981 1.488-1.28l-.024.52a2.876 2.876 0 0 1-1.24-1.104 3.036 3.036 0 0 1-.432-1.592c0-.65.149-1.21.448-1.68a2.98 2.98 0 0 1 1.232-1.088c.523-.256 1.123-.384 1.8-.384s1.277.128 1.8.384a2.98 2.98 0 0 1 1.232 1.088c.299.47.448 1.03.448 1.68 0 .581-.136 1.11-.408 1.584-.272.47-.691.84-1.256 1.112l-.032-.512c.661.288 1.157.712 1.488 1.272.336.555.504 1.176.504 1.864 0 .704-.163 1.32-.488 1.848-.32.528-.765.941-1.336 1.24-.565.293-1.216.44-1.952.44Zm0-1.36c.672 0 1.216-.184 1.632-.552.421-.373.632-.912.632-1.616 0-.71-.208-1.248-.624-1.616-.411-.373-.957-.56-1.64-.56-.677 0-1.224.187-1.64.56-.411.368-.616.907-.616 1.616 0 .704.208 1.243.624 1.616.416.368.96.552 1.632.552Zm0-5.712c.587 0 1.061-.147 1.424-.44.363-.299.544-.744.544-1.336 0-.592-.181-1.035-.544-1.328-.363-.299-.837-.448-1.424-.448-.581 0-1.056.15-1.424.448-.363.293-.544.736-.544 1.328 0 .592.181 1.037.544 1.336.368.293.843.44 1.424.44Zm9.184.736-1.048-.76 1.24-1.56-1.92-.56.4-1.232 1.872.696-.072-2.008h1.296l-.072 2.008 1.872-.696.4 1.232-1.92.56 1.232 1.56-1.048.76-1.112-1.648-1.12 1.648Zm6.661 0-1.048-.76 1.24-1.56-1.92-.56.4-1.232 1.872.696-.072-2.008h1.296l-.072 2.008 1.872-.696.4 1.232-1.92.56 1.232 1.56-1.048.76-1.112-1.648-1.12 1.648Zm6.66 0-1.048-.76 1.24-1.56-1.92-.56.4-1.232 1.872.696-.072-2.008h1.296l-.072 2.008 1.872-.696.4 1.232-1.92.56 1.232 1.56-1.048.76-1.112-1.648-1.12 1.648Zm6.661 0-1.048-.76 1.24-1.56-1.92-.56.4-1.232 1.872.696-.072-2.008h1.296l-.072 2.008 1.872-.696.4 1.232-1.92.56 1.232 1.56-1.048.76-1.112-1.648-1.12 1.648Zm9.384 0-1.048-.76 1.24-1.56-1.92-.56.4-1.232 1.872.696-.072-2.008h1.296l-.072 2.008 1.872-.696.4 1.232-1.92.56 1.232 1.56-1.048.76-1.112-1.648-1.12 1.648Zm6.66 0-1.048-.76 1.24-1.56-1.92-.56.4-1.232 1.872.696-.072-2.008h1.296l-.072 2.008 1.872-.696.4 1.232-1.92.56 1.232 1.56-1.048.76-1.112-1.648-1.12 1.648Zm6.661 0-1.048-.76 1.24-1.56-1.92-.56.4-1.232 1.872.696-.072-2.008h1.296l-.072 2.008 1.872-.696.4 1.232-1.92.56 1.232 1.56-1.048.76-1.112-1.648-1.12 1.648Zm6.661 0-1.048-.76 1.24-1.56-1.92-.56.4-1.232 1.872.696-.072-2.008h1.296l-.072 2.008 1.872-.696.4 1.232-1.92.56 1.232 1.56-1.048.76-1.112-1.648-1.12 1.648Zm9.383 0-1.048-.76 1.24-1.56-1.92-.56.4-1.232 1.872.696-.072-2.008h1.296l-.072 2.008 1.872-.696.4 1.232-1.92.56 1.232 1.56-1.048.76-1.112-1.648-1.12 1.648Zm6.661 0-1.048-.76 1.24-1.56-1.92-.56.4-1.232 1.872.696-.072-2.008h1.296l-.072 2.008 1.872-.696.4 1.232-1.92.56 1.232 1.56-1.048.76-1.112-1.648-1.12 1.648Zm6.661 0-1.048-.76 1.24-1.56-1.92-.56.4-1.232 1.872.696-.072-2.008h1.296l-.072 2.008 1.872-.696.4 1.232-1.92.56 1.232 1.56-1.048.76-1.112-1.648-1.12 1.648Zm6.66 0-1.048-.76 1.24-1.56-1.92-.56.4-1.232 1.872.696-.072-2.008h1.296l-.072 2.008 1.872-.696.4 1.232-1.92.56 1.232 1.56-1.048.76-1.112-1.648-1.12 1.648Z"/><g filter="url(#d)"><path fill="#fff" fill-opacity=".5" d="M927 141H127c-5.523 0-10 4.477-10 10v68c0 5.523 4.477 10 10 10h800c5.523 0 10-4.477 10-10v-68c0-5.523-4.477-10-10-10Z"/></g><path fill="#1D1D1B" d="M219.41 177.3c-1.44 0-2.667-.313-3.68-.94-1.013-.633-1.79-1.513-2.33-2.64-.533-1.127-.8-2.433-.8-3.92s.267-2.793.8-3.92c.54-1.127 1.317-2.003 2.33-2.63 1.013-.633 2.24-.95 3.68-.95 1.66 0 3.033.42 4.12 1.26 1.093.84 1.853 1.97 2.28 3.39l-2.12.57c-.28-1.007-.78-1.797-1.5-2.37-.713-.573-1.64-.86-2.78-.86-1.02 0-1.87.23-2.55.69-.68.46-1.193 1.103-1.54 1.93-.34.827-.51 1.79-.51 2.89-.007 1.1.16 2.063.5 2.89.347.827.86 1.47 1.54 1.93.687.46 1.54.69 2.56.69 1.14 0 2.067-.287 2.78-.86.72-.58 1.22-1.37 1.5-2.37l2.12.57c-.427 1.42-1.187 2.55-2.28 3.39-1.087.84-2.46 1.26-4.12 1.26Zm15.579-.3v-5.31c0-.42-.036-.85-.11-1.29-.066-.447-.2-.86-.4-1.24a2.342 2.342 0 0 0-.83-.92c-.353-.233-.816-.35-1.39-.35-.373 0-.726.063-1.06.19-.333.12-.626.317-.88.59-.246.273-.443.633-.59 1.08-.14.447-.21.99-.21 1.63l-1.3-.49c0-.98.184-1.843.55-2.59a4.14 4.14 0 0 1 1.58-1.76c.687-.42 1.517-.63 2.49-.63.747 0 1.374.12 1.88.36.507.24.917.557 1.23.95.32.387.564.81.73 1.27.167.46.28.91.34 1.35.06.44.09.827.09 1.16v6h-2.12Zm-7.59 0v-14.4h1.87v7.77h.25V177h-2.12Zm16.505.3c-1.073 0-2.017-.233-2.83-.7a4.971 4.971 0 0 1-1.89-1.97c-.447-.847-.67-1.827-.67-2.94 0-1.18.22-2.203.66-3.07.447-.867 1.067-1.537 1.86-2.01.793-.473 1.717-.71 2.77-.71 1.1 0 2.037.257 2.81.77.773.507 1.35 1.23 1.73 2.17.387.94.54 2.057.46 3.35h-2.09v-.76c-.013-1.253-.253-2.18-.72-2.78-.46-.6-1.163-.9-2.11-.9-1.047 0-1.833.33-2.36.99-.527.66-.79 1.613-.79 2.86 0 1.187.263 2.107.79 2.76.527.647 1.287.97 2.28.97.653 0 1.217-.147 1.69-.44.48-.3.853-.727 1.12-1.28l2.05.65c-.42.967-1.057 1.717-1.91 2.25-.853.527-1.803.79-2.85.79Zm-3.85-5.11v-1.63h7.71v1.63h-7.71Zm15.014 5.11c-1.107 0-2.047-.247-2.82-.74a4.829 4.829 0 0 1-1.78-2.03c-.407-.86-.614-1.837-.62-2.93.006-1.113.22-2.097.64-2.95a4.817 4.817 0 0 1 1.8-2.02c.78-.487 1.716-.73 2.81-.73 1.18 0 2.186.293 3.02.88.84.587 1.393 1.39 1.66 2.41l-2.08.6c-.207-.607-.547-1.077-1.02-1.41a2.665 2.665 0 0 0-1.61-.51c-.687 0-1.25.163-1.69.49-.44.32-.767.76-.98 1.32-.214.56-.324 1.2-.33 1.92.006 1.113.26 2.013.76 2.7.506.687 1.253 1.03 2.24 1.03.673 0 1.216-.153 1.63-.46.42-.313.74-.76.96-1.34l2.12.5c-.354 1.053-.937 1.863-1.75 2.43-.814.56-1.8.84-2.96.84Zm6.137-.3.01-14.4h2.12v8.8l4.24-5.2h2.66l-4.48 5.4 4.94 5.4h-2.84l-4.52-5.2v5.2h-2.13Zm10.098-12.57v-2.03h2.09v2.03h-2.09Zm0 12.57v-10.8h2.09V177h-2.09Zm12.073 0v-5.31c0-.42-.037-.85-.11-1.29-.067-.447-.2-.86-.4-1.24a2.342 2.342 0 0 0-.83-.92c-.353-.233-.817-.35-1.39-.35-.373 0-.727.063-1.06.19-.333.12-.627.317-.88.59-.247.273-.443.633-.59 1.08-.14.447-.21.99-.21 1.63l-1.3-.49c0-.98.183-1.843.55-2.59a4.134 4.134 0 0 1 1.58-1.76c.687-.42 1.517-.63 2.49-.63.747 0 1.373.12 1.88.36.507.24.917.557 1.23.95.32.387.563.81.73 1.27.167.46.28.91.34 1.35.06.44.09.827.09 1.16v6h-2.12Zm-7.59 0v-10.8h1.87v3.12h.25V177h-2.12Zm16.165 5.1c-.58 0-1.144-.09-1.69-.27a4.829 4.829 0 0 1-1.48-.8 4.332 4.332 0 0 1-1.11-1.29l1.93-.98c.233.46.566.797 1 1.01.433.213.89.32 1.37.32.593 0 1.1-.107 1.52-.32.42-.207.736-.52.95-.94.22-.42.326-.94.32-1.56v-3.02h.25v-8.05h1.85v11.09c0 .287-.01.56-.03.82-.02.26-.057.52-.11.78-.154.727-.447 1.327-.88 1.8-.427.473-.974.827-1.64 1.06-.66.233-1.41.35-2.25.35Zm-.16-4.8c-1.007 0-1.877-.25-2.61-.75-.727-.5-1.29-1.18-1.69-2.04-.394-.867-.59-1.84-.59-2.92 0-1.087.2-2.057.6-2.91.4-.86.966-1.537 1.7-2.03.74-.5 1.616-.75 2.63-.75 1.02 0 1.876.25 2.57.75.7.493 1.226 1.17 1.58 2.03.36.86.54 1.83.54 2.91s-.18 2.05-.54 2.91c-.36.86-.89 1.543-1.59 2.05-.7.5-1.567.75-2.6.75Zm.29-1.89c.686 0 1.246-.163 1.68-.49.433-.327.75-.777.95-1.35.2-.573.3-1.233.3-1.98 0-.747-.104-1.407-.31-1.98-.2-.573-.514-1.02-.94-1.34-.42-.32-.957-.48-1.61-.48-.694 0-1.264.17-1.71.51-.447.34-.78.797-1 1.37-.214.573-.32 1.213-.32 1.92 0 .713.106 1.36.32 1.94.22.573.546 1.03.98 1.37.44.34.993.51 1.66.51ZM218.096 207v-2.12H212.8v-1.352l3.8-8.048h1.616l-3.8 8.048h3.68v-3.24h1.44v3.24h1.2v1.352h-1.2V207h-1.44Zm7.609-11.752c.736 0 1.4.176 1.992.528a3.884 3.884 0 0 1 1.408 1.44c.352.608.528 1.299.528 2.072v3.832c0 .805-.173 1.517-.52 2.136a3.78 3.78 0 0 1-1.44 1.456c-.608.352-1.307.528-2.096.528a4.068 4.068 0 0 1-1.768-.392 3.885 3.885 0 0 1-1.384-1.112l1.064-.944c.235.331.536.597.904.8.368.197.763.296 1.184.296.512 0 .963-.123 1.352-.368.395-.245.701-.565.92-.96a2.55 2.55 0 0 0 .336-1.28v-2.312l.312.352c-.331.48-.755.864-1.272 1.152a3.412 3.412 0 0 1-1.688.432c-.715 0-1.355-.168-1.92-.504a3.737 3.737 0 0 1-1.344-1.36 3.814 3.814 0 0 1-.496-1.936c0-.715.179-1.363.536-1.944a3.95 3.95 0 0 1 1.424-1.392 3.846 3.846 0 0 1 1.968-.52Zm0 1.376c-.459 0-.877.112-1.256.336a2.49 2.49 0 0 0-.896.896 2.377 2.377 0 0 0-.336 1.248c0 .459.109.877.328 1.256.224.373.523.672.896.896.379.224.797.336 1.256.336.459 0 .877-.112 1.256-.336a2.49 2.49 0 0 0 .896-.896c.224-.379.336-.797.336-1.256 0-.453-.112-.867-.336-1.24a2.466 2.466 0 0 0-.896-.904 2.377 2.377 0 0 0-1.248-.336Zm9.457-1.376c.736 0 1.4.176 1.992.528a3.876 3.876 0 0 1 1.408 1.44c.352.608.528 1.299.528 2.072v3.832c0 .805-.173 1.517-.52 2.136a3.766 3.766 0 0 1-1.44 1.456c-.608.352-1.306.528-2.096.528a4.071 4.071 0 0 1-1.768-.392 3.885 3.885 0 0 1-1.384-1.112l1.064-.944c.235.331.536.597.904.8.368.197.763.296 1.184.296.512 0 .963-.123 1.352-.368.395-.245.702-.565.92-.96a2.55 2.55 0 0 0 .336-1.28v-2.312l.312.352c-.33.48-.754.864-1.272 1.152a3.412 3.412 0 0 1-1.688.432c-.714 0-1.354-.168-1.92-.504a3.737 3.737 0 0 1-1.344-1.36 3.824 3.824 0 0 1-.496-1.936c0-.715.179-1.363.536-1.944a3.957 3.957 0 0 1 1.424-1.392 3.85 3.85 0 0 1 1.968-.52Zm0 1.376c-.458 0-.877.112-1.256.336a2.49 2.49 0 0 0-.896.896 2.377 2.377 0 0 0-.336 1.248c0 .459.11.877.328 1.256.224.373.523.672.896.896.379.224.798.336 1.256.336a2.483 2.483 0 0 0 2.488-2.488c0-.453-.112-.867-.336-1.24a2.458 2.458 0 0 0-.896-.904 2.377 2.377 0 0 0-1.248-.336Zm9.29 10.616c-.736 0-1.387-.147-1.952-.44a3.351 3.351 0 0 1-1.328-1.24c-.32-.528-.48-1.144-.48-1.848 0-.688.163-1.309.488-1.864.331-.555.827-.981 1.488-1.28l-.024.52a2.872 2.872 0 0 1-1.24-1.104 3.037 3.037 0 0 1-.432-1.592c0-.651.149-1.211.448-1.68a2.982 2.982 0 0 1 1.232-1.088c.523-.256 1.123-.384 1.8-.384s1.277.128 1.8.384c.523.256.933.619 1.232 1.088.299.469.448 1.029.448 1.68a3.13 3.13 0 0 1-.408 1.584c-.272.469-.691.84-1.256 1.112l-.032-.512c.661.288 1.157.712 1.488 1.272.336.555.504 1.176.504 1.864 0 .704-.163 1.32-.488 1.848-.32.528-.765.941-1.336 1.24-.565.293-1.216.44-1.952.44Zm0-1.36c.672 0 1.216-.184 1.632-.552.421-.373.632-.912.632-1.616 0-.709-.208-1.248-.624-1.616-.411-.373-.957-.56-1.64-.56-.677 0-1.224.187-1.64.56-.411.368-.616.907-.616 1.616 0 .704.208 1.243.624 1.616.416.368.96.552 1.632.552Zm0-5.712c.587 0 1.061-.147 1.424-.44.363-.299.544-.744.544-1.336 0-.592-.181-1.035-.544-1.328-.363-.299-.837-.448-1.424-.448-.581 0-1.056.149-1.424.448-.363.293-.544.736-.544 1.328 0 .592.181 1.037.544 1.336.368.293.843.44 1.424.44Zm9.184.736-1.048-.76 1.24-1.56-1.92-.56.4-1.232 1.872.696-.072-2.008h1.296l-.072 2.008 1.872-.696.4 1.232-1.92.56 1.232 1.56-1.048.76-1.112-1.648-1.12 1.648Zm6.661 0-1.048-.76 1.24-1.56-1.92-.56.4-1.232 1.872.696-.072-2.008h1.296l-.072 2.008 1.872-.696.4 1.232-1.92.56 1.232 1.56-1.048.76-1.112-1.648-1.12 1.648Zm6.66 0-1.048-.76 1.24-1.56-1.92-.56.4-1.232 1.872.696-.072-2.008h1.296l-.072 2.008 1.872-.696.4 1.232-1.92.56 1.232 1.56-1.048.76-1.112-1.648-1.12 1.648Zm6.661 0-1.048-.76 1.24-1.56-1.92-.56.4-1.232 1.872.696-.072-2.008h1.296l-.072 2.008 1.872-.696.4 1.232-1.92.56 1.232 1.56-1.048.76-1.112-1.648-1.12 1.648Zm9.384 0-1.048-.76 1.24-1.56-1.92-.56.4-1.232 1.872.696-.072-2.008h1.296l-.072 2.008 1.872-.696.4 1.232-1.92.56 1.232 1.56-1.048.76-1.112-1.648-1.12 1.648Zm6.66 0-1.048-.76 1.24-1.56-1.92-.56.4-1.232 1.872.696-.072-2.008h1.296l-.072 2.008 1.872-.696.4 1.232-1.92.56 1.232 1.56-1.048.76-1.112-1.648-1.12 1.648Zm6.661 0-1.048-.76 1.24-1.56-1.92-.56.4-1.232 1.872.696-.072-2.008h1.296l-.072 2.008 1.872-.696.4 1.232-1.92.56 1.232 1.56-1.048.76-1.112-1.648-1.12 1.648Zm6.661 0-1.048-.76 1.24-1.56-1.92-.56.4-1.232 1.872.696-.072-2.008h1.296l-.072 2.008 1.872-.696.4 1.232-1.92.56 1.232 1.56-1.048.76-1.112-1.648-1.12 1.648Zm9.383 0-1.048-.76 1.24-1.56-1.92-.56.4-1.232 1.872.696-.072-2.008h1.296l-.072 2.008 1.872-.696.4 1.232-1.92.56 1.232 1.56-1.048.76-1.112-1.648-1.12 1.648Zm6.661 0-1.048-.76 1.24-1.56-1.92-.56.4-1.232 1.872.696-.072-2.008h1.296l-.072 2.008 1.872-.696.4 1.232-1.92.56 1.232 1.56-1.048.76-1.112-1.648-1.12 1.648Zm6.661 0-1.048-.76 1.24-1.56-1.92-.56.4-1.232 1.872.696-.072-2.008h1.296l-.072 2.008 1.872-.696.4 1.232-1.92.56 1.232 1.56-1.048.76-1.112-1.648-1.12 1.648Zm6.66 0-1.048-.76 1.24-1.56-1.92-.56.4-1.232 1.872.696-.072-2.008h1.296l-.072 2.008 1.872-.696.4 1.232-1.92.56 1.232 1.56-1.048.76-1.112-1.648-1.12 1.648Z"/><g filter="url(#e)"><path fill="#fff" fill-opacity=".5" d="M862 249H62c-5.523 0-10 4.477-10 10v68c0 5.523 4.477 10 10 10h800c5.523 0 10-4.477 10-10v-68c0-5.523-4.477-10-10-10Z"/></g><path fill="#1D1D1B" d="M148.4 285v-14.4h5.82c.14 0 .313.007.52.02.207.007.403.027.59.06.8.127 1.467.4 2 .82.54.42.943.95 1.21 1.59.267.64.4 1.347.4 2.12 0 .78-.133 1.49-.4 2.13-.267.64-.67 1.17-1.21 1.59-.533.42-1.2.693-2 .82a7.334 7.334 0 0 1-.6.06c-.207.013-.377.02-.51.02h-3.73V285h-2.09Zm2.09-7.15h3.65c.133 0 .28-.007.44-.02.167-.013.323-.037.47-.07.427-.1.77-.283 1.03-.55.26-.273.447-.587.56-.94a3.373 3.373 0 0 0 0-2.11 2.339 2.339 0 0 0-.56-.93c-.26-.273-.603-.46-1.03-.56a2.532 2.532 0 0 0-.47-.08 5.489 5.489 0 0 0-.44-.02h-3.65v5.28Zm12.567 7.45c-.8 0-1.47-.147-2.01-.44-.54-.3-.95-.693-1.23-1.18a3.289 3.289 0 0 1-.41-1.62c0-.547.097-1.027.29-1.44.193-.413.48-.763.86-1.05.38-.293.847-.53 1.4-.71.48-.14 1.023-.263 1.63-.37a53.825 53.825 0 0 1 1.91-.3c.673-.093 1.34-.187 2-.28l-.76.42c.013-.847-.167-1.473-.54-1.88-.367-.413-1-.62-1.9-.62-.567 0-1.087.133-1.56.4-.473.26-.803.693-.99 1.3l-1.95-.6c.267-.927.773-1.663 1.52-2.21.753-.547 1.753-.82 3-.82.967 0 1.807.167 2.52.5a3.11 3.11 0 0 1 1.58 1.56c.173.353.28.727.32 1.12.04.393.06.817.06 1.27V285h-1.85v-2.47l.36.32c-.447.827-1.017 1.443-1.71 1.85-.687.4-1.533.6-2.54.6Zm.37-1.71c.593 0 1.103-.103 1.53-.31a3 3 0 0 0 1.03-.81c.26-.327.43-.667.51-1.02.113-.32.177-.68.19-1.08.02-.4.03-.72.03-.96l.68.25-1.8.27c-.54.08-1.03.16-1.47.24a8.71 8.71 0 0 0-1.16.27c-.287.1-.543.22-.77.36-.22.14-.397.31-.53.51-.127.2-.19.443-.19.73 0 .28.07.54.21.78.14.233.353.42.64.56.287.14.653.21 1.1.21Zm8.221 6.21 2.09-5.69.03 1.68-4.71-11.59h2.18l3.52 8.95h-.64l3.36-8.95h2.12l-5.96 15.6h-1.99Zm21.857-4.8.01-6.73c0-.78-.2-1.387-.6-1.82-.4-.44-.927-.66-1.58-.66-.4 0-.767.093-1.1.28a2.06 2.06 0 0 0-.8.82c-.2.36-.3.813-.3 1.36l-1.01-.51c-.013-.76.147-1.427.48-2 .34-.573.8-1.017 1.38-1.33.58-.32 1.23-.48 1.95-.48 1.167 0 2.07.35 2.71 1.05.64.7.96 1.63.96 2.79l-.01 7.23h-2.09Zm-12.95 0v-10.8h1.86v3.12h.24V285h-2.1Zm6.48 0 .01-6.69c0-.787-.2-1.403-.6-1.85-.393-.447-.923-.67-1.59-.67-.66 0-1.193.227-1.6.68-.4.453-.6 1.047-.6 1.78l-1-.64c0-.707.17-1.337.51-1.89.34-.553.8-.99 1.38-1.31.58-.32 1.237-.48 1.97-.48.767 0 1.42.163 1.96.49.54.32.95.77 1.23 1.35.287.58.43 1.253.43 2.02l-.01 7.21h-2.09Zm15.22.3c-1.073 0-2.017-.233-2.83-.7a4.971 4.971 0 0 1-1.89-1.97c-.447-.847-.67-1.827-.67-2.94 0-1.18.22-2.203.66-3.07.447-.867 1.067-1.537 1.86-2.01.793-.473 1.717-.71 2.77-.71 1.1 0 2.037.257 2.81.77.773.507 1.35 1.23 1.73 2.17.387.94.54 2.057.46 3.35h-2.09v-.76c-.013-1.253-.253-2.18-.72-2.78-.46-.6-1.163-.9-2.11-.9-1.047 0-1.833.33-2.36.99-.527.66-.79 1.613-.79 2.86 0 1.187.263 2.107.79 2.76.527.647 1.287.97 2.28.97.653 0 1.217-.147 1.69-.44.48-.3.853-.727 1.12-1.28l2.05.65c-.42.967-1.057 1.717-1.91 2.25-.853.527-1.803.79-2.85.79Zm-3.85-5.11v-1.63h7.71v1.63h-7.71Zm17.68 4.81v-5.31c0-.42-.036-.85-.11-1.29-.066-.447-.2-.86-.4-1.24a2.342 2.342 0 0 0-.83-.92c-.353-.233-.816-.35-1.39-.35-.373 0-.726.063-1.06.19-.333.12-.626.317-.88.59-.246.273-.443.633-.59 1.08-.14.447-.21.99-.21 1.63l-1.3-.49c0-.98.184-1.843.55-2.59a4.14 4.14 0 0 1 1.58-1.76c.687-.42 1.517-.63 2.49-.63.747 0 1.374.12 1.88.36.507.24.917.557 1.23.95.32.387.564.81.73 1.27.167.46.28.91.34 1.35.06.44.09.827.09 1.16v6h-2.12Zm-7.59 0v-10.8h1.87v3.12h.25V285h-2.12Zm17.895 0a8.97 8.97 0 0 1-2 .17c-.653-.02-1.237-.147-1.75-.38-.513-.233-.9-.6-1.16-1.1-.233-.447-.36-.9-.38-1.36-.013-.467-.02-.993-.02-1.58v-9.55h2.1v9.45c0 .433.003.81.01 1.13.013.32.083.59.21.81.24.413.62.65 1.14.71.527.053 1.143.03 1.85-.07V285Zm-7.38-9.12v-1.68h7.38v1.68h-7.38ZM153.096 315v-2.12H147.8v-1.352l3.8-8.048h1.616l-3.8 8.048h3.68v-3.24h1.44v3.24h1.2v1.352h-1.2V315h-1.44Zm7.609-11.752c.736 0 1.4.176 1.992.528a3.884 3.884 0 0 1 1.408 1.44c.352.608.528 1.299.528 2.072v3.832c0 .805-.173 1.517-.52 2.136a3.78 3.78 0 0 1-1.44 1.456c-.608.352-1.307.528-2.096.528a4.068 4.068 0 0 1-1.768-.392 3.885 3.885 0 0 1-1.384-1.112l1.064-.944c.235.331.536.597.904.8.368.197.763.296 1.184.296.512 0 .963-.123 1.352-.368.395-.245.701-.565.92-.96a2.55 2.55 0 0 0 .336-1.28v-2.312l.312.352c-.331.48-.755.864-1.272 1.152a3.412 3.412 0 0 1-1.688.432c-.715 0-1.355-.168-1.92-.504a3.737 3.737 0 0 1-1.344-1.36 3.814 3.814 0 0 1-.496-1.936c0-.715.179-1.363.536-1.944a3.95 3.95 0 0 1 1.424-1.392 3.846 3.846 0 0 1 1.968-.52Zm0 1.376c-.459 0-.877.112-1.256.336a2.49 2.49 0 0 0-.896.896 2.377 2.377 0 0 0-.336 1.248c0 .459.109.877.328 1.256.224.373.523.672.896.896.379.224.797.336 1.256.336.459 0 .877-.112 1.256-.336a2.49 2.49 0 0 0 .896-.896c.224-.379.336-.797.336-1.256 0-.453-.112-.867-.336-1.24a2.466 2.466 0 0 0-.896-.904 2.377 2.377 0 0 0-1.248-.336Zm9.457-1.376c.736 0 1.4.176 1.992.528a3.876 3.876 0 0 1 1.408 1.44c.352.608.528 1.299.528 2.072v3.832c0 .805-.173 1.517-.52 2.136a3.766 3.766 0 0 1-1.44 1.456c-.608.352-1.306.528-2.096.528a4.071 4.071 0 0 1-1.768-.392 3.885 3.885 0 0 1-1.384-1.112l1.064-.944c.235.331.536.597.904.8.368.197.763.296 1.184.296.512 0 .963-.123 1.352-.368.395-.245.702-.565.92-.96a2.55 2.55 0 0 0 .336-1.28v-2.312l.312.352c-.33.48-.754.864-1.272 1.152a3.412 3.412 0 0 1-1.688.432c-.714 0-1.354-.168-1.92-.504a3.737 3.737 0 0 1-1.344-1.36 3.824 3.824 0 0 1-.496-1.936c0-.715.179-1.363.536-1.944a3.957 3.957 0 0 1 1.424-1.392 3.85 3.85 0 0 1 1.968-.52Zm0 1.376c-.458 0-.877.112-1.256.336a2.49 2.49 0 0 0-.896.896 2.377 2.377 0 0 0-.336 1.248c0 .459.11.877.328 1.256.224.373.523.672.896.896.379.224.798.336 1.256.336a2.483 2.483 0 0 0 2.488-2.488c0-.453-.112-.867-.336-1.24a2.458 2.458 0 0 0-.896-.904 2.377 2.377 0 0 0-1.248-.336Zm9.29 10.616c-.736 0-1.387-.147-1.952-.44a3.351 3.351 0 0 1-1.328-1.24c-.32-.528-.48-1.144-.48-1.848 0-.688.163-1.309.488-1.864.331-.555.827-.981 1.488-1.28l-.024.52a2.872 2.872 0 0 1-1.24-1.104 3.037 3.037 0 0 1-.432-1.592c0-.651.149-1.211.448-1.68a2.982 2.982 0 0 1 1.232-1.088c.523-.256 1.123-.384 1.8-.384s1.277.128 1.8.384c.523.256.933.619 1.232 1.088.299.469.448 1.029.448 1.68a3.13 3.13 0 0 1-.408 1.584c-.272.469-.691.84-1.256 1.112l-.032-.512c.661.288 1.157.712 1.488 1.272.336.555.504 1.176.504 1.864 0 .704-.163 1.32-.488 1.848-.32.528-.765.941-1.336 1.24-.565.293-1.216.44-1.952.44Zm0-1.36c.672 0 1.216-.184 1.632-.552.421-.373.632-.912.632-1.616 0-.709-.208-1.248-.624-1.616-.411-.373-.957-.56-1.64-.56-.677 0-1.224.187-1.64.56-.411.368-.616.907-.616 1.616 0 .704.208 1.243.624 1.616.416.368.96.552 1.632.552Zm0-5.712c.587 0 1.061-.147 1.424-.44.363-.299.544-.744.544-1.336 0-.592-.181-1.035-.544-1.328-.363-.299-.837-.448-1.424-.448-.581 0-1.056.149-1.424.448-.363.293-.544.736-.544 1.328 0 .592.181 1.037.544 1.336.368.293.843.44 1.424.44Zm9.184.736-1.048-.76 1.24-1.56-1.92-.56.4-1.232 1.872.696-.072-2.008h1.296l-.072 2.008 1.872-.696.4 1.232-1.92.56 1.232 1.56-1.048.76-1.112-1.648-1.12 1.648Zm6.661 0-1.048-.76 1.24-1.56-1.92-.56.4-1.232 1.872.696-.072-2.008h1.296l-.072 2.008 1.872-.696.4 1.232-1.92.56 1.232 1.56-1.048.76-1.112-1.648-1.12 1.648Zm6.66 0-1.048-.76 1.24-1.56-1.92-.56.4-1.232 1.872.696-.072-2.008h1.296l-.072 2.008 1.872-.696.4 1.232-1.92.56 1.232 1.56-1.048.76-1.112-1.648-1.12 1.648Zm6.661 0-1.048-.76 1.24-1.56-1.92-.56.4-1.232 1.872.696-.072-2.008h1.296l-.072 2.008 1.872-.696.4 1.232-1.92.56 1.232 1.56-1.048.76-1.112-1.648-1.12 1.648Zm9.384 0-1.048-.76 1.24-1.56-1.92-.56.4-1.232 1.872.696-.072-2.008h1.296l-.072 2.008 1.872-.696.4 1.232-1.92.56 1.232 1.56-1.048.76-1.112-1.648-1.12 1.648Zm6.66 0-1.048-.76 1.24-1.56-1.92-.56.4-1.232 1.872.696-.072-2.008h1.296l-.072 2.008 1.872-.696.4 1.232-1.92.56 1.232 1.56-1.048.76-1.112-1.648-1.12 1.648Zm6.661 0-1.048-.76 1.24-1.56-1.92-.56.4-1.232 1.872.696-.072-2.008h1.296l-.072 2.008 1.872-.696.4 1.232-1.92.56 1.232 1.56-1.048.76-1.112-1.648-1.12 1.648Zm6.661 0-1.048-.76 1.24-1.56-1.92-.56.4-1.232 1.872.696-.072-2.008h1.296l-.072 2.008 1.872-.696.4 1.232-1.92.56 1.232 1.56-1.048.76-1.112-1.648-1.12 1.648Zm9.383 0-1.048-.76 1.24-1.56-1.92-.56.4-1.232 1.872.696-.072-2.008h1.296l-.072 2.008 1.872-.696.4 1.232-1.92.56 1.232 1.56-1.048.76-1.112-1.648-1.12 1.648Zm6.661 0-1.048-.76 1.24-1.56-1.92-.56.4-1.232 1.872.696-.072-2.008h1.296l-.072 2.008 1.872-.696.4 1.232-1.92.56 1.232 1.56-1.048.76-1.112-1.648-1.12 1.648Zm6.661 0-1.048-.76 1.24-1.56-1.92-.56.4-1.232 1.872.696-.072-2.008h1.296l-.072 2.008 1.872-.696.4 1.232-1.92.56 1.232 1.56-1.048.76-1.112-1.648-1.12 1.648Zm6.66 0-1.048-.76 1.24-1.56-1.92-.56.4-1.232 1.872.696-.072-2.008h1.296l-.072 2.008 1.872-.696.4 1.232-1.92.56 1.232 1.56-1.048.76-1.112-1.648-1.12 1.648Z"/><path fill="url(#f)" fill-rule="evenodd" d="M103.764 55.904A6.506 6.506 0 0 1 108.363 54c5.797 0 8.699 7.005 4.6 11.101L99.179 78.875a.567.567 0 1 0 .802.801l16.836-16.823c5.303-5.3 13.902-5.3 19.205 0 5.304 5.3 5.304 13.892 0 19.191l-16.063 16.052a6.507 6.507 0 0 1-4.6 1.904c-5.796 0-8.698-7.005-4.599-11.101l16.061-16.05a.567.567 0 0 0-.802-.801l-16.836 16.823c-5.303 5.3-13.902 5.3-19.205 0-5.304-5.3-5.304-13.891 0-19.191l13.786-13.776Z" clip-rule="evenodd"/><path fill="url(#g)" fill-rule="evenodd" d="M155.764 163.904a6.507 6.507 0 0 1 4.599-1.904c5.797 0 8.699 7.005 4.6 11.101l-13.784 13.774a.567.567 0 1 0 .802.801l16.836-16.823c5.303-5.299 13.902-5.299 19.205 0 5.304 5.3 5.304 13.892 0 19.191l-16.063 16.052a6.507 6.507 0 0 1-4.6 1.904c-5.796 0-8.698-7.005-4.599-11.101l16.061-16.049a.568.568 0 0 0-.802-.802l-16.836 16.823c-5.303 5.3-13.902 5.3-19.205 0-5.304-5.299-5.304-13.892 0-19.191l13.786-13.776Z" clip-rule="evenodd"/><path fill="url(#h)" fill-rule="evenodd" d="M90.764 271.904a6.508 6.508 0 0 1 4.6-1.904c5.796 0 8.698 7.005 4.599 11.101l-13.784 13.774a.566.566 0 1 0 .802.801l16.836-16.823c5.303-5.299 13.902-5.299 19.205 0 5.304 5.3 5.304 13.892 0 19.191l-16.063 16.052a6.507 6.507 0 0 1-4.6 1.904c-5.796 0-8.698-7.005-4.6-11.101l16.062-16.049a.568.568 0 0 0-.802-.802l-16.836 16.823c-5.303 5.3-13.902 5.3-19.205 0-5.304-5.299-5.304-13.892 0-19.191l13.786-13.776Z" clip-rule="evenodd"/></g></g><rect width="368" height="368" x="1" y="1" stroke="#D5C9F8" stroke-width="2" rx="29"/><defs><linearGradient id="f" x1="35.5" x2="131.5" y1="5" y2="99" gradientUnits="userSpaceOnUse"><stop stop-color="#fff"/><stop offset="1" stop-color="#1D1D1B"/></linearGradient><linearGradient id="g" x1="87.5" x2="183.5" y1="113" y2="207" gradientUnits="userSpaceOnUse"><stop stop-color="#fff"/><stop offset="1" stop-color="#1D1D1B"/></linearGradient><linearGradient id="h" x1="22.5" x2="118.5" y1="221" y2="315" gradientUnits="userSpaceOnUse"><stop stop-color="#fff"/><stop offset="1" stop-color="#1D1D1B"/></linearGradient><filter id="c" width="860" height="128" x="45" y="27" color-interpolation-filters="sRGB" filterUnits="userSpaceOnUse"><feFlood flood-opacity="0" result="BackgroundImageFix"/><feColorMatrix in="SourceAlpha" result="hardAlpha" values="0 0 0 0 0 0 0 0 0 0 0 0 0 0 0 0 0 0 127 0"/><feOffset dy="14"/><feGaussianBlur stdDeviation="10"/><feComposite in2="hardAlpha" operator="out"/><feColorMatrix values="0 0 0 0 0 0 0 0 0 0 0 0 0 0 0 0 0 0 0.1 0"/><feBlend in2="BackgroundImageFix" result="effect1_dropShadow_94_395"/><feBlend in="SourceGraphic" in2="effect1_dropShadow_94_395" result="shape"/></filter><filter id="d" width="860" height="128" x="97" y="135" color-interpolation-filters="sRGB" filterUnits="userSpaceOnUse"><feFlood flood-opacity="0" result="BackgroundImageFix"/><feColorMatrix in="SourceAlpha" result="hardAlpha" values="0 0 0 0 0 0 0 0 0 0 0 0 0 0 0 0 0 0 127 0"/><feOffset dy="14"/><feGaussianBlur stdDeviation="10"/><feComposite in2="hardAlpha" operator="out"/><feColorMatrix values="0 0 0 0 0 0 0 0 0 0 0 0 0 0 0 0 0 0 0.1 0"/><feBlend in2="BackgroundImageFix" result="effect1_dropShadow_94_395"/><feBlend in="SourceGraphic" in2="effect1_dropShadow_94_395" result="shape"/></filter><filter id="e" width="860" height="128" x="32" y="243" color-interpolation-filters="sRGB" filterUnits="userSpaceOnUse"><feFlood flood-opacity="0" result="BackgroundImageFix"/><feColorMatrix in="SourceAlpha" result="hardAlpha" values="0 0 0 0 0 0 0 0 0 0 0 0 0 0 0 0 0 0 127 0"/><feOffset dy="14"/><feGaussianBlur stdDeviation="10"/><feComposite in2="hardAlpha" operator="out"/><feColorMatrix values="0 0 0 0 0 0 0 0 0 0 0 0 0 0 0 0 0 0 0.1 0"/><feBlend in2="BackgroundImageFix" result="effect1_dropShadow_94_395"/><feBlend in="SourceGraphic" in2="effect1_dropShadow_94_395" result="shape"/></filter><clipPath id="a"><rect width="370" height="370" fill="#fff" rx="30"/></clipPath></defs></svg>