<svg xmlns="http://www.w3.org/2000/svg" width="24" height="24" fill="none"><g fill="#D5C9F8" clip-path="url(#a)"><path d="M2.01 2.01v17.76a2.237 2.237 0 0 0 2.22 2.22h17.76v-2.22H4.23V2.01H2.01Z"/><path d="M17.822 6a.788.788 0 0 0-.788.788v11.034c0 .435.353.788.788.788h2.364a.788.788 0 0 0 .789-.788V6.788A.788.788 0 0 0 20.186 6h-2.364Zm-5.517 3.153a.788.788 0 0 0-.788.788v7.881c0 .435.353.788.788.788h2.364a.788.788 0 0 0 .789-.788V9.941a.788.788 0 0 0-.789-.788h-2.364Zm-5.517 3.152a.788.788 0 0 0-.788.788v4.73c0 .434.353.787.788.787h2.365a.788.788 0 0 0 .788-.788v-4.729a.788.788 0 0 0-.788-.788H6.788Z"/></g><defs><clipPath id="a"><path fill="#fff" d="M0 0h24v24H0z"/></clipPath></defs></svg>