<svg xmlns="http://www.w3.org/2000/svg" width="24" height="24" fill="none"><g clip-path="url(#a)"><path fill="#D5C9F8" d="M21.988 12.84c0 .729-2.135 1.746-5.61 1.746-.848 0-1.66-.064-2.415-.187.012-.069.026-.136.026-.206v-1.988a15.78 15.78 0 0 0 2.39.177c2.174 0 4.443-.44 5.609-1.27v1.729Zm-8.799 1.353c0 .725-2.126 1.739-5.589 1.739-3.462 0-5.587-1.013-5.587-1.74v-1.718c1.162.826 3.42 1.262 5.587 1.262s4.425-.436 5.59-1.262v1.719ZM2.013 15.466c1.164.827 3.422 1.264 5.587 1.264 2.167 0 4.425-.437 5.59-1.264v1.72c0 .726-2.127 1.738-5.59 1.738-3.46 0-5.587-1.012-5.587-1.739v-1.719Zm19.975-8.635c0 .728-2.135 1.745-5.61 1.745-3.475 0-5.61-1.017-5.61-1.745V5.103c1.167.83 3.434 1.27 5.61 1.27 2.175 0 4.444-.44 5.61-1.27v1.729Zm-5.61-4.752c3.475 0 5.61 1.017 5.61 1.745 0 .73-2.135 1.747-5.61 1.747-3.475 0-5.61-1.017-5.61-1.747 0-.728 2.134-1.745 5.61-1.745Zm-5.61 6.027c1.167.83 3.434 1.27 5.61 1.27 2.175 0 4.444-.44 5.61-1.27v1.73c0 .727-2.135 1.745-5.61 1.745-.832 0-1.66-.068-2.414-.19.011-.064.025-.126.025-.193 0-1.072-1.395-1.82-3.22-2.216v-.876ZM7.6 9.46c3.463 0 5.59 1.012 5.59 1.739 0 .725-2.127 1.737-5.59 1.737-3.462 0-5.587-1.012-5.587-1.737 0-.727 2.126-1.74 5.587-1.74Zm0 12.459c-3.46 0-5.587-1.012-5.587-1.739v-1.719c1.162.827 3.42 1.264 5.587 1.264s4.425-.437 5.59-1.264v1.719c0 .727-2.127 1.739-5.59 1.739Zm8.778-4.328a15.17 15.17 0 0 1-2.417-.188c.014-.072.028-.142.028-.217v-1.975c.753.114 1.555.175 2.39.175 2.174 0 4.443-.439 5.609-1.268v1.728c0 .728-2.135 1.745-5.61 1.745Z"/></g><defs><clipPath id="a"><path fill="#fff" d="M0 0h24v24H0z"/></clipPath></defs></svg>