<svg xmlns="http://www.w3.org/2000/svg" width="24" height="24" fill="none"><g clip-path="url(#a)"><path fill="#D5C9F8" d="M20.905 15.872c-.699-.017-1.58-.058-2.135-.156-.602-.106-1.326-.313-1.835-.471a1.129 1.129 0 0 0-1.131.28l-2.461 2.447a17.068 17.068 0 0 1-4.216-3.1 17.068 17.068 0 0 1-3.099-4.215l2.446-2.462c.296-.296.406-.732.281-1.131-.157-.509-.365-1.232-.47-1.834-.1-.556-.14-1.436-.157-2.136A1.11 1.11 0 0 0 7.016 2.01H3.12c-.486 0-1.11.364-1.11 1.11 0 5.038 2.042 9.85 5.512 13.358 3.508 3.47 8.32 5.512 13.358 5.512.746 0 1.11-.624 1.11-1.11v-3.896a1.11 1.11 0 0 0-1.085-1.112Z"/></g><defs><clipPath id="a"><path fill="#fff" d="M0 0h24v24H0z"/></clipPath></defs></svg>