<svg xmlns="http://www.w3.org/2000/svg" width="370" height="370" fill="none"><g clip-path="url(#a)"><mask id="b" width="370" height="370" x="0" y="0" maskUnits="userSpaceOnUse" style="mask-type:luminance"><path fill="#fff" d="M348.074 0H21.926C9.816 0 0 9.817 0 21.926v326.148C0 360.183 9.817 370 21.926 370h326.148c12.109 0 21.926-9.817 21.926-21.926V21.926C370 9.816 360.183 0 348.074 0Z"/></mask><g mask="url(#b)"><path fill="#FFF6F1" d="M340.37 0H29.63C13.266 0 0 13.266 0 29.63v310.74C0 356.734 13.266 370 29.63 370h310.74c16.364 0 29.63-13.266 29.63-29.63V29.63C370 13.266 356.734 0 340.37 0Z"/><path stroke="#FFD5BF" stroke-width="1.351" d="M340.371.926H29.629C13.777.926.926 13.777.926 29.63v310.74c0 15.853 12.85 28.704 28.703 28.704h310.742c15.852 0 28.703-12.851 28.703-28.704V29.63c0-15.853-12.851-28.704-28.703-28.704Z"/><g filter="url(#c)"><path fill="#FFD5BF" d="M137.037 31.24c0-11.199 4.107-20.277 9.172-20.277L350.815 4.11c11.648 4.796 17.815 15.93 17.815 27.128v282.855c0 11.198-.685 20.276-.685 20.276H146.209c-5.065 0-9.172-9.078-9.172-20.276V31.239Z"/><path fill="#1D1D1B" d="M212.415 63.94c-1.312 0-2.494-.226-3.551-.676-1.048-.46-1.914-1.11-2.599-1.95-.676-.85-1.116-1.858-1.319-3.022l2.764-.421c.28 1.122.862 1.997 1.75 2.626.887.62 1.923.93 3.107.93a5.79 5.79 0 0 0 2.028-.343c.617-.238 1.111-.574 1.483-1.008.381-.442.571-.968.571-1.58 0-.332-.06-.625-.178-.88a1.928 1.928 0 0 0-.469-.663 2.525 2.525 0 0 0-.723-.497 5.373 5.373 0 0 0-.925-.37l-4.679-1.39c-.456-.136-.92-.31-1.395-.523a5.542 5.542 0 0 1-1.306-.854 4.195 4.195 0 0 1-.949-1.313c-.246-.527-.369-1.164-.369-1.912 0-1.13.288-2.087.862-2.869.584-.79 1.37-1.385 2.359-1.785.989-.408 2.096-.612 3.321-.612 1.235.017 2.338.238 3.31.663a6.265 6.265 0 0 1 2.434 1.836c.65.79 1.099 1.75 1.344 2.882l-2.84.484c-.127-.689-.397-1.28-.812-1.772a4.062 4.062 0 0 0-1.521-1.148 4.822 4.822 0 0 0-1.953-.42 4.759 4.759 0 0 0-1.864.305c-.558.221-1.006.532-1.343.931a2.1 2.1 0 0 0-.494 1.377c0 .51.148.922.444 1.237.296.314.659.565 1.089.752.44.179.876.327 1.306.446l3.372.957c.424.119.901.28 1.434.484a6.408 6.408 0 0 1 1.559.829c.507.357.925.833 1.256 1.428.328.586.494 1.326.494 2.218 0 .926-.186 1.742-.559 2.448a5.162 5.162 0 0 1-1.533 1.76 6.978 6.978 0 0 1-2.231 1.058 9.839 9.839 0 0 1-2.675.357Zm9.191-.383V44.815h2.651v18.742h-2.651Zm11.644.383c-1.369 0-2.558-.31-3.563-.931a6.263 6.263 0 0 1-2.333-2.563c-.541-1.096-.811-2.359-.811-3.786 0-1.437.278-2.7.836-3.787.559-1.096 1.34-1.946 2.346-2.55 1.006-.612 2.18-.918 3.525-.918 1.369 0 2.557.31 3.563.93a6.267 6.267 0 0 1 2.332 2.563c.549 1.088.825 2.342.825 3.761 0 1.437-.28 2.703-.837 3.8a6.263 6.263 0 0 1-2.333 2.562c-1.006.612-2.19.919-3.55.919Zm0-2.512c1.31 0 2.287-.442 2.928-1.326.651-.893.977-2.04.977-3.442 0-1.437-.33-2.584-.989-3.443-.651-.867-1.623-1.3-2.916-1.3-.888 0-1.619.204-2.193.612-.576.4-1.002.956-1.281 1.67-.279.705-.418 1.526-.418 2.46 0 1.445.329 2.601.988 3.468.66.867 1.628 1.3 2.904 1.3Zm15.172 2.512c-1.31 0-2.409-.32-3.296-.957-.888-.646-1.559-1.517-2.015-2.613-.457-1.097-.686-2.334-.686-3.71 0-1.377.225-2.614.672-3.71.458-1.097 1.125-1.96 2.003-2.589.888-.637 1.979-.956 3.271-.956 1.286 0 2.393.319 3.322.956.939.63 1.661 1.492 2.168 2.588.507 1.088.761 2.325.761 3.71 0 1.377-.254 2.618-.761 3.723-.499 1.097-1.213 1.964-2.142 2.601-.922.638-2.02.957-3.297.957Zm-6.441 5.737v-19.89h2.359v9.907h.304v9.983h-2.663Zm6.074-8.147c.845 0 1.543-.217 2.092-.65.558-.434.972-1.016 1.242-1.747.28-.74.419-1.564.419-2.474 0-.9-.139-1.716-.419-2.447-.27-.731-.688-1.314-1.255-1.747-.566-.434-1.288-.65-2.168-.65-.828 0-1.513.204-2.054.612-.532.408-.929.977-1.191 1.708-.254.731-.381 1.573-.381 2.525s.127 1.793.381 2.524c.253.73.655 1.305 1.204 1.721.55.416 1.26.625 2.13.625Zm14.679 2.41c-1.36 0-2.557-.298-3.589-.893a6.328 6.328 0 0 1-2.395-2.512c-.566-1.08-.85-2.329-.85-3.748 0-1.504.28-2.81.838-3.914.566-1.105 1.351-1.96 2.357-2.563 1.006-.603 2.177-.905 3.512-.905 1.395 0 2.583.327 3.563.982.98.646 1.712 1.568 2.194 2.766.489 1.199.684 2.623.582 4.271h-2.649v-.969c-.017-1.597-.322-2.779-.914-3.544-.582-.765-1.474-1.147-2.675-1.147-1.326 0-2.324.42-2.991 1.262-.668.841-1.002 2.057-1.002 3.646 0 1.513.334 2.686 1.002 3.52.667.824 1.631 1.236 2.89 1.236.829 0 1.543-.187 2.143-.561.609-.383 1.081-.927 1.42-1.632l2.6.829c-.534 1.232-1.341 2.188-2.422 2.868-1.083.672-2.287 1.008-3.614 1.008Zm-4.881-6.516v-2.078h9.775v2.078h-9.775ZM168.62 255.551v-11.692h4.62c.113 0 .249.005.405.016.158.006.309.022.455.049.633.098 1.164.314 1.591.65.433.336.758.761.975 1.274.216.509.324 1.075.324 1.697 0 .618-.111 1.183-.333 1.698a3.182 3.182 0 0 1-.974 1.274c-.428.336-.955.553-1.583.65a5.72 5.72 0 0 1-.455.048 5.856 5.856 0 0 1-.405.016h-3.176v4.32h-1.444Zm1.444-5.692h3.128c.102 0 .218-.005.348-.016.135-.011.263-.03.382-.058.373-.086.676-.242.909-.47.238-.233.411-.502.519-.812a2.858 2.858 0 0 0 0-1.908 2.075 2.075 0 0 0-.519-.819 1.788 1.788 0 0 0-.909-.472 1.716 1.716 0 0 0-.382-.056 4.156 4.156 0 0 0-.348-.016h-3.128v4.627Zm8.548 5.692 3.914-11.692h2.013l3.914 11.692h-1.502l-3.662-10.847h.455l-3.63 10.847h-1.502Zm1.885-2.737v-1.355h6.073v1.355h-6.073Zm13.079 2.737v-10.319h-3.986v-1.373h9.418v1.373h-3.986v10.319h-1.446Zm8.348 0v-11.692h4.619c.114 0 .25.005.406.016.158.006.308.022.455.049.633.098 1.163.314 1.591.65.433.336.758.761.974 1.274.217.509.325 1.075.325 1.697 0 .904-.234 1.69-.706 2.354-.471.661-1.16 1.075-2.07 1.243l-.553.089h-3.595v4.32h-1.446Zm6.957 0-2.305-4.758 1.43-.439 2.532 5.197h-1.657Zm-5.511-5.692h3.125a4.1 4.1 0 0 0 .348-.016c.136-.011.264-.03.383-.058.373-.086.677-.242.908-.47.239-.233.413-.502.521-.812.108-.314.162-.633.162-.958 0-.325-.054-.641-.162-.95a2.068 2.068 0 0 0-.521-.819c-.231-.233-.535-.391-.908-.472a1.716 1.716 0 0 0-.383-.056 4.1 4.1 0 0 0-.348-.016h-3.125v4.627Zm10.742 5.692v-11.692h1.446v11.692h-1.446Zm10.312.244c-1.163 0-2.151-.258-2.963-.772-.812-.514-1.432-1.229-1.859-2.143-.422-.916-.633-1.973-.633-3.175 0-1.202.211-2.26.633-3.174.427-.915 1.047-1.629 1.859-2.143.812-.516 1.8-.772 2.963-.772 1.354 0 2.465.343 3.337 1.031.877.688 1.481 1.613 1.81 2.776l-1.469.391c-.238-.872-.663-1.56-1.274-2.063-.611-.503-1.413-.755-2.404-.755-.871 0-1.596.198-2.176.592-.578.396-1.014.948-1.307 1.657-.292.704-.44 1.524-.446 2.46-.005.932.137 1.751.431 2.46.292.704.73 1.256 1.314 1.656.585.395 1.313.594 2.184.594.991 0 1.793-.252 2.404-.755.611-.51 1.036-1.197 1.274-2.063l1.469.389c-.329 1.158-.933 2.085-1.81 2.777-.872.688-1.983 1.032-3.337 1.032Zm13.428-.244v-11.692h4.555c.697 0 1.293.144 1.785.43.499.288.877.666 1.138 1.137.264.466.397.969.397 1.51 0 .634-.163 1.189-.488 1.664a2.462 2.462 0 0 1-1.314.983l-.016-.398c.752.2 1.336.569 1.754 1.105.416.536.625 1.174.625 1.916 0 .682-.142 1.271-.423 1.77a2.864 2.864 0 0 1-1.201 1.161c-.52.275-1.138.414-1.852.414h-4.96Zm1.46-1.38h3.225c.433 0 .819-.078 1.161-.236a1.94 1.94 0 0 0 .803-.682c.2-.292.301-.645.301-1.056 0-.394-.09-.749-.269-1.063a1.912 1.912 0 0 0-.738-.747 2.086 2.086 0 0 0-1.096-.284h-3.387v4.068Zm0-5.432h3.078c.347 0 .658-.073.933-.22a1.67 1.67 0 0 0 .666-.633c.169-.27.253-.586.253-.95 0-.502-.172-.915-.513-1.234-.34-.32-.787-.478-1.339-.478h-3.078v3.515Zm9.405 6.812 3.914-11.692h2.013l3.913 11.692h-1.502l-3.661-10.847h.453l-3.628 10.847h-1.502Zm1.883-2.737v-1.355h6.073v1.355H250.6Zm13.08 2.737v-10.319h-3.988v-1.373h9.419v1.373h-3.986v10.319h-1.445Zm8.346 0v-11.692h7.389v1.373h-5.943v3.661h4.969v1.372h-4.969v3.914h5.943v1.372h-7.389Zm10.965 0v-11.692h1.316l4.416 9.313 4.393-9.313h1.332v11.683h-1.372v-8.508l-3.97 8.517h-.772l-3.971-8.517v8.517h-1.372Zm14.545 0 3.914-11.692h2.013l3.914 11.692h-1.502l-3.663-10.847h.455l-3.629 10.847h-1.502Zm1.883-2.737v-1.355h6.074v1.355h-6.074Zm11.034 2.737v-11.692h1.462l6.097 9.135v-9.135h1.462v11.692h-1.462l-6.097-9.142v9.142h-1.462Z"/></g><path fill="#1D1D1B" d="M176.841 299.116c-1.294 0-2.461-.22-3.504-.663-1.035-.451-1.89-1.089-2.567-1.914-.667-.835-1.1-1.824-1.3-2.967l2.728-.413c.276 1.102.851 1.961 1.727 2.578.875.61 1.898.914 3.065.914.727 0 1.394-.112 2.004-.338.608-.233 1.096-.564 1.463-.988.376-.435.564-.952.564-1.553 0-.325-.059-.613-.176-.863a1.89 1.89 0 0 0-.463-.651 2.508 2.508 0 0 0-.713-.488 5.357 5.357 0 0 0-.914-.363l-4.618-1.364a11.03 11.03 0 0 1-1.376-.514 5.405 5.405 0 0 1-1.289-.838 4.12 4.12 0 0 1-.939-1.289c-.242-.518-.363-1.142-.363-1.877 0-1.11.284-2.049.851-2.816.576-.776 1.351-1.36 2.328-1.751.976-.402 2.07-.602 3.28-.602 1.216.016 2.306.234 3.265.651a6.18 6.18 0 0 1 2.404 1.802c.641.776 1.084 1.718 1.326 2.828l-2.803.476a3.674 3.674 0 0 0-.801-1.739 4.032 4.032 0 0 0-1.502-1.127 4.797 4.797 0 0 0-1.928-.413 4.685 4.685 0 0 0-1.839.301c-.551.217-.993.521-1.326.913a2.05 2.05 0 0 0-.49 1.352c0 .5.147.905.439 1.213.292.31.651.555 1.076.739.434.175.864.322 1.289.438l3.329.939c.418.116.889.275 1.414.475a6.377 6.377 0 0 1 1.54.814c.5.35.913.817 1.239 1.401.325.577.488 1.302.488 2.177 0 .91-.184 1.712-.551 2.404a5.09 5.09 0 0 1-1.514 1.727 6.88 6.88 0 0 1-2.202 1.039 9.742 9.742 0 0 1-2.641.35Zm13.917-.012c-.934 0-1.718-.151-2.352-.451-.634-.3-1.152-.692-1.552-1.176a5.662 5.662 0 0 1-.901-1.602 8.167 8.167 0 0 1-.425-1.689 10.773 10.773 0 0 1-.113-1.453v-7.508h2.653v6.645c0 .526.042 1.067.125 1.626.092.551.259 1.065.5 1.541a3.09 3.09 0 0 0 1.039 1.151c.451.292 1.035.438 1.753.438.467 0 .91-.075 1.326-.226a2.77 2.77 0 0 0 1.09-.751c.316-.341.563-.792.737-1.351.184-.559.275-1.239.275-2.04l1.628.614c0 1.226-.23 2.31-.689 3.253a5.188 5.188 0 0 1-1.977 2.19c-.86.526-1.898.789-3.117.789Zm4.469-.363v-3.904h-.314v-9.612h2.641v13.516h-2.327Zm11.432.375c-1.294 0-2.378-.312-3.253-.938-.877-.635-1.541-1.49-1.992-2.566-.449-1.077-.675-2.29-.675-3.642 0-1.351.222-2.565.663-3.641.451-1.077 1.11-1.924 1.978-2.541.877-.626 1.952-.939 3.23-.939 1.267 0 2.361.313 3.277.939.927.617 1.641 1.464 2.141 2.541.5 1.067.751 2.281.751 3.641 0 1.352-.251 2.569-.751 3.655-.492 1.075-1.198 1.926-2.115 2.553-.909.626-1.995.938-3.254.938Zm-6.357-.375v-18.022h2.628v8.298h-.301v9.724h-2.327Zm5.994-1.99c.834 0 1.522-.212 2.065-.639.551-.424.959-.996 1.226-1.714.276-.726.413-1.535.413-2.428 0-.884-.137-1.686-.413-2.402-.267-.718-.679-1.29-1.239-1.715-.559-.426-1.273-.638-2.14-.638-.817 0-1.494.2-2.027.6-.526.4-.918.959-1.177 1.677-.249.718-.375 1.543-.375 2.478 0 .934.126 1.761.375 2.479.251.717.647 1.28 1.19 1.688.542.41 1.242.614 2.102.614Zm13.42 2.353c-1.645 0-2.984-.363-4.018-1.089-1.035-.725-1.668-1.748-1.902-3.066l2.677-.414a2.707 2.707 0 0 0 1.153 1.665c.608.4 1.363.6 2.265.6.817 0 1.455-.165 1.915-.5.467-.333.7-.792.7-1.376 0-.342-.082-.618-.25-.826-.159-.218-.497-.422-1.014-.614-.516-.192-1.306-.429-2.365-.712-1.159-.301-2.082-.623-2.765-.964-.677-.351-1.161-.755-1.453-1.214-.284-.467-.425-1.031-.425-1.69 0-.818.217-1.53.651-2.14.433-.609 1.043-1.08 1.827-1.414.792-.333 1.718-.501 2.778-.501 1.034 0 1.956.162 2.766.488.809.325 1.464.788 1.966 1.39.5.592.8 1.288.9 2.09l-2.678.487c-.092-.65-.396-1.163-.914-1.538-.517-.376-1.189-.58-2.014-.614-.794-.033-1.436.1-1.928.4-.492.293-.739.697-.739 1.214 0 .3.092.555.275.763.192.21.559.41 1.102.602s1.343.421 2.402.688c1.136.292 2.037.618 2.704.975.668.351 1.143.773 1.427 1.265.292.484.438 1.072.438 1.764 0 1.336-.488 2.383-1.465 3.142-.967.759-2.306 1.139-4.016 1.139Zm13.281.012c-1.385 0-2.561-.308-3.528-.926-.969-.617-1.712-1.464-2.229-2.541-.508-1.075-.767-2.298-.775-3.667.008-1.392.275-2.623.8-3.692.526-1.075 1.277-1.918 2.253-2.528.976-.608 2.149-.913 3.516-.913 1.478 0 2.737.368 3.78 1.101 1.052.734 1.744 1.74 2.077 3.016l-2.602.751c-.259-.759-.684-1.347-1.277-1.764-.584-.426-1.255-.638-2.015-.638-.859 0-1.565.204-2.114.612-.551.402-.961.951-1.227 1.653-.267.7-.405 1.502-.413 2.402.008 1.394.326 2.52.951 3.38.634.859 1.569 1.289 2.803 1.289.843 0 1.523-.192 2.041-.576.525-.391.925-.951 1.2-1.677l2.653.626c-.441 1.319-1.171 2.331-2.19 3.041-1.018.701-2.252 1.051-3.704 1.051Zm7.694-.375v-13.516h2.328v3.278l-.326-.425c.167-.434.383-.83.651-1.189a3.61 3.61 0 0 1 .926-.901 3.939 3.939 0 0 1 1.139-.575 4.936 4.936 0 0 1 1.302-.251 4.98 4.98 0 0 1 1.275.063v2.453a4.202 4.202 0 0 0-1.475-.1 3.22 3.22 0 0 0-1.478.512c-.426.276-.763.61-1.014 1.002a4.297 4.297 0 0 0-.525 1.314c-.108.476-.163.98-.163 1.515v6.82h-2.64Zm9.178-15.732v-2.541h2.616v2.541h-2.616Zm0 15.732v-13.516h2.616v13.516h-2.616Zm11.969.375c-1.293 0-2.377-.312-3.254-.938-.876-.635-1.539-1.49-1.99-2.566-.451-1.077-.676-2.29-.676-3.642 0-1.351.221-2.565.663-3.641.451-1.077 1.11-1.924 1.978-2.541.876-.626 1.953-.939 3.228-.939 1.269 0 2.362.313 3.28.939.926.617 1.639 1.464 2.14 2.541.5 1.067.751 2.281.751 3.641 0 1.352-.251 2.569-.751 3.655-.493 1.075-1.197 1.926-2.116 2.553-.908.626-1.993.938-3.253.938Zm-6.358 5.633v-19.524h2.328v9.724h.3v9.8h-2.628Zm5.995-7.998c.835 0 1.523-.212 2.065-.639.551-.424.959-.996 1.227-1.714.275-.726.412-1.535.412-2.428 0-.884-.137-1.686-.412-2.402-.268-.718-.68-1.29-1.239-1.715-.559-.426-1.273-.638-2.141-.638-.818 0-1.493.2-2.028.6-.525.4-.917.959-1.176 1.677-.25.718-.375 1.543-.375 2.478 0 .934.125 1.761.375 2.479.251.717.647 1.28 1.19 1.688.541.41 1.243.614 2.102.614Zm16.229 1.99c-.851.167-1.685.238-2.502.212-.818-.024-1.548-.183-2.191-.475a2.981 2.981 0 0 1-1.451-1.376 4.029 4.029 0 0 1-.476-1.702 72.715 72.715 0 0 1-.025-1.978V281.47h2.627v11.826c0 .543.006 1.014.014 1.415.017.401.104.738.262 1.014.301.518.777.814 1.428.888.658.067 1.43.038 2.314-.087v2.215Zm-9.236-11.414v-2.102h9.236v2.102h-9.236Zm11.585-4.318v-2.541h2.616v2.541h-2.616Zm0 15.732v-13.516h2.616v13.516h-2.616Zm11.493.375c-1.352 0-2.524-.304-3.517-.914a6.163 6.163 0 0 1-2.303-2.514c-.534-1.077-.8-2.316-.8-3.718 0-1.41.276-2.649.825-3.717.551-1.077 1.323-1.91 2.316-2.503.992-.6 2.153-.901 3.479-.901 1.352 0 2.525.305 3.517.913a6.159 6.159 0 0 1 2.302 2.516c.543 1.068.814 2.298.814 3.692 0 1.41-.275 2.653-.826 3.73a6.152 6.152 0 0 1-2.303 2.515c-.993.601-2.161.901-3.504.901Zm0-2.465c1.293 0 2.257-.434 2.891-1.302.642-.875.964-2.002.964-3.379 0-1.41-.326-2.537-.977-3.379-.642-.851-1.602-1.276-2.878-1.276-.877 0-1.597.2-2.165.6-.567.392-.989.939-1.265 1.64-.275.692-.412 1.498-.412 2.415 0 1.418.325 2.553.976 3.404s1.606 1.277 2.866 1.277Zm18.119 2.09v-6.645c0-.526-.046-1.065-.138-1.616a4.9 4.9 0 0 0-.5-1.551 2.938 2.938 0 0 0-1.039-1.151c-.442-.292-1.022-.439-1.74-.439-.468 0-.909.08-1.327.239a2.748 2.748 0 0 0-1.1.738c-.31.342-.555.793-.739 1.352-.175.559-.263 1.238-.263 2.039l-1.627-.613c0-1.226.229-2.306.688-3.241a5.178 5.178 0 0 1 1.978-2.203c.859-.525 1.898-.788 3.116-.788.935 0 1.719.149 2.353.451.634.3 1.147.696 1.539 1.188.401.483.706 1.014.914 1.589.208.576.351 1.139.425 1.69.075.551.114 1.035.114 1.451v7.51h-2.654Zm-9.499 0v-13.516h2.341v3.904h.312v9.612h-2.653Zm19.829.363c-1.643 0-2.982-.363-4.016-1.089-1.035-.725-1.669-1.748-1.902-3.066l2.677-.414a2.709 2.709 0 0 0 1.152 1.665c.609.4 1.364.6 2.265.6.818 0 1.456-.165 1.914-.5.467-.333.702-.792.702-1.376 0-.342-.084-.618-.251-.826-.159-.218-.496-.422-1.014-.614-.517-.192-1.305-.429-2.365-.712-1.16-.301-2.082-.623-2.766-.964-.675-.351-1.159-.755-1.451-1.214-.284-.467-.426-1.031-.426-1.69 0-.818.216-1.53.651-2.14.434-.609 1.043-1.08 1.826-1.414.794-.333 1.72-.501 2.78-.501 1.034 0 1.956.162 2.765.488.81.325 1.465.788 1.965 1.39.5.592.8 1.288.902 2.09l-2.679.487c-.092-.65-.396-1.163-.914-1.538-.517-.376-1.188-.58-2.015-.614-.792-.033-1.435.1-1.927.4-.493.293-.738.697-.738 1.214 0 .3.092.555.275.763.192.21.559.41 1.101.602.542.192 1.344.421 2.403.688 1.135.292 2.037.618 2.704.975.667.351 1.143.773 1.427 1.265.292.484.437 1.072.437 1.764 0 1.336-.488 2.383-1.464 3.142-.967.759-2.307 1.139-4.018 1.139Z"/><g filter="url(#d)"><path fill="#FFD5BF" d="M92.814 17.635c0-8.778 4.909-15.894 10.963-15.894L337.426.37c21.926 0 31.518 14.517 31.518 23.296l.685 215.697c0 8.779-.685 15.895-.685 15.895H103.777c-6.054 0-10.963-7.116-10.963-15.895V17.635Z"/><path fill="#1D1D1B" d="M123.397 177.44v-11.691h4.62c.114 0 .249.005.406.016.157.005.309.021.455.048.633.098 1.164.314 1.591.65.433.336.758.761.974 1.274a4.29 4.29 0 0 1 .325 1.698c0 .617-.111 1.183-.333 1.697a3.182 3.182 0 0 1-.974 1.274c-.428.336-.955.553-1.583.65a5.333 5.333 0 0 1-.455.048 5.882 5.882 0 0 1-.406.016h-3.174v4.32h-1.446Zm1.446-5.691h3.125c.103 0 .22-.006.35-.017a2.88 2.88 0 0 0 .381-.056c.374-.086.677-.244.91-.472.238-.233.411-.502.519-.811a2.868 2.868 0 0 0 0-1.909 2.075 2.075 0 0 0-.519-.819c-.233-.233-.536-.389-.91-.472a1.83 1.83 0 0 0-.381-.056 4.182 4.182 0 0 0-.35-.016h-3.125v4.628Zm8.548 5.691 3.913-11.691h2.013l3.914 11.691h-1.502l-3.662-10.847h.455l-3.629 10.847h-1.502Zm1.883-2.736v-1.356h6.074v1.356h-6.074Zm13.08 2.736v-10.319h-3.987v-1.372h9.419v1.372h-3.987v10.319h-1.445Zm8.347 0v-11.691h4.62c.113 0 .249.005.405.016.158.005.309.021.455.048.633.098 1.164.314 1.591.65.433.336.758.761.975 1.274.216.51.324 1.075.324 1.698 0 .903-.234 1.689-.705 2.355-.472.66-1.161 1.074-2.071 1.241l-.552.089h-3.596v4.32h-1.446Zm6.958 0-2.305-4.758 1.429-.439 2.532 5.197h-1.656Zm-5.512-5.691h3.126c.103 0 .219-.006.348-.017.135-.011.263-.03.382-.056.373-.086.677-.244.909-.472.238-.233.412-.502.52-.811a2.903 2.903 0 0 0 0-1.909 2.077 2.077 0 0 0-.52-.819c-.232-.233-.536-.389-.909-.472a1.84 1.84 0 0 0-.382-.056 4.119 4.119 0 0 0-.348-.016h-3.126v4.628Zm10.743 5.691v-11.691h1.445v11.691h-1.445Zm10.312.244c-1.164 0-2.152-.258-2.963-.772-.813-.514-1.432-1.228-1.86-2.143-.422-.914-.633-1.974-.633-3.175 0-1.201.211-2.26.633-3.174.428-.916 1.047-1.629 1.86-2.143.811-.514 1.799-.772 2.963-.772 1.353 0 2.465.344 3.336 1.031.877.688 1.482 1.613 1.811 2.777l-1.469.39c-.239-.872-.664-1.56-1.275-2.063-.611-.503-1.413-.755-2.403-.755-.872 0-1.597.197-2.177.593-.578.395-1.014.947-1.307 1.656-.292.704-.44 1.524-.445 2.46-.006.932.137 1.751.43 2.461.292.703.73 1.255 1.314 1.655.585.396 1.313.594 2.185.594.99 0 1.792-.253 2.403-.755.611-.509 1.036-1.197 1.275-2.063l1.469.389c-.329 1.16-.934 2.085-1.811 2.778-.871.687-1.983 1.031-3.336 1.031Zm13.427-.244v-11.691h4.555c.698 0 1.294.143 1.786.43.498.287.877.666 1.137 1.136.265.466.397.969.397 1.51 0 .634-.163 1.189-.487 1.666a2.473 2.473 0 0 1-1.315.982l-.016-.399c.752.2 1.336.569 1.754 1.105.417.536.625 1.174.625 1.916 0 .682-.141 1.273-.422 1.77a2.866 2.866 0 0 1-1.202 1.161c-.519.277-1.137.414-1.851.414h-4.961Zm1.461-1.38h3.224c.433 0 .82-.078 1.161-.236.341-.162.608-.389.803-.681.2-.293.301-.644.301-1.057 0-.394-.09-.749-.268-1.063a1.915 1.915 0 0 0-.739-.747 2.083 2.083 0 0 0-1.096-.284h-3.386v4.068Zm0-5.432h3.078c.346 0 .657-.073.933-.22.282-.15.504-.362.666-.633a1.76 1.76 0 0 0 .252-.95c0-.502-.171-.914-.513-1.233-.339-.319-.786-.479-1.338-.479h-3.078v3.515Zm9.404 6.812 3.914-11.691h2.013l3.914 11.691h-1.502l-3.662-10.847h.454l-3.629 10.847h-1.502Zm1.883-2.736v-1.356h6.074v1.356h-6.074Zm13.08 2.736v-10.319h-3.987v-1.372h9.418v1.372h-3.986v10.319h-1.445Zm8.347 0v-11.691h7.389v1.372h-5.944v3.661h4.969v1.372h-4.969v3.914h5.944v1.372h-7.389Zm10.965 0v-11.691h1.315l4.417 9.312 4.392-9.312h1.332v11.682h-1.372v-8.508l-3.97 8.517h-.771l-3.972-8.517v8.517h-1.371Zm14.544 0 3.914-11.691h2.013l3.914 11.691h-1.502l-3.663-10.847h.455l-3.629 10.847h-1.502Zm1.883-2.736v-1.356h6.074v1.356h-6.074Zm11.034 2.736v-11.691h1.463l6.096 9.134v-9.134h1.463v11.691h-1.463l-6.096-9.142v9.142h-1.463Z"/></g><path fill="#1D1D1B" d="M129.579 220.63v-15.557h-5.995v-2.465h14.604v2.465h-5.994v15.557h-2.615Zm8.615 0v-13.516h2.328v3.278l-.325-.425c.166-.435.384-.831.65-1.19.267-.367.577-.667.926-.9a3.954 3.954 0 0 1 1.139-.576 4.942 4.942 0 0 1 1.302-.25 4.95 4.95 0 0 1 1.277.063v2.453a4.212 4.212 0 0 0-1.477-.1 3.212 3.212 0 0 0-1.477.512c-.425.276-.764.61-1.013 1.002-.243.392-.418.83-.526 1.314-.109.476-.163.98-.163 1.514v6.821h-2.641Zm12.355.375c-1.002 0-1.84-.184-2.516-.551-.675-.375-1.188-.867-1.539-1.477a4.109 4.109 0 0 1-.512-2.027c0-.684.12-1.285.362-1.802a3.467 3.467 0 0 1 1.077-1.314c.475-.367 1.059-.663 1.751-.888a19.23 19.23 0 0 1 2.04-.463c.76-.135 1.556-.259 2.39-.376.843-.118 1.678-.234 2.504-.351l-.951.527c.016-1.061-.208-1.845-.676-2.353-.459-.518-1.252-.777-2.379-.777-.708 0-1.359.167-1.951.501-.593.325-1.006.868-1.239 1.627l-2.44-.751c.333-1.159.967-2.082 1.902-2.765.942-.686 2.194-1.027 3.754-1.027 1.209 0 2.262.209 3.154.625a3.893 3.893 0 0 1 1.977 1.953c.217.443.351.91.4 1.402.051.492.076 1.022.076 1.589v8.323h-2.315v-3.092l.45.4c-.56 1.035-1.272 1.808-2.14 2.316-.859.5-1.919.751-3.179.751Zm.463-2.14c.743 0 1.38-.129 1.915-.388a3.773 3.773 0 0 0 1.289-1.014 3.2 3.2 0 0 0 .639-1.276c.141-.4.221-.851.237-1.351.025-.502.037-.902.037-1.202l.851.312c-.825.125-1.576.239-2.252.339a57 57 0 0 0-1.84.3c-.543.092-1.026.204-1.451.338-.359.125-.68.275-.964.45a2.207 2.207 0 0 0-.664.639c-.158.25-.237.554-.237.914 0 .349.087.675.263.975.175.292.441.526.8.702.359.174.818.262 1.377.262Zm12.386 1.765-4.906-13.516h2.641l3.591 10.236 3.592-10.236h2.641l-4.906 13.516h-2.653Zm14.568.375c-1.343 0-2.524-.292-3.542-.876a6.235 6.235 0 0 1-2.365-2.465c-.56-1.061-.839-2.287-.839-3.679 0-1.478.275-2.759.826-3.843.559-1.085 1.335-1.924 2.328-2.516.993-.592 2.149-.888 3.467-.888 1.376 0 2.549.321 3.517.964.967.634 1.69 1.539 2.165 2.716.484 1.175.676 2.573.576 4.192h-2.616v-.951c-.017-1.57-.317-2.729-.901-3.48-.575-.751-1.456-1.126-2.64-1.126-1.311 0-2.296.414-2.955 1.239-.659.826-.988 2.019-.988 3.579 0 1.485.329 2.637.988 3.455.659.81 1.61 1.214 2.854 1.214.817 0 1.523-.184 2.115-.551.6-.376 1.067-.91 1.402-1.602l2.565.814c-.525 1.209-1.322 2.147-2.39 2.816-1.069.658-2.257.988-3.567.988Zm-4.818-6.395v-2.039h9.649v2.039h-9.649Zm13.258 6.02v-18.398h2.615v18.398h-2.615Z"/><g filter="url(#e)"><path fill="#FFD5BF" d="M54.815 1.37H297.37C370-.685 368.629 23.837 368.629 30.148v143.425c0 6.311-.685 11.427-.685 11.427H67.243c-6.864 0-12.428-5.116-12.428-11.427V1.37Z"/><path fill="#1D1D1B" d="M86.397 106.181V94.49h4.62c.114 0 .25.005.406.016.157.005.309.021.455.049.633.097 1.164.313 1.591.649.433.336.758.76.974 1.275a4.29 4.29 0 0 1 .325 1.697 4.24 4.24 0 0 1-.333 1.697 3.186 3.186 0 0 1-.974 1.274c-.427.336-.955.552-1.583.65a5.775 5.775 0 0 1-.455.048 5.957 5.957 0 0 1-.406.017h-3.174v4.319h-1.446Zm1.446-5.691h3.126c.102 0 .219-.006.349-.017.135-.011.262-.03.381-.057.374-.086.677-.243.91-.47.238-.233.41-.504.52-.812a2.866 2.866 0 0 0-.001-1.909 2.08 2.08 0 0 0-.52-.82 1.778 1.778 0 0 0-.909-.47 1.71 1.71 0 0 0-.381-.057 4.252 4.252 0 0 0-.35-.016h-3.125v4.628Zm8.547 5.691 3.914-11.691h2.014l3.913 11.691h-1.502l-3.662-10.847h.455l-3.63 10.847h-1.501Zm1.884-2.736v-1.356h6.073v1.356h-6.073Zm13.079 2.736v-10.32h-3.987V94.49h9.418v1.372h-3.986v10.319h-1.445Zm8.348 0V94.49h4.62c.114 0 .249.005.406.016.157.005.308.021.455.049.633.097 1.163.313 1.591.649.433.336.758.76.974 1.275.217.508.325 1.074.325 1.697 0 .903-.235 1.688-.706 2.354-.471.66-1.161 1.074-2.071 1.242l-.552.09h-3.597v4.319h-1.445Zm6.958 0-2.306-4.758 1.429-.438 2.534 5.196h-1.657Zm-5.513-5.691h3.126c.103 0 .219-.006.349-.017.136-.011.263-.03.382-.057.373-.086.677-.243.909-.47.239-.233.412-.504.52-.812.108-.314.162-.634.162-.959 0-.324-.054-.64-.162-.95a2.068 2.068 0 0 0-.52-.82 1.782 1.782 0 0 0-.909-.47 1.707 1.707 0 0 0-.382-.057 4.25 4.25 0 0 0-.349-.016h-3.126v4.628Zm10.745 5.691V94.49h1.445v11.691h-1.445Zm10.311.244c-1.163 0-2.152-.258-2.963-.772-.812-.514-1.432-1.228-1.859-2.143-.423-.915-.634-1.973-.634-3.175 0-1.201.211-2.26.634-3.174.427-.915 1.047-1.63 1.859-2.144.811-.514 1.8-.771 2.963-.771 1.354 0 2.465.344 3.337 1.031.877.687 1.481 1.613 1.81 2.777l-1.469.39c-.238-.872-.663-1.56-1.274-2.063-.612-.503-1.413-.755-2.404-.755-.872 0-1.597.198-2.176.593-.578.395-1.014.947-1.308 1.656-.291.704-.439 1.524-.445 2.46-.005.931.137 1.751.43 2.46.292.704.731 1.256 1.315 1.657.585.395 1.312.592 2.184.592.991 0 1.792-.251 2.404-.755.611-.509 1.036-1.196 1.274-2.062l1.469.39c-.329 1.158-.933 2.084-1.81 2.776-.872.688-1.983 1.032-3.337 1.032Zm13.427-.244V94.49h4.555c.698 0 1.294.143 1.786.43a2.94 2.94 0 0 1 1.137 1.136c.265.466.397.97.397 1.51 0 .634-.163 1.189-.487 1.665a2.462 2.462 0 0 1-1.315.982l-.016-.397c.752.2 1.336.568 1.754 1.104.417.536.625 1.174.625 1.916 0 .682-.141 1.272-.422 1.77a2.866 2.866 0 0 1-1.202 1.161c-.519.276-1.137.414-1.851.414h-4.961Zm1.461-1.38h3.224c.433 0 .82-.079 1.161-.236a1.94 1.94 0 0 0 .803-.682c.2-.292.301-.644.301-1.055 0-.395-.09-.75-.268-1.064a1.922 1.922 0 0 0-.739-.747 2.086 2.086 0 0 0-1.096-.284h-3.386v4.068Zm0-5.432h3.078c.346 0 .657-.073.933-.22.282-.15.504-.362.666-.633.168-.27.252-.587.252-.95 0-.503-.171-.914-.513-1.234-.339-.319-.786-.479-1.338-.479h-3.078v3.516Zm9.404 6.812 3.914-11.691h2.013l3.914 11.691h-1.502l-3.662-10.847h.454l-3.629 10.847h-1.502Zm1.883-2.736v-1.356h6.074v1.356h-6.074Zm13.08 2.736v-10.32h-3.987V94.49h9.418v1.372h-3.986v10.319h-1.445Zm8.347 0V94.49h7.389v1.372h-5.944v3.661h4.969v1.372h-4.969v3.914h5.944v1.372h-7.389Zm10.965 0V94.49h1.315l4.417 9.312 4.392-9.313h1.332v11.684h-1.372v-8.509l-3.97 8.517h-.771l-3.972-8.517v8.517h-1.371Zm14.544 0 3.914-11.691h2.013l3.914 11.691h-1.502l-3.663-10.847h.455l-3.629 10.847h-1.502Zm1.883-2.736v-1.356h6.074v1.356h-6.074Zm11.034 2.736V94.49h1.463l6.096 9.133V94.49h1.463v11.691h-1.463l-6.096-9.142v9.142h-1.463Z"/></g><path fill="#1D1D1B" d="M88.336 149.37v-18.021h2.616v15.556h8.16v2.465H88.335Zm17.243.364c-.934 0-1.719-.151-2.353-.451-.634-.3-1.151-.692-1.552-1.176a5.676 5.676 0 0 1-.901-1.602 8.255 8.255 0 0 1-.425-1.69 10.926 10.926 0 0 1-.113-1.452v-7.509h2.653v6.645c0 .527.042 1.068.125 1.627.092.551.259 1.065.501 1.54.25.476.597.859 1.039 1.151.45.292 1.034.439 1.752.439.467 0 .909-.075 1.327-.226a2.77 2.77 0 0 0 1.088-.751c.317-.341.564-.792.739-1.351.183-.559.275-1.239.275-2.041l1.627.614c0 1.227-.229 2.311-.688 3.253a5.178 5.178 0 0 1-1.978 2.19c-.859.526-1.898.79-3.116.79Zm4.468-.364v-3.904h-.313v-9.612h2.641v13.516h-2.328Zm14.573 0v-6.645c0-.526-.046-1.064-.137-1.615a4.86 4.86 0 0 0-.501-1.551 2.933 2.933 0 0 0-1.039-1.152c-.442-.291-1.022-.438-1.739-.438-.467 0-.91.079-1.327.238-.417.15-.784.396-1.101.739-.309.341-.555.792-.739 1.351-.175.559-.262 1.239-.262 2.039l-1.627-.612c0-1.227.229-2.307.688-3.241.459-.943 1.118-1.678 1.977-2.203.86-.526 1.898-.789 3.117-.789.934 0 1.718.15 2.353.451.634.3 1.147.696 1.539 1.188.4.484.705 1.014.914 1.59a8.24 8.24 0 0 1 .425 1.69c.075.55.113 1.034.113 1.451v7.509h-2.654Zm-9.499 0v-13.516h2.341v3.905h.313v9.611h-2.654Zm20.272.376c-1.385 0-2.561-.308-3.529-.927-.968-.616-1.71-1.463-2.228-2.54-.509-1.076-.767-2.298-.776-3.667.009-1.393.276-2.623.801-3.692.526-1.076 1.277-1.919 2.253-2.528.976-.609 2.149-.913 3.517-.913 1.477 0 2.737.367 3.78 1.101 1.051.734 1.743 1.74 2.077 3.016l-2.604.75c-.257-.759-.683-1.347-1.275-1.763-.585-.426-1.256-.639-2.016-.639-.859 0-1.564.204-2.115.613-.55.401-.959.951-1.226 1.652s-.405 1.502-.413 2.403c.008 1.393.325 2.52.951 3.379.634.859 1.569 1.29 2.803 1.29.843 0 1.523-.192 2.04-.576.527-.392.927-.951 1.202-1.677l2.653.626c-.442 1.318-1.173 2.331-2.19 3.041-1.018.7-2.253 1.051-3.705 1.051Zm17.18-.376v-6.645c0-.526-.046-1.064-.138-1.615a4.81 4.81 0 0 0-.5-1.551 2.933 2.933 0 0 0-1.039-1.152c-.443-.291-1.022-.438-1.739-.438-.467 0-.91.079-1.327.238a2.74 2.74 0 0 0-1.101.739c-.309.341-.555.792-.739 1.351-.176.559-.263 1.239-.263 2.039l-1.627-.612c0-1.227.23-2.307.688-3.241.459-.943 1.118-1.678 1.978-2.203.859-.526 1.899-.789 3.116-.789.934 0 1.72.15 2.353.451.634.3 1.148.696 1.54 1.188.4.484.704 1.014.913 1.59.209.575.35 1.139.426 1.69.075.55.112 1.034.112 1.451v7.509h-2.653Zm-9.499 0v-18.021h2.34v9.724h.313v8.297h-2.653Z"/></g></g><rect width="368" height="368" x="1" y="1" stroke="#FFD5BF" stroke-width="2" rx="29"/><defs><filter id="c" width="280.796" height="379.462" x="112.436" y="-4.909" color-interpolation-filters="sRGB" filterUnits="userSpaceOnUse"><feFlood flood-opacity="0" result="BackgroundImageFix"/><feColorMatrix in="SourceAlpha" result="hardAlpha" values="0 0 0 0 0 0 0 0 0 0 0 0 0 0 0 0 0 0 127 0"/><feOffset dy="15.581"/><feGaussianBlur stdDeviation="12.301"/><feComposite in2="hardAlpha" operator="out"/><feColorMatrix values="0 0 0 0 0 0 0 0 0 0 0 0 0 0 0 0 0 0 0.09 0"/><feBlend in2="BackgroundImageFix" result="effect1_dropShadow_94_549"/><feBlend in="SourceGraphic" in2="effect1_dropShadow_94_549" result="shape"/></filter><filter id="d" width="326.017" height="304.092" x="68.213" y="-8.65" color-interpolation-filters="sRGB" filterUnits="userSpaceOnUse"><feFlood flood-opacity="0" result="BackgroundImageFix"/><feColorMatrix in="SourceAlpha" result="hardAlpha" values="0 0 0 0 0 0 0 0 0 0 0 0 0 0 0 0 0 0 127 0"/><feOffset dy="15.581"/><feGaussianBlur stdDeviation="12.301"/><feComposite in2="hardAlpha" operator="out"/><feColorMatrix values="0 0 0 0 0 0 0 0 0 0 0 0 0 0 0 0 0 0 0.09 0"/><feBlend in2="BackgroundImageFix" result="effect1_dropShadow_94_549"/><feBlend in="SourceGraphic" in2="effect1_dropShadow_94_549" result="shape"/></filter><filter id="e" width="363.019" height="232.955" x="30.213" y="-7.772" color-interpolation-filters="sRGB" filterUnits="userSpaceOnUse"><feFlood flood-opacity="0" result="BackgroundImageFix"/><feColorMatrix in="SourceAlpha" result="hardAlpha" values="0 0 0 0 0 0 0 0 0 0 0 0 0 0 0 0 0 0 127 0"/><feOffset dy="15.581"/><feGaussianBlur stdDeviation="12.301"/><feComposite in2="hardAlpha" operator="out"/><feColorMatrix values="0 0 0 0 0 0 0 0 0 0 0 0 0 0 0 0 0 0 0.09 0"/><feBlend in2="BackgroundImageFix" result="effect1_dropShadow_94_549"/><feBlend in="SourceGraphic" in2="effect1_dropShadow_94_549" result="shape"/></filter><clipPath id="a"><rect width="370" height="370" fill="#fff" rx="30"/></clipPath></defs></svg>