<svg xmlns="http://www.w3.org/2000/svg" width="370" height="370" fill="none"><g clip-path="url(#a)"><mask id="b" width="370" height="370" x="0" y="0" maskUnits="userSpaceOnUse" style="mask-type:luminance"><path fill="#fff" d="M348.074 0H21.926C9.816 0 0 9.817 0 21.926v326.148C0 360.183 9.817 370 21.926 370h326.148c12.109 0 21.926-9.817 21.926-21.926V21.926C370 9.816 360.183 0 348.074 0Z"/></mask><g mask="url(#b)"><path fill="ivory" d="M340.37 0H29.63C13.266 0 0 13.266 0 29.63v310.74C0 356.734 13.266 370 29.63 370h310.74c16.364 0 29.63-13.266 29.63-29.63V29.63C370 13.266 356.734 0 340.37 0Z"/><g filter="url(#c)"><path fill="#fff" fill-opacity=".5" d="M37 75.552c0-6.912 5.603-12.515 12.515-12.515h317.744v109.63H49.515c-6.912 0-12.515-5.604-12.515-12.516V75.552Z"/></g><path fill="#1D1D1B" d="M164.179 108.103c-1.294 0-2.461-.221-3.504-.663-1.035-.451-1.89-1.089-2.567-1.915-.667-.834-1.1-1.823-1.3-2.966l2.728-.413c.275 1.101.851 1.96 1.727 2.578.875.609 1.898.913 3.065.913.727 0 1.394-.112 2.004-.337.608-.234 1.096-.564 1.463-.989.376-.434.563-.951.563-1.552 0-.325-.057-.613-.175-.864a1.887 1.887 0 0 0-.463-.65 2.488 2.488 0 0 0-.713-.488 5.276 5.276 0 0 0-.914-.363l-4.618-1.365a11.182 11.182 0 0 1-1.376-.513 5.429 5.429 0 0 1-1.289-.838 4.126 4.126 0 0 1-.939-1.29c-.243-.517-.363-1.142-.363-1.877 0-1.11.284-2.048.851-2.815.575-.776 1.351-1.36 2.328-1.752.976-.401 2.069-.601 3.279-.601 1.217.016 2.307.233 3.266.65a6.197 6.197 0 0 1 2.404 1.803c.641.776 1.084 1.718 1.326 2.828l-2.804.476a3.674 3.674 0 0 0-.8-1.74 4.023 4.023 0 0 0-1.502-1.126 4.781 4.781 0 0 0-1.928-.413 4.709 4.709 0 0 0-1.839.3c-.551.217-.993.522-1.326.914a2.05 2.05 0 0 0-.49 1.351c0 .5.147.906.439 1.214.292.309.651.555 1.076.739.434.175.864.32 1.289.438l3.329.938c.418.117.889.276 1.414.476a6.353 6.353 0 0 1 1.54.813c.5.35.913.818 1.239 1.402.325.576.488 1.302.488 2.178 0 .909-.184 1.71-.551 2.403a5.1 5.1 0 0 1-1.514 1.727 6.879 6.879 0 0 1-2.202 1.038 9.742 9.742 0 0 1-2.641.351Zm12.642 0c-1.002 0-1.841-.184-2.516-.551-.676-.375-1.189-.867-1.539-1.477a4.102 4.102 0 0 1-.514-2.027c0-.684.122-1.285.363-1.802a3.467 3.467 0 0 1 1.077-1.314c.475-.367 1.059-.664 1.751-.889.602-.175 1.282-.33 2.041-.463a69.169 69.169 0 0 1 2.39-.375l2.503-.35-.951.525c.017-1.06-.209-1.844-.677-2.353-.457-.517-1.251-.776-2.377-.776-.709 0-1.36.167-1.952.5-.593.326-1.005.868-1.24 1.628l-2.439-.751c.333-1.16.967-2.082 1.902-2.766.943-.684 2.194-1.026 3.753-1.026 1.21 0 2.262.208 3.155.625a3.9 3.9 0 0 1 1.977 1.953 4.1 4.1 0 0 1 .401 1.401c.05.493.075 1.023.075 1.59v8.322h-2.316v-3.091l.451.401c-.559 1.034-1.272 1.806-2.141 2.315-.859.501-1.918.751-3.177.751Zm.463-2.14c.742 0 1.38-.129 1.914-.388a3.777 3.777 0 0 0 1.29-1.014c.324-.409.537-.834.637-1.276a4.46 4.46 0 0 0 .238-1.352c.025-.501.037-.901.037-1.201l.851.312c-.825.125-1.576.238-2.253.338-.675.1-1.288.201-1.839.301-.542.091-1.026.204-1.451.338a4.916 4.916 0 0 0-.965.45 2.212 2.212 0 0 0-.663.638c-.157.251-.237.555-.237.914 0 .35.088.676.263.976.174.292.441.526.8.701.36.175.819.263 1.378.263Zm12.384 1.764-4.906-13.516h2.641l3.593 10.238 3.591-10.238h2.641l-4.906 13.516h-2.654Zm9.314-15.731v-2.54h2.615v2.54h-2.615Zm0 15.731V94.211h2.615v13.516h-2.615Zm15.11 0v-6.645c0-.526-.047-1.064-.139-1.614a4.837 4.837 0 0 0-.5-1.553 2.94 2.94 0 0 0-1.038-1.15c-.443-.293-1.023-.439-1.741-.439-.467 0-.908.08-1.326.238-.417.15-.784.396-1.101.738-.309.342-.555.793-.738 1.352-.176.559-.264 1.239-.264 2.04l-1.626-.613c0-1.227.229-2.307.688-3.242.459-.943 1.118-1.677 1.977-2.202.859-.526 1.898-.789 3.116-.789.935 0 1.719.15 2.353.45.635.301 1.147.697 1.539 1.19.4.484.706 1.013.914 1.59a8.12 8.12 0 0 1 .425 1.689c.076.55.114 1.034.114 1.451v7.509h-2.653Zm-9.5 0V94.211h2.341v3.905h.312v9.611h-2.653Zm20.23 6.383a6.702 6.702 0 0 1-2.115-.338 6.05 6.05 0 0 1-1.852-1.001 5.441 5.441 0 0 1-1.389-1.614l2.415-1.227c.292.576.71.997 1.253 1.264a3.823 3.823 0 0 0 1.714.401c.743 0 1.376-.134 1.902-.401a2.579 2.579 0 0 0 1.188-1.176c.275-.526.41-1.177.402-1.953v-3.779h.312V94.211h2.316v13.879c0 .359-.014.701-.038 1.027a8.21 8.21 0 0 1-.137.976c-.192.909-.56 1.66-1.102 2.253-.535.592-1.218 1.034-2.053 1.326-.825.292-1.764.438-2.816.438Zm-.2-6.007c-1.26 0-2.349-.313-3.266-.939-.91-.626-1.614-1.477-2.116-2.553-.492-1.084-.738-2.303-.738-3.654 0-1.36.25-2.574.751-3.642.501-1.076 1.21-1.923 2.128-2.54.926-.627 2.023-.94 3.291-.94 1.276 0 2.349.314 3.217.94.875.617 1.535 1.464 1.977 2.54.451 1.076.676 2.29.676 3.642 0 1.351-.225 2.565-.676 3.642-.451 1.076-1.114 1.931-1.99 2.565-.875.626-1.961.939-3.254.939Zm.363-2.366c.859 0 1.561-.204 2.102-.613.543-.409.939-.972 1.19-1.689.25-.718.375-1.544.375-2.478 0-.935-.129-1.76-.388-2.478-.251-.718-.642-1.277-1.177-1.677-.525-.4-1.196-.6-2.014-.6-.868 0-1.582.212-2.141.637-.558.426-.976.997-1.251 1.715-.267.717-.4 1.518-.4 2.403 0 .892.133 1.702.4 2.428.275.717.684 1.289 1.226 1.714.551.426 1.243.638 2.078.638Zm13.915 2.353c-1.645 0-2.984-.363-4.018-1.088-1.035-.726-1.668-1.748-1.902-3.067l2.677-.413a2.712 2.712 0 0 0 1.153 1.665c.608.4 1.363.601 2.265.601.817 0 1.455-.167 1.914-.501.468-.334.701-.793.701-1.377 0-.342-.082-.617-.25-.826-.159-.217-.497-.421-1.014-.613-.516-.192-1.306-.43-2.365-.713-1.159-.301-2.082-.622-2.765-.964-.677-.35-1.161-.755-1.453-1.214-.284-.467-.425-1.03-.425-1.69 0-.817.217-1.53.651-2.14.433-.609 1.043-1.08 1.827-1.414.792-.333 1.718-.5 2.778-.5 1.034 0 1.956.162 2.766.488.809.325 1.464.788 1.965 1.389.501.592.801 1.289.901 2.09l-2.678.488c-.092-.65-.396-1.164-.914-1.54-.517-.375-1.189-.58-2.014-.613-.794-.033-1.437.1-1.929.401-.491.292-.738.697-.738 1.214 0 .3.092.555.275.763.192.209.559.41 1.102.601.543.192 1.343.421 2.404.688 1.134.292 2.035.618 2.702.977.667.35 1.143.771 1.427 1.264.291.483.438 1.072.438 1.764 0 1.335-.488 2.382-1.465 3.141-.967.76-2.306 1.139-4.016 1.139Zm-75.377 38.315v-2.653h-6.627v-1.691l4.755-10.073h2.022l-4.756 10.073h4.606v-4.055h1.802v4.055h1.502v1.691h-1.502v2.653h-1.802Zm9.522-14.707c.921 0 1.753.22 2.493.661a4.845 4.845 0 0 1 1.762 1.802c.442.761.661 1.625.661 2.593v4.796c0 1.007-.217 1.899-.65 2.673a4.712 4.712 0 0 1-1.803 1.822c-.761.441-1.635.661-2.623.661a5.097 5.097 0 0 1-2.212-.49 4.872 4.872 0 0 1-1.732-1.392l1.331-1.182c.294.414.671.747 1.132 1.002.46.247.953.37 1.481.37.641 0 1.205-.153 1.692-.46a3.26 3.26 0 0 0 1.152-1.202c.28-.494.42-1.028.42-1.602v-2.893l.391.44a4.645 4.645 0 0 1-1.593 1.441 4.26 4.26 0 0 1-2.111.542c-.895 0-1.695-.211-2.404-.632a4.65 4.65 0 0 1-1.681-1.702c-.414-.721-.621-1.528-.621-2.422 0-.895.223-1.706.67-2.433a4.945 4.945 0 0 1 1.783-1.742 4.817 4.817 0 0 1 2.462-.651Zm0 1.722a3.1 3.1 0 0 0-2.692 1.542 2.972 2.972 0 0 0-.421 1.562c0 .573.137 1.098.411 1.571.28.467.654.841 1.121 1.122.474.28.998.42 1.572.42.574 0 1.097-.14 1.572-.42a3.115 3.115 0 0 0 1.121-1.122c.28-.473.42-.998.42-1.571a2.96 2.96 0 0 0-.42-1.552 3.089 3.089 0 0 0-1.121-1.132 2.984 2.984 0 0 0-1.563-.42Zm11.836-1.722c.922 0 1.753.22 2.494.661a4.85 4.85 0 0 1 1.761 1.802c.441.761.662 1.625.662 2.593v4.796c0 1.007-.218 1.899-.651 2.673a4.716 4.716 0 0 1-1.802 1.822c-.762.441-1.636.661-2.624.661a5.1 5.1 0 0 1-2.212-.49 4.88 4.88 0 0 1-1.732-1.392l1.332-1.182c.293.414.67.747 1.131 1.002.46.247.955.37 1.481.37.641 0 1.206-.153 1.692-.46a3.24 3.24 0 0 0 1.151-1.202 3.186 3.186 0 0 0 .421-1.602v-2.893l.391.44a4.666 4.666 0 0 1-1.591 1.441 4.275 4.275 0 0 1-2.113.542c-.895 0-1.696-.211-2.404-.632a4.661 4.661 0 0 1-1.682-1.702c-.413-.721-.62-1.528-.62-2.422 0-.895.223-1.706.671-2.433a4.934 4.934 0 0 1 1.782-1.742 4.82 4.82 0 0 1 2.462-.651Zm0 1.722c-.574 0-1.097.14-1.572.42-.467.274-.84.648-1.121 1.122a2.98 2.98 0 0 0-.42 1.562c0 .573.137 1.098.411 1.571a3.22 3.22 0 0 0 1.121 1.122c.474.28.997.42 1.572.42a3.1 3.1 0 0 0 2.692-1.542c.281-.473.421-.998.421-1.571 0-.568-.14-1.085-.421-1.552a3.074 3.074 0 0 0-1.121-1.132 2.98 2.98 0 0 0-1.562-.42Zm11.626 13.286c-.92 0-1.734-.183-2.443-.55a4.189 4.189 0 0 1-1.661-1.553c-.401-.661-.601-1.431-.601-2.312 0-.862.204-1.639.611-2.334.414-.693 1.034-1.227 1.862-1.602l-.03.651c-.674-.326-1.191-.788-1.551-1.381a3.788 3.788 0 0 1-.542-1.993c0-.814.187-1.515.561-2.102a3.739 3.739 0 0 1 1.542-1.362c.655-.32 1.406-.48 2.252-.48.849 0 1.6.16 2.253.48a3.739 3.739 0 0 1 1.542 1.362c.374.587.56 1.288.56 2.102a3.92 3.92 0 0 1-.509 1.983c-.342.587-.865 1.051-1.572 1.391l-.041-.64c.827.361 1.448.891 1.862 1.591.421.695.632 1.472.632 2.334 0 .881-.204 1.651-.611 2.312a4.173 4.173 0 0 1-1.672 1.553c-.707.367-1.523.55-2.444.55Zm0-1.702c.842 0 1.523-.23 2.044-.692.526-.467.79-1.14.79-2.021 0-.888-.26-1.562-.781-2.023-.514-.467-1.197-.701-2.053-.701-.846 0-1.532.234-2.052.701-.514.461-.771 1.135-.771 2.023 0 .881.261 1.554.782 2.021.52.462 1.2.692 2.041.692Zm0-7.149c.735 0 1.328-.183 1.783-.551.454-.373.68-.931.68-1.672 0-.74-.226-1.294-.68-1.661-.455-.374-1.048-.561-1.783-.561-.727 0-1.321.187-1.781.561-.455.367-.681.921-.681 1.661 0 .741.226 1.299.681 1.672.46.368 1.054.551 1.781.551Zm11.495.921-1.311-.951 1.551-1.952-2.402-.701.5-1.542 2.343.871-.09-2.513h1.621l-.089 2.513 2.342-.871.501 1.542-2.403.701 1.541 1.952-1.311.951-1.391-2.062-1.402 2.062Zm8.336 0-1.311-.951 1.551-1.952-2.402-.701.5-1.542 2.343.871-.09-2.513h1.621l-.089 2.513 2.342-.871.501 1.542-2.403.701 1.541 1.952-1.311.951-1.391-2.062-1.402 2.062Zm8.336 0-1.311-.951 1.551-1.952-2.404-.701.502-1.542 2.342.871-.089-2.513h1.621l-.089 2.513 2.342-.871.5 1.542-2.402.701 1.541 1.952-1.311.951-1.392-2.062-1.401 2.062Zm8.336 0-1.313-.951 1.553-1.952-2.404-.701.502-1.542 2.342.871-.089-2.513h1.621l-.091 2.513 2.344-.871.5 1.542-2.402.701 1.541 1.952-1.311.951-1.392-2.062-1.401 2.062Zm11.743 0-1.312-.951 1.553-1.952-2.404-.701.502-1.542 2.342.871-.091-2.513h1.623l-.091 2.513 2.344-.871.5 1.542-2.402.701 1.541 1.952-1.311.951-1.392-2.062-1.402 2.062Zm8.336 0-1.312-.951 1.553-1.952-2.404-.701.5-1.542 2.344.871-.091-2.513h1.623l-.091 2.513 2.344-.871.5 1.542-2.402.701 1.541 1.952-1.311.951-1.392-2.062-1.402 2.062Zm8.336 0-1.312-.951 1.553-1.952-2.404-.701.5-1.542 2.344.871-.091-2.513h1.623l-.091 2.513 2.344-.871.5 1.542-2.402.701 1.541 1.952-1.311.951-1.392-2.062-1.402 2.062Zm8.336 0-1.312-.951 1.551-1.952-2.402-.701.5-1.542 2.344.871-.091-2.513h1.623l-.091 2.513 2.344-.871.5 1.542-2.404.701 1.543 1.952-1.311.951-1.393-2.062-1.401 2.062Zm11.744 0-1.312-.951 1.551-1.952-2.402-.701.5-1.542 2.344.871-.091-2.513h1.623l-.091 2.513 2.342-.871.502 1.542-2.404.701 1.542 1.952-1.312.951-1.39-2.062-1.402 2.062Zm8.336 0-1.312-.951 1.551-1.952-2.402-.701.5-1.542 2.344.871-.091-2.513h1.623l-.091 2.513 2.342-.871.502 1.542-2.404.701 1.542 1.952-1.312.951-1.39-2.062-1.402 2.062Zm8.336 0-1.312-.951 1.551-1.952-2.402-.701.5-1.542 2.344.871-.091-2.513h1.621l-.089 2.513 2.342-.871.502 1.542-2.404.701 1.542 1.952-1.312.951-1.391-2.062-1.401 2.062Zm8.336 0-1.312-.951 1.551-1.952-2.402-.701.5-1.542 2.344.871-.091-2.513h1.621l-.089 2.513 2.342-.871.502 1.542-2.404.701 1.542 1.952-1.312.951-1.391-2.062-1.401 2.062Z"/><g filter="url(#d)"><path fill="#fff" fill-opacity=".5" d="M101.407 211.219c0-6.912 5.603-12.515 12.515-12.515h253.337v109.629H113.922c-6.912 0-12.515-5.603-12.515-12.515v-84.599Z"/></g><path fill="#1D1D1B" d="M230.246 243.267c-1.802 0-3.337-.393-4.606-1.177-1.267-.792-2.239-1.894-2.915-3.304-.668-1.41-1.001-3.045-1.001-4.906 0-1.861.333-3.496 1.001-4.906.676-1.41 1.648-2.507 2.915-3.292 1.269-.792 2.804-1.188 4.606-1.188 2.077 0 3.797.525 5.157 1.576 1.367 1.051 2.32 2.465 2.853 4.243l-2.653.714c-.351-1.26-.976-2.249-1.878-2.967-.892-.717-2.052-1.076-3.479-1.076-1.276 0-2.341.288-3.192.863-.851.576-1.492 1.382-1.926 2.416-.425 1.035-.639 2.241-.639 3.617-.008 1.377.2 2.582.626 3.616.435 1.035 1.076 1.841 1.927 2.416.859.576 1.928.864 3.204.864 1.427 0 2.587-.36 3.479-1.076.902-.727 1.527-1.715 1.878-2.967l2.653.714c-.533 1.777-1.486 3.191-2.853 4.243-1.36 1.051-3.08 1.577-5.157 1.577Zm19.498-.376v-6.646a9.9 9.9 0 0 0-.137-1.614 4.852 4.852 0 0 0-.501-1.551 2.956 2.956 0 0 0-1.038-1.153c-.443-.292-1.023-.437-1.741-.437-.467 0-.908.079-1.326.237a2.785 2.785 0 0 0-1.102.739c-.308.342-.554.793-.737 1.351-.176.559-.263 1.24-.263 2.04l-1.627-.612c0-1.227.229-2.308.688-3.243.459-.942 1.118-1.677 1.977-2.202.86-.526 1.898-.788 3.117-.788.934 0 1.718.15 2.352.45.635.3 1.147.697 1.539 1.189a5.3 5.3 0 0 1 .914 1.59 8.12 8.12 0 0 1 .425 1.689c.076.55.113 1.035.113 1.452v7.509h-2.653Zm-9.498 0V224.87h2.34v9.724h.313v8.297h-2.653Zm20.655.376c-1.343 0-2.524-.292-3.542-.877a6.238 6.238 0 0 1-2.366-2.465c-.559-1.06-.838-2.286-.838-3.68 0-1.476.275-2.757.826-3.842.559-1.084 1.335-1.923 2.328-2.515.993-.592 2.149-.889 3.467-.889 1.376 0 2.549.322 3.517.964.967.633 1.689 1.539 2.165 2.715.484 1.177.676 2.575.576 4.193h-2.616v-.951c-.017-1.569-.317-2.728-.901-3.479-.577-.751-1.457-1.127-2.641-1.127-1.31 0-2.295.413-2.954 1.239-.659.827-.988 2.019-.988 3.58 0 1.485.329 2.636.988 3.454.659.809 1.61 1.213 2.854 1.213.817 0 1.523-.182 2.115-.549.6-.376 1.067-.91 1.402-1.602l2.565.812c-.526 1.21-1.322 2.149-2.39 2.816-1.069.66-2.257.99-3.567.99Zm-4.818-6.396v-2.04h9.649v2.04h-9.649Zm18.789 6.396c-1.385 0-2.561-.31-3.529-.927-.968-.618-1.71-1.464-2.228-2.54-.508-1.077-.767-2.298-.775-3.667.008-1.394.275-2.625.8-3.692.526-1.077 1.277-1.919 2.253-2.528.977-.609 2.148-.914 3.517-.914 1.476 0 2.737.367 3.78 1.101 1.051.735 1.743 1.741 2.077 3.017l-2.603.75c-.259-.759-.684-1.347-1.276-1.765a3.347 3.347 0 0 0-2.016-.637c-.859 0-1.564.204-2.114.613-.551.4-.96.951-1.227 1.652-.267.701-.406 1.501-.414 2.403.008 1.393.326 2.52.951 3.379.635.859 1.569 1.288 2.804 1.288.843 0 1.523-.192 2.041-.575.524-.392.926-.951 1.201-1.676l2.653.625c-.442 1.318-1.173 2.332-2.191 3.04-1.017.702-2.251 1.053-3.704 1.053Zm7.681-.376.012-18.021h2.653v11.012l5.308-6.508h3.328l-5.607 6.759 6.183 6.758h-3.555l-5.657-6.508v6.508h-2.665Zm12.638-15.731v-2.541h2.616v2.541h-2.616Zm0 15.731v-13.517h2.616v13.517h-2.616Zm15.109 0v-6.646a9.79 9.79 0 0 0-.137-1.614 4.827 4.827 0 0 0-.501-1.551 2.943 2.943 0 0 0-1.039-1.153c-.441-.292-1.021-.437-1.739-.437-.467 0-.91.079-1.327.237a2.788 2.788 0 0 0-1.101.739c-.309.342-.555.793-.739 1.351-.174.559-.262 1.24-.262 2.04l-1.628-.612c0-1.227.23-2.308.69-3.243.459-.942 1.118-1.677 1.977-2.202.859-.526 1.898-.788 3.116-.788.935 0 1.719.15 2.353.45.633.3 1.147.697 1.539 1.189.4.484.704 1.014.914 1.59.208.575.35 1.139.425 1.689.075.55.112 1.035.112 1.452v7.509H310.3Zm-9.498 0v-13.517h2.339v3.906h.314v9.611h-2.653Zm20.23 6.382a6.72 6.72 0 0 1-2.115-.337 6.07 6.07 0 0 1-1.853-1.002 5.415 5.415 0 0 1-1.389-1.614l2.416-1.226c.292.575.71.997 1.251 1.263a3.836 3.836 0 0 0 1.714.402c.743 0 1.378-.135 1.904-.402a2.578 2.578 0 0 0 1.188-1.176c.275-.526.41-1.177.4-1.953v-3.779h.314v-10.075h2.314v13.879c0 .359-.012.702-.037 1.027-.024.326-.071.65-.138.977-.192.908-.558 1.659-1.1 2.253-.535.592-1.219 1.034-2.053 1.326-.827.292-1.765.437-2.816.437Zm-.2-6.006c-1.26 0-2.349-.314-3.267-.939-.909-.626-1.615-1.477-2.115-2.553-.492-1.085-.739-2.303-.739-3.655 0-1.36.251-2.573.751-3.642.501-1.076 1.21-1.923 2.129-2.541.926-.625 2.022-.938 3.291-.938 1.276 0 2.348.313 3.217.938.875.618 1.534 1.465 1.977 2.541.449 1.077.676 2.291.676 3.642 0 1.352-.227 2.566-.676 3.641-.451 1.078-1.114 1.933-1.99 2.567-.877.625-1.961.939-3.254.939Zm.363-2.365c.859 0 1.559-.206 2.102-.614.543-.409.939-.972 1.189-1.69.25-.717.376-1.543.376-2.478 0-.934-.13-1.761-.388-2.477-.251-.718-.643-1.277-1.177-1.678-.525-.4-1.196-.601-2.015-.601-.867 0-1.581.214-2.14.638-.559.427-.976.998-1.251 1.715-.267.718-.4 1.518-.4 2.403 0 .892.133 1.702.4 2.429.275.716.684 1.288 1.226 1.714.551.425 1.243.639 2.078.639Zm-92.594 40.667v-2.653h-6.628v-1.693l4.756-10.072h2.023l-4.757 10.072h4.606v-4.055h1.802v4.055h1.502v1.693h-1.502v2.653h-1.802Zm9.523-14.709c.921 0 1.751.221 2.493.661a4.868 4.868 0 0 1 1.762 1.802c.44.762.66 1.627.66 2.594v4.795c0 1.009-.216 1.899-.651 2.674a4.723 4.723 0 0 1-1.802 1.822c-.76.44-1.634.661-2.622.661a5.078 5.078 0 0 1-2.214-.491 4.885 4.885 0 0 1-1.732-1.391l1.332-1.182c.293.413.672.748 1.132 1.001.461.247.954.37 1.482.37.641 0 1.204-.153 1.692-.46a3.262 3.262 0 0 0 1.151-1.201 3.188 3.188 0 0 0 .421-1.602v-2.894l.39.441a4.644 4.644 0 0 1-1.592 1.442 4.261 4.261 0 0 1-2.112.54c-.895 0-1.696-.21-2.403-.63a4.676 4.676 0 0 1-1.682-1.702c-.414-.721-.621-1.53-.621-2.423 0-.895.224-1.706.67-2.434a4.969 4.969 0 0 1 1.783-1.742 4.815 4.815 0 0 1 2.463-.651Zm0 1.723c-.574 0-1.098.14-1.572.421a3.09 3.09 0 0 0-1.121 1.121 2.972 2.972 0 0 0-.421 1.562c0 .574.137 1.098.41 1.572.281.467.655.841 1.122 1.121.473.281.998.42 1.572.42.574 0 1.098-.139 1.572-.42.474-.28.847-.654 1.121-1.121.281-.474.421-.998.421-1.572a2.96 2.96 0 0 0-.421-1.553 3.076 3.076 0 0 0-1.121-1.13 2.972 2.972 0 0 0-1.562-.421Zm11.836-1.723c.921 0 1.752.221 2.492.661a4.848 4.848 0 0 1 1.763 1.802c.441.762.66 1.627.66 2.594v4.795c0 1.009-.216 1.899-.649 2.674a4.735 4.735 0 0 1-1.804 1.822c-.76.44-1.635.661-2.623.661a5.059 5.059 0 0 1-2.211-.491 4.862 4.862 0 0 1-1.733-1.391l1.331-1.182c.295.413.672.748 1.132 1.001.46.247.954.37 1.481.37.642 0 1.205-.153 1.693-.46a3.262 3.262 0 0 0 1.151-1.201 3.188 3.188 0 0 0 .421-1.602v-2.894l.39.441a4.644 4.644 0 0 1-1.592 1.442 4.261 4.261 0 0 1-2.112.54c-.895 0-1.695-.21-2.404-.63a4.681 4.681 0 0 1-1.681-1.702c-.414-.721-.621-1.53-.621-2.423 0-.895.224-1.706.67-2.434a4.977 4.977 0 0 1 1.783-1.742 4.815 4.815 0 0 1 2.463-.651Zm0 1.723c-.574 0-1.098.14-1.572.421a3.09 3.09 0 0 0-1.121 1.121 2.972 2.972 0 0 0-.421 1.562c0 .574.137 1.098.41 1.572.281.467.655.841 1.122 1.121.474.281.998.42 1.572.42.574 0 1.098-.139 1.572-.42.474-.28.847-.654 1.121-1.121.281-.474.421-.998.421-1.572a2.96 2.96 0 0 0-.421-1.553 3.076 3.076 0 0 0-1.121-1.13 2.972 2.972 0 0 0-1.562-.421Zm11.626 13.286c-.921 0-1.735-.184-2.443-.551a4.203 4.203 0 0 1-1.663-1.551c-.4-.661-.6-1.432-.6-2.314 0-.86.204-1.639.611-2.332.414-.695 1.035-1.228 1.863-1.602l-.031.651c-.674-.328-1.192-.788-1.552-1.383a3.792 3.792 0 0 1-.54-1.992c0-.814.186-1.515.56-2.102a3.729 3.729 0 0 1 1.542-1.361c.654-.321 1.405-.481 2.253-.481.847 0 1.598.16 2.253.481a3.729 3.729 0 0 1 1.542 1.361c.374.587.56 1.288.56 2.102 0 .727-.17 1.389-.511 1.983-.34.588-.863 1.051-1.572 1.392l-.04-.641c.828.36 1.449.89 1.863 1.592.42.693.63 1.472.63 2.332 0 .882-.203 1.653-.61 2.314a4.182 4.182 0 0 1-1.672 1.551c-.708.367-1.522.551-2.443.551Zm0-1.702c.841 0 1.521-.231 2.042-.691.527-.467.792-1.141.792-2.023 0-.888-.26-1.562-.781-2.022-.514-.468-1.199-.701-2.053-.701-.848 0-1.532.233-2.053.701-.514.46-.77 1.134-.77 2.022 0 .882.26 1.556.78 2.023.52.46 1.202.691 2.043.691Zm0-7.15c.734 0 1.328-.182 1.781-.549.455-.374.682-.932.682-1.673 0-.74-.227-1.294-.682-1.661-.453-.374-1.047-.561-1.781-.561-.728 0-1.322.187-1.783.561-.453.367-.68.921-.68 1.661 0 .741.227 1.299.68 1.673.461.367 1.055.549 1.783.549Zm11.495.923-1.313-.951 1.552-1.953-2.403-.702.501-1.541 2.342.871-.089-2.513h1.621l-.09 2.513 2.343-.871.5 1.541-2.402.702 1.542 1.953-1.312.951-1.392-2.063-1.4 2.063Zm8.334 0-1.311-.951 1.552-1.953-2.403-.702.501-1.541 2.342.871-.089-2.513h1.621l-.09 2.513 2.343-.871.5 1.541-2.402.702 1.542 1.953-1.312.951-1.392-2.063-1.402 2.063Zm8.336 0-1.311-.951 1.552-1.953-2.403-.702.501-1.541 2.342.871-.09-2.513h1.622l-.09 2.513 2.343-.871.5 1.541-2.402.702 1.542 1.953-1.312.951-1.392-2.063-1.402 2.063Zm8.336 0-1.311-.951 1.552-1.953-2.403-.702.5-1.541 2.343.871-.09-2.513h1.622l-.09 2.513 2.343-.871.5 1.541-2.402.702 1.542 1.953-1.312.951-1.392-2.063-1.402 2.063Zm11.744 0-1.311-.951 1.551-1.953-2.402-.702.5-1.541 2.343.871-.09-2.513h1.622l-.09 2.513 2.343-.871.5 1.541-2.403.702 1.543 1.953-1.312.951-1.392-2.063-1.402 2.063Zm8.336 0-1.311-.951 1.551-1.953-2.402-.702.5-1.541 2.343.871-.09-2.513h1.622l-.09 2.513 2.343-.871.5 1.541-2.403.702 1.543 1.953-1.313.951-1.391-2.063-1.402 2.063Zm8.336 0-1.311-.951 1.551-1.953-2.402-.702.5-1.541 2.343.871-.09-2.513h1.622l-.09 2.513 2.342-.871.501 1.541-2.403.702 1.541 1.953-1.311.951-1.391-2.063-1.402 2.063Zm8.336 0-1.311-.951 1.551-1.953-2.402-.702.5-1.541 2.343.871-.09-2.513h1.622l-.09 2.513 2.342-.871.501 1.541-2.403.702 1.541 1.953-1.311.951-1.391-2.063-1.402 2.063Zm11.744 0-1.311-.951 1.551-1.953-2.402-.702.5-1.541 2.343.871-.09-2.513h1.621l-.089 2.513 2.342-.871.501 1.541-2.403.702 1.541 1.953-1.311.951-1.391-2.063-1.402 2.063Zm8.336 0-1.311-.951 1.551-1.953-2.404-.702.502-1.541 2.342.871-.089-2.513h1.621l-.089 2.513 2.342-.871.5 1.541-2.402.702 1.541 1.953-1.311.951-1.392-2.063-1.401 2.063Zm8.336 0-1.313-.951 1.553-1.953-2.404-.702.502-1.541 2.342.871-.089-2.513h1.621l-.091 2.513 2.344-.871.5 1.541-2.402.702 1.541 1.953-1.311.951-1.392-2.063-1.401 2.063Z"/><path fill="url(#e)" fill-rule="evenodd" d="M85.577 91.456a8.316 8.316 0 0 1 5.836-2.382c7.355 0 11.038 8.765 5.837 13.89l-17.49 17.234a.702.702 0 0 0 0 1.003.73.73 0 0 0 1.017 0l21.363-21.05c6.729-6.63 17.639-6.63 24.369 0a16.804 16.804 0 0 1 0 24.012l-20.383 20.085a8.317 8.317 0 0 1-5.836 2.382c-7.355 0-11.038-8.765-5.836-13.89l20.379-20.081a.702.702 0 0 0 0-1.003.727.727 0 0 0-1.018 0l-21.362 21.049c-6.73 6.631-17.64 6.631-24.369 0a16.804 16.804 0 0 1 0-24.012l17.493-17.237Z" clip-rule="evenodd"/><path fill="url(#f)" fill-rule="evenodd" d="M149.984 227.122a8.315 8.315 0 0 1 5.837-2.381c7.354 0 11.037 8.765 5.836 13.89l-17.49 17.234a.702.702 0 0 0 0 1.003.727.727 0 0 0 1.018 0l21.361-21.051c6.73-6.629 17.64-6.629 24.37 0a16.804 16.804 0 0 1 0 24.013l-20.382 20.085a8.318 8.318 0 0 1-5.836 2.381c-7.355 0-11.039-8.765-5.837-13.89l20.379-20.081a.7.7 0 0 0 0-1.002.726.726 0 0 0-1.018 0l-21.361 21.049c-6.73 6.631-17.64 6.631-24.37 0a16.805 16.805 0 0 1 0-24.013l17.493-17.237Z" clip-rule="evenodd"/></g></g><rect width="368" height="368" x="1" y="1" stroke="#F5F7B3" stroke-width="2" rx="29"/><defs><linearGradient id="e" x1="-1.04" x2="119.099" y1="27.765" y2="147.061" gradientUnits="userSpaceOnUse"><stop stop-color="#fff"/><stop offset="1" stop-color="#1D1D1B"/></linearGradient><linearGradient id="f" x1="63.367" x2="183.506" y1="163.432" y2="282.728" gradientUnits="userSpaceOnUse"><stop stop-color="#fff"/><stop offset="1" stop-color="#1D1D1B"/></linearGradient><filter id="c" width="366.789" height="146.16" x="18.735" y="57.557" color-interpolation-filters="sRGB" filterUnits="userSpaceOnUse"><feFlood flood-opacity="0" result="BackgroundImageFix"/><feColorMatrix in="SourceAlpha" result="hardAlpha" values="0 0 0 0 0 0 0 0 0 0 0 0 0 0 0 0 0 0 127 0"/><feOffset dy="12.786"/><feGaussianBlur stdDeviation="9.133"/><feComposite in2="hardAlpha" operator="out"/><feColorMatrix values="0 0 0 0 0 0 0 0 0 0 0 0 0 0 0 0 0 0 0.1 0"/><feBlend in2="BackgroundImageFix" result="effect1_dropShadow_94_531"/><feBlend in="SourceGraphic" in2="effect1_dropShadow_94_531" result="shape"/></filter><filter id="d" width="302.382" height="146.16" x="83.142" y="193.224" color-interpolation-filters="sRGB" filterUnits="userSpaceOnUse"><feFlood flood-opacity="0" result="BackgroundImageFix"/><feColorMatrix in="SourceAlpha" result="hardAlpha" values="0 0 0 0 0 0 0 0 0 0 0 0 0 0 0 0 0 0 127 0"/><feOffset dy="12.786"/><feGaussianBlur stdDeviation="9.133"/><feComposite in2="hardAlpha" operator="out"/><feColorMatrix values="0 0 0 0 0 0 0 0 0 0 0 0 0 0 0 0 0 0 0.1 0"/><feBlend in2="BackgroundImageFix" result="effect1_dropShadow_94_531"/><feBlend in="SourceGraphic" in2="effect1_dropShadow_94_531" result="shape"/></filter><clipPath id="a"><rect width="370" height="370" fill="#fff" rx="30"/></clipPath></defs></svg>