<svg xmlns="http://www.w3.org/2000/svg" width="370" height="370" fill="none"><g clip-path="url(#a)"><mask id="b" width="370" height="370" x="0" y="0" maskUnits="userSpaceOnUse" style="mask-type:luminance"><path fill="#fff" d="M370 0H0v370h370V0Z"/></mask><g mask="url(#b)"><mask id="c" width="370" height="370" x="0" y="0" maskUnits="userSpaceOnUse" style="mask-type:luminance"><path fill="#fff" d="M354 0H16C7.163 0 0 7.163 0 16v338c0 8.837 7.163 16 16 16h338c8.837 0 16-7.163 16-16V16c0-8.837-7.163-16-16-16Z"/></mask><g mask="url(#c)"><path fill="#FFF6F1" d="M354 0H16C7.163 0 0 7.163 0 16v338c0 8.837 7.163 16 16 16h338c8.837 0 16-7.163 16-16V16c0-8.837-7.163-16-16-16Z"/><path stroke="#FFD5BF" d="M354 .5H16C7.44.5.5 7.44.5 16v338c0 8.56 6.94 15.5 15.5 15.5h338c8.56 0 15.5-6.94 15.5-15.5V16c0-8.56-6.94-15.5-15.5-15.5Z"/><g filter="url(#d)"><mask id="e" width="329" height="327" x="40" y="42" maskUnits="userSpaceOnUse" style="mask-type:luminance"><path fill="#fff" d="M40 42h329v311c0 8.837-7.163 16-16 16H40V42Z"/></mask><g mask="url(#e)"><path fill="#fff" d="M850 42H50c-5.523 0-10 4.477-10 10v490c0 5.523 4.477 10 10 10h800c5.523 0 10-4.477 10-10V52c0-5.523-4.477-10-10-10Z"/><g filter="url(#f)"><path fill="#fff" fill-opacity=".5" d="M240 142c0-5.523 4.477-10 10-10h610v410c0 5.523-4.477 10-10 10H240V142Z"/><path stroke="#DEDEE4" stroke-opacity=".8" d="M240.5 142a9.5 9.5 0 0 1 9.5-9.5h609.5V542a9.5 9.5 0 0 1-9.5 9.5H240.5V142Z"/></g><path fill="#DEDEE4" d="M78 148a8 8 0 1 0 0-16 8 8 0 0 0 0 16Zm96-16h-74a8 8 0 0 0 0 16h74a8 8 0 0 0 0-16Zm-96 56a8 8 0 1 0 0-16 8 8 0 0 0 0 16Zm96-16h-74a8 8 0 0 0 0 16h74a8 8 0 0 0 0-16Zm-96 56a8 8 0 1 0 0-16 8 8 0 0 0 0 16Zm96-16h-74a8 8 0 0 0 0 16h74a8 8 0 0 0 0-16Zm-96 56a8 8 0 1 0 0-16 8 8 0 0 0 0 16Zm96-16h-74a8 8 0 0 0 0 16h74a8 8 0 0 0 0-16Zm-96 56a8 8 0 1 0 0-16 8 8 0 0 0 0 16Zm96-16h-74a8 8 0 0 0 0 16h74a8 8 0 0 0 0-16Zm-96 56a8 8 0 1 0 0-16 8 8 0 0 0 0 16Zm96-16h-74a8 8 0 0 0 0 16h74a8 8 0 0 0 0-16Z"/><path fill="#1D1D1B" d="M313 152h-43c-5.523 0-10 4.477-10 10v22c0 5.523 4.477 10 10 10h43c5.523 0 10-4.477 10-10v-22c0-5.523-4.477-10-10-10Zm31.68 30v-17.28h6.792c1.096 0 2.016.224 2.76.672.744.448 1.304 1.028 1.68 1.74a4.67 4.67 0 0 1 .564 2.232c0 .952-.236 1.768-.708 2.448a3.474 3.474 0 0 1-1.884 1.392l-.024-.588c1.104.272 1.952.804 2.544 1.596.592.784.888 1.7.888 2.748 0 1.016-.204 1.9-.612 2.652a4.26 4.26 0 0 1-1.764 1.764c-.768.416-1.7.624-2.796.624h-7.44Zm2.544-2.388h4.512c.568 0 1.076-.108 1.524-.324a2.512 2.512 0 0 0 1.068-.924c.264-.408.396-.892.396-1.452 0-.52-.116-.988-.348-1.404a2.408 2.408 0 0 0-.984-.996c-.424-.248-.924-.372-1.5-.372h-4.668v5.472Zm0-7.836h4.212c.464 0 .88-.092 1.248-.276.376-.192.672-.464.888-.816.224-.36.336-.792.336-1.296 0-.672-.224-1.224-.672-1.656-.448-.432-1.048-.648-1.8-.648h-4.212v4.692Zm16.62 10.572c-.896 0-1.648-.144-2.256-.432a4.265 4.265 0 0 1-1.488-1.128 5.41 5.41 0 0 1-.864-1.536 7.884 7.884 0 0 1-.408-1.62 10.458 10.458 0 0 1-.108-1.392v-7.2h2.544v6.372c0 .504.04 1.024.12 1.56.088.528.248 1.02.48 1.476.24.456.572.824.996 1.104.432.28.992.42 1.68.42.448 0 .872-.072 1.272-.216.4-.152.748-.392 1.044-.72.304-.328.54-.76.708-1.296.176-.536.264-1.188.264-1.956l1.56.588c0 1.176-.22 2.216-.66 3.12a4.974 4.974 0 0 1-1.896 2.1c-.824.504-1.82.756-2.988.756Zm4.284-.348v-3.744h-.3v-9.216h2.532V182h-2.232Zm9.834.348c-1.576 0-2.86-.348-3.852-1.044-.992-.696-1.6-1.676-1.824-2.94l2.568-.396c.16.672.528 1.204 1.104 1.596.584.384 1.308.576 2.172.576.784 0 1.396-.16 1.836-.48.448-.32.672-.76.672-1.32 0-.328-.08-.592-.24-.792-.152-.208-.476-.404-.972-.588-.496-.184-1.252-.412-2.268-.684-1.112-.288-1.996-.596-2.652-.924-.648-.336-1.112-.724-1.392-1.164-.272-.448-.408-.988-.408-1.62 0-.784.208-1.468.624-2.052.416-.584 1-1.036 1.752-1.356.76-.32 1.648-.48 2.664-.48.992 0 1.876.156 2.652.468.776.312 1.404.756 1.884 1.332.48.568.768 1.236.864 2.004l-2.568.468c-.088-.624-.38-1.116-.876-1.476-.496-.36-1.14-.556-1.932-.588-.76-.032-1.376.096-1.848.384-.472.28-.708.668-.708 1.164 0 .288.088.532.264.732.184.2.536.392 1.056.576.52.184 1.288.404 2.304.66 1.088.28 1.952.592 2.592.936.64.336 1.096.74 1.368 1.212.28.464.42 1.028.42 1.692 0 1.28-.468 2.284-1.404 3.012-.928.728-2.212 1.092-3.852 1.092Zm7.431-15.432v-2.436h2.508v2.436h-2.508Zm0 15.084v-12.96h2.508V182h-2.508Zm14.487 0v-6.372c0-.504-.044-1.02-.132-1.548a4.64 4.64 0 0 0-.48-1.488 2.816 2.816 0 0 0-.996-1.104c-.424-.28-.98-.42-1.668-.42a3.55 3.55 0 0 0-1.272.228c-.4.144-.752.38-1.056.708-.296.328-.532.76-.708 1.296-.168.536-.252 1.188-.252 1.956l-1.56-.588c0-1.176.22-2.212.66-3.108a4.959 4.959 0 0 1 1.896-2.112c.824-.504 1.82-.756 2.988-.756.896 0 1.648.144 2.256.432.608.288 1.1.668 1.476 1.14.384.464.676.972.876 1.524.2.552.336 1.092.408 1.62.072.528.108.992.108 1.392v7.2h-2.544Zm-9.108 0v-12.96h2.244v3.744h.3V182h-2.544Zm19.642.36c-1.288 0-2.42-.28-3.396-.84a5.973 5.973 0 0 1-2.268-2.364c-.536-1.016-.804-2.192-.804-3.528 0-1.416.264-2.644.792-3.684.536-1.04 1.28-1.844 2.232-2.412.952-.568 2.06-.852 3.324-.852 1.32 0 2.444.308 3.372.924.928.608 1.62 1.476 2.076 2.604.464 1.128.648 2.468.552 4.02h-2.508v-.912c-.016-1.504-.304-2.616-.864-3.336-.552-.72-1.396-1.08-2.532-1.08-1.256 0-2.2.396-2.832 1.188-.632.792-.948 1.936-.948 3.432 0 1.424.316 2.528.948 3.312.632.776 1.544 1.164 2.736 1.164.784 0 1.46-.176 2.028-.528.576-.36 1.024-.872 1.344-1.536l2.46.78c-.504 1.16-1.268 2.06-2.292 2.7-1.024.632-2.164.948-3.42.948Zm-4.62-6.132v-1.956h9.252v1.956h-9.252Zm17.428 6.12c-1.576 0-2.86-.348-3.852-1.044-.992-.696-1.6-1.676-1.824-2.94l2.568-.396c.16.672.528 1.204 1.104 1.596.584.384 1.308.576 2.172.576.784 0 1.396-.16 1.836-.48.448-.32.672-.76.672-1.32 0-.328-.08-.592-.24-.792-.152-.208-.476-.404-.972-.588-.496-.184-1.252-.412-2.268-.684-1.112-.288-1.996-.596-2.652-.924-.648-.336-1.112-.724-1.392-1.164-.272-.448-.408-.988-.408-1.62 0-.784.208-1.468.624-2.052.416-.584 1-1.036 1.752-1.356.76-.32 1.648-.48 2.664-.48.992 0 1.876.156 2.652.468.776.312 1.404.756 1.884 1.332.48.568.768 1.236.864 2.004l-2.568.468c-.088-.624-.38-1.116-.876-1.476-.496-.36-1.14-.556-1.932-.588-.76-.032-1.376.096-1.848.384-.472.28-.708.668-.708 1.164 0 .288.088.532.264.732.184.2.536.392 1.056.576.52.184 1.288.404 2.304.66 1.088.28 1.952.592 2.592.936.64.336 1.096.74 1.368 1.212.28.464.42 1.028.42 1.692 0 1.28-.468 2.284-1.404 3.012-.928.728-2.212 1.092-3.852 1.092Zm12.147 0c-1.576 0-2.86-.348-3.852-1.044-.992-.696-1.6-1.676-1.824-2.94l2.568-.396c.16.672.528 1.204 1.104 1.596.584.384 1.308.576 2.172.576.784 0 1.396-.16 1.836-.48.448-.32.672-.76.672-1.32 0-.328-.08-.592-.24-.792-.152-.208-.476-.404-.972-.588-.496-.184-1.252-.412-2.268-.684-1.112-.288-1.996-.596-2.652-.924-.648-.336-1.112-.724-1.392-1.164-.272-.448-.408-.988-.408-1.62 0-.784.208-1.468.624-2.052.416-.584 1-1.036 1.752-1.356.76-.32 1.648-.48 2.664-.48.992 0 1.876.156 2.652.468.776.312 1.404.756 1.884 1.332.48.568.768 1.236.864 2.004l-2.568.468c-.088-.624-.38-1.116-.876-1.476-.496-.36-1.14-.556-1.932-.588-.76-.032-1.376.096-1.848.384-.472.28-.708.668-.708 1.164 0 .288.088.532.264.732.184.2.536.392 1.056.576.52.184 1.288.404 2.304.66 1.088.28 1.952.592 2.592.936.64.336 1.096.74 1.368 1.212.28.464.42 1.028.42 1.692 0 1.28-.468 2.284-1.404 3.012-.928.728-2.212 1.092-3.852 1.092Zm11.276-.348v-17.28h5.412c.16 0 .456.004.888.012.44.008.86.04 1.26.096 1.352.168 2.488.652 3.408 1.452.928.8 1.628 1.816 2.1 3.048.472 1.224.708 2.568.708 4.032 0 1.472-.236 2.824-.708 4.056-.472 1.224-1.172 2.236-2.1 3.036-.92.792-2.056 1.272-3.408 1.44-.4.056-.82.088-1.26.096-.432.008-.728.012-.888.012h-5.412Zm2.568-2.388h2.844c.272 0 .596-.008.972-.024s.708-.048.996-.096c.88-.168 1.592-.548 2.136-1.14.552-.6.956-1.336 1.212-2.208.256-.872.384-1.8.384-2.784a9.61 9.61 0 0 0-.396-2.82c-.264-.872-.672-1.6-1.224-2.184-.544-.592-1.248-.968-2.112-1.128a5.991 5.991 0 0 0-1.008-.096 23.118 23.118 0 0 0-.96-.024h-2.844v12.504Zm13.523-12.696v-2.436h2.508v2.436h-2.508Zm0 15.084v-12.96h2.508V182h-2.508Zm10.731 6.12a6.443 6.443 0 0 1-2.028-.324 5.795 5.795 0 0 1-1.776-.96 5.2 5.2 0 0 1-1.332-1.548l2.316-1.176c.28.552.68.956 1.2 1.212.52.256 1.068.384 1.644.384.712 0 1.32-.128 1.824-.384a2.472 2.472 0 0 0 1.14-1.128c.264-.504.392-1.128.384-1.872V178.7h.3v-9.66h2.22v13.308c0 .344-.012.672-.036.984a7.527 7.527 0 0 1-.132.936c-.184.872-.536 1.592-1.056 2.16-.512.568-1.168.992-1.968 1.272-.792.28-1.692.42-2.7.42Zm-.192-5.76c-1.208 0-2.252-.3-3.132-.9-.872-.6-1.548-1.416-2.028-2.448-.472-1.04-.708-2.208-.708-3.504 0-1.304.24-2.468.72-3.492.48-1.032 1.16-1.844 2.04-2.436.888-.6 1.94-.9 3.156-.9 1.224 0 2.252.3 3.084.9.84.592 1.472 1.404 1.896 2.436.432 1.032.648 2.196.648 3.492 0 1.296-.216 2.46-.648 3.492-.432 1.032-1.068 1.852-1.908 2.46-.84.6-1.88.9-3.12.9Zm.348-2.268c.824 0 1.496-.196 2.016-.588.52-.392.9-.932 1.14-1.62.24-.688.36-1.48.36-2.376 0-.896-.124-1.688-.372-2.376-.24-.688-.616-1.224-1.128-1.608-.504-.384-1.148-.576-1.932-.576-.832 0-1.516.204-2.052.612-.536.408-.936.956-1.2 1.644-.256.688-.384 1.456-.384 2.304 0 .856.128 1.632.384 2.328.264.688.656 1.236 1.176 1.644.528.408 1.192.612 1.992.612Zm8.626-13.176v-2.436h2.508v2.436h-2.508Zm0 15.084v-12.96h2.508V182h-2.508Zm12.807 0c-.816.16-1.616.228-2.4.204-.784-.024-1.484-.176-2.1-.456a2.862 2.862 0 0 1-1.392-1.32 3.86 3.86 0 0 1-.456-1.632 67.035 67.035 0 0 1-.024-1.896v-11.46h2.52v11.34c0 .52.004.972.012 1.356.016.384.1.708.252.972.288.496.744.78 1.368.852.632.064 1.372.036 2.22-.084V182Zm-8.856-10.944v-2.016h8.856v2.016H486.2Zm14.529 11.304c-.96 0-1.764-.176-2.412-.528-.648-.36-1.14-.832-1.476-1.416a3.944 3.944 0 0 1-.492-1.944c0-.656.116-1.232.348-1.728a3.33 3.33 0 0 1 1.032-1.26c.456-.352 1.016-.636 1.68-.852a18.421 18.421 0 0 1 1.956-.444 66.481 66.481 0 0 1 2.292-.36c.808-.112 1.608-.224 2.4-.336l-.912.504c.016-1.016-.2-1.768-.648-2.256-.44-.496-1.2-.744-2.28-.744-.68 0-1.304.16-1.872.48-.568.312-.964.832-1.188 1.56l-2.34-.72c.32-1.112.928-1.996 1.824-2.652.904-.656 2.104-.984 3.6-.984 1.16 0 2.168.2 3.024.6a3.73 3.73 0 0 1 1.896 1.872c.208.424.336.872.384 1.344.048.472.072.98.072 1.524V182h-2.22v-2.964l.432.384c-.536.992-1.22 1.732-2.052 2.22-.824.48-1.84.72-3.048.72Zm.444-2.052c.712 0 1.324-.124 1.836-.372.512-.256.924-.58 1.236-.972.312-.392.516-.8.612-1.224a4.3 4.3 0 0 0 .228-1.296c.024-.48.036-.864.036-1.152l.816.3c-.792.12-1.512.228-2.16.324a54.94 54.94 0 0 0-1.764.288c-.52.088-.984.196-1.392.324-.344.12-.652.264-.924.432a2.117 2.117 0 0 0-.636.612c-.152.24-.228.532-.228.876 0 .336.084.648.252.936.168.28.424.504.768.672.344.168.784.252 1.32.252Zm9.08 1.692v-17.64h2.508V182h-2.508Zm16.688.36c-1.728 0-3.2-.376-4.416-1.128-1.216-.76-2.148-1.816-2.796-3.168-.64-1.352-.96-2.92-.96-4.704 0-1.784.32-3.352.96-4.704.648-1.352 1.58-2.404 2.796-3.156 1.216-.76 2.688-1.14 4.416-1.14 1.992 0 3.64.504 4.944 1.512 1.312 1.008 2.224 2.364 2.736 4.068l-2.544.684c-.336-1.208-.936-2.156-1.8-2.844-.856-.688-1.968-1.032-3.336-1.032-1.224 0-2.244.276-3.06.828-.816.552-1.432 1.324-1.848 2.316-.408.992-.612 2.148-.612 3.468-.008 1.32.192 2.476.6 3.468.416.992 1.032 1.764 1.848 2.316.824.552 1.848.828 3.072.828 1.368 0 2.48-.344 3.336-1.032.864-.696 1.464-1.644 1.8-2.844l2.544.684c-.512 1.704-1.424 3.06-2.736 4.068-1.304 1.008-2.952 1.512-4.944 1.512Zm13.259 0c-.96 0-1.764-.176-2.412-.528-.648-.36-1.14-.832-1.476-1.416a3.944 3.944 0 0 1-.492-1.944c0-.656.116-1.232.348-1.728a3.33 3.33 0 0 1 1.032-1.26c.456-.352 1.016-.636 1.68-.852a18.421 18.421 0 0 1 1.956-.444 66.481 66.481 0 0 1 2.292-.36c.808-.112 1.608-.224 2.4-.336l-.912.504c.016-1.016-.2-1.768-.648-2.256-.44-.496-1.2-.744-2.28-.744-.68 0-1.304.16-1.872.48-.568.312-.964.832-1.188 1.56l-2.34-.72c.32-1.112.928-1.996 1.824-2.652.904-.656 2.104-.984 3.6-.984 1.16 0 2.168.2 3.024.6a3.73 3.73 0 0 1 1.896 1.872c.208.424.336.872.384 1.344.048.472.072.98.072 1.524V182h-2.22v-2.964l.432.384c-.536.992-1.22 1.732-2.052 2.22-.824.48-1.84.72-3.048.72Zm.444-2.052c.712 0 1.324-.124 1.836-.372.512-.256.924-.58 1.236-.972.312-.392.516-.8.612-1.224a4.3 4.3 0 0 0 .228-1.296c.024-.48.036-.864.036-1.152l.816.3c-.792.12-1.512.228-2.16.324a54.94 54.94 0 0 0-1.764.288c-.52.088-.984.196-1.392.324-.344.12-.652.264-.924.432a2.117 2.117 0 0 0-.636.612c-.152.24-.228.532-.228.876 0 .336.084.648.252.936.168.28.424.504.768.672.344.168.784.252 1.32.252Zm8.84 1.692v-12.96h2.232v3.144l-.312-.408c.16-.416.368-.796.624-1.14.256-.352.552-.64.888-.864.328-.24.692-.424 1.092-.552a4.785 4.785 0 0 1 1.248-.24 4.766 4.766 0 0 1 1.224.06v2.352a4.065 4.065 0 0 0-1.416-.096 3.098 3.098 0 0 0-1.416.492 3.182 3.182 0 0 0-.972.96c-.232.376-.4.796-.504 1.26-.104.456-.156.94-.156 1.452V182h-2.532Zm13.475.36c-1.208 0-2.252-.3-3.132-.9-.872-.6-1.548-1.416-2.028-2.448-.472-1.04-.708-2.208-.708-3.504 0-1.304.24-2.468.72-3.492.48-1.032 1.16-1.844 2.04-2.436.888-.6 1.94-.9 3.156-.9 1.224 0 2.252.3 3.084.9.84.592 1.472 1.404 1.896 2.436.432 1.032.648 2.196.648 3.492 0 1.296-.216 2.46-.648 3.492-.432 1.032-1.068 1.852-1.908 2.46-.84.6-1.88.9-3.12.9Zm.348-2.268c.824 0 1.496-.196 2.016-.588.52-.392.9-.932 1.14-1.62.24-.688.36-1.48.36-2.376 0-.896-.124-1.688-.372-2.376-.24-.688-.616-1.224-1.128-1.608-.504-.384-1.148-.576-1.932-.576-.832 0-1.516.204-2.052.612-.536.408-.936.956-1.2 1.644-.256.688-.384 1.456-.384 2.304 0 .856.128 1.632.384 2.328.264.688.656 1.236 1.176 1.644.528.408 1.192.612 1.992.612Zm3.516 1.908v-9.324h-.288v-7.956h2.52V182h-2.232Z"/><path stroke="#000" stroke-opacity=".1" d="M260 244h600m-600 47h600"/><path fill="#1D1D1B" d="M265.187 273.21c-1.008 0-1.867-.219-2.576-.658a4.333 4.333 0 0 1-1.631-1.848c-.373-.789-.56-1.703-.56-2.744 0-1.041.187-1.955.56-2.744a4.292 4.292 0 0 1 1.631-1.841c.709-.443 1.568-.665 2.576-.665 1.162 0 2.123.294 2.884.882.765.588 1.297 1.379 1.596 2.373l-1.484.399c-.196-.705-.546-1.258-1.05-1.659-.499-.401-1.148-.602-1.946-.602-.714 0-1.309.161-1.785.483-.476.322-.835.772-1.078 1.351-.238.579-.357 1.253-.357 2.023-.005.77.112 1.444.35 2.023.243.579.602 1.029 1.078 1.351.481.322 1.078.483 1.792.483.798 0 1.447-.201 1.946-.602.504-.406.854-.959 1.05-1.659l1.484.399c-.299.994-.831 1.785-1.596 2.373-.761.588-1.722.882-2.884.882Zm7.735 0c-.56 0-1.029-.103-1.407-.308a2.192 2.192 0 0 1-.861-.826 2.292 2.292 0 0 1-.287-1.134c0-.383.067-.719.203-1.008.135-.289.336-.534.602-.735a3.22 3.22 0 0 1 .98-.497 10.81 10.81 0 0 1 1.141-.259c.424-.075.87-.145 1.337-.21l1.4-.196-.532.294c.009-.593-.117-1.031-.378-1.316-.257-.289-.7-.434-1.33-.434-.397 0-.761.093-1.092.28-.332.182-.563.485-.693.91l-1.365-.42a2.823 2.823 0 0 1 1.064-1.547c.527-.383 1.227-.574 2.1-.574.676 0 1.264.117 1.764.35a2.18 2.18 0 0 1 1.106 1.092 2.3 2.3 0 0 1 .224.784c.028.275.042.572.042.889V273h-1.295v-1.729l.252.224c-.313.579-.712 1.01-1.197 1.295-.481.28-1.074.42-1.778.42Zm.259-1.197c.415 0 .772-.072 1.071-.217.298-.149.539-.338.721-.567a1.78 1.78 0 0 0 .357-.714 2.54 2.54 0 0 0 .133-.756c.014-.28.021-.504.021-.672l.476.175-1.26.189c-.378.056-.721.112-1.029.168a6.034 6.034 0 0 0-.812.189c-.201.07-.381.154-.539.252a1.23 1.23 0 0 0-.371.357.932.932 0 0 0-.133.511c0 .196.049.378.147.546.098.163.247.294.448.392.2.098.457.147.77.147Zm5.156.987v-7.56h1.302v1.834l-.182-.238c.094-.243.215-.464.364-.665a2.06 2.06 0 0 1 .518-.504c.192-.14.404-.247.637-.322.238-.079.481-.126.728-.14.248-.019.486-.007.714.035v1.372a2.377 2.377 0 0 0-.826-.056 1.814 1.814 0 0 0-.826.287 1.86 1.86 0 0 0-.567.56 2.389 2.389 0 0 0-.294.735c-.06.266-.091.548-.091.847V273h-1.477Zm7.861.21c-.705 0-1.314-.175-1.827-.525a3.462 3.462 0 0 1-1.183-1.428c-.276-.607-.413-1.288-.413-2.044 0-.761.14-1.44.42-2.037a3.388 3.388 0 0 1 1.19-1.421c.518-.35 1.131-.525 1.841-.525.714 0 1.313.175 1.799.525.49.345.858.819 1.106 1.421.252.602.378 1.281.378 2.037s-.126 1.435-.378 2.037a3.301 3.301 0 0 1-1.113 1.435c-.49.35-1.097.525-1.82.525Zm.203-1.323c.48 0 .872-.114 1.176-.343.303-.229.525-.544.665-.945.14-.401.21-.863.21-1.386a4.09 4.09 0 0 0-.217-1.386c-.14-.401-.36-.714-.658-.938-.294-.224-.67-.336-1.127-.336-.486 0-.885.119-1.197.357a2.134 2.134 0 0 0-.7.959c-.15.401-.224.849-.224 1.344 0 .499.074.952.224 1.358.154.401.382.721.686.959.308.238.695.357 1.162.357Zm2.051 1.113v-5.439h-.168v-4.641h1.47V273h-1.302Z"/><path fill="#9A9A9A" d="M316.98 273v-10.08h4.074c.098 0 .219.005.364.014.145.005.282.019.413.042.56.089 1.027.28 1.4.574.378.294.66.665.847 1.113.187.448.28.943.28 1.484 0 .546-.093 1.043-.28 1.491a2.705 2.705 0 0 1-.847 1.113c-.373.294-.84.485-1.4.574a6.045 6.045 0 0 1-.777.056h-2.611V273h-1.463Zm1.463-5.005h2.555c.093 0 .196-.005.308-.014a2.32 2.32 0 0 0 .329-.049c.299-.07.539-.198.721-.385.182-.191.313-.411.392-.658a2.365 2.365 0 0 0 0-1.477 1.637 1.637 0 0 0-.392-.651 1.412 1.412 0 0 0-.721-.392 1.764 1.764 0 0 0-.329-.056 3.891 3.891 0 0 0-.308-.014h-2.555v3.696Zm8.797 5.215c-.56 0-1.029-.103-1.407-.308a2.192 2.192 0 0 1-.861-.826 2.303 2.303 0 0 1-.287-1.134c0-.383.068-.719.203-1.008.135-.289.336-.534.602-.735a3.23 3.23 0 0 1 .98-.497 10.81 10.81 0 0 1 1.141-.259c.425-.075.87-.145 1.337-.21l1.4-.196-.532.294c.009-.593-.117-1.031-.378-1.316-.257-.289-.7-.434-1.33-.434-.397 0-.761.093-1.092.28-.331.182-.562.485-.693.91l-1.365-.42a2.828 2.828 0 0 1 1.064-1.547c.527-.383 1.227-.574 2.1-.574.677 0 1.265.117 1.764.35.504.229.873.593 1.106 1.092a2.3 2.3 0 0 1 .224.784c.028.275.042.572.042.889V273h-1.295v-1.729l.252.224c-.313.579-.712 1.01-1.197 1.295-.481.28-1.073.42-1.778.42Zm.259-1.197c.415 0 .772-.072 1.071-.217.299-.149.539-.338.721-.567a1.78 1.78 0 0 0 .357-.714c.079-.224.124-.476.133-.756.014-.28.021-.504.021-.672l.476.175-1.26.189c-.378.056-.721.112-1.029.168a6.07 6.07 0 0 0-.812.189 2.74 2.74 0 0 0-.539.252 1.23 1.23 0 0 0-.371.357.932.932 0 0 0-.133.511c0 .196.049.378.147.546.098.163.247.294.448.392.201.098.457.147.77.147Zm5.755 4.347 1.463-3.983.021 1.176-3.297-8.113h1.526l2.464 6.265h-.448l2.352-6.265h1.484l-4.172 10.92h-1.393Zm15.299-3.36.007-4.711c0-.546-.14-.971-.42-1.274-.28-.308-.648-.462-1.106-.462-.28 0-.536.065-.77.196a1.447 1.447 0 0 0-.56.574c-.14.252-.21.569-.21.952l-.707-.357c-.009-.532.103-.999.336-1.4a2.47 2.47 0 0 1 .966-.931 2.778 2.778 0 0 1 1.365-.336c.817 0 1.449.245 1.897.735.448.49.672 1.141.672 1.953l-.007 5.061h-1.463Zm-9.065 0v-7.56h1.302v2.184h.168V273h-1.47Zm4.536 0 .007-4.683c0-.551-.14-.982-.42-1.295-.275-.313-.646-.469-1.113-.469-.462 0-.835.159-1.12.476-.28.317-.42.733-.42 1.246l-.7-.448c0-.495.119-.936.357-1.323.238-.387.56-.693.966-.917a2.807 2.807 0 0 1 1.379-.336c.537 0 .994.114 1.372.343.378.224.665.539.861.945.201.406.301.877.301 1.414l-.007 5.047h-1.463Zm10.654.21c-.751 0-1.411-.163-1.981-.49a3.491 3.491 0 0 1-1.323-1.379c-.312-.593-.469-1.279-.469-2.058 0-.826.154-1.542.462-2.149a3.423 3.423 0 0 1 1.302-1.407c.556-.331 1.202-.497 1.939-.497.77 0 1.426.18 1.967.539.542.355.945.861 1.211 1.519.271.658.378 1.44.322 2.345h-1.463v-.532c-.009-.877-.177-1.526-.504-1.946-.322-.42-.814-.63-1.477-.63-.732 0-1.283.231-1.652.693-.368.462-.553 1.129-.553 2.002 0 .831.185 1.475.553 1.932.369.453.901.679 1.596.679.458 0 .852-.103 1.183-.308.336-.21.598-.509.784-.896l1.435.455a3.4 3.4 0 0 1-1.337 1.575 3.718 3.718 0 0 1-1.995.553Zm-2.695-3.577v-1.141h5.397v1.141h-5.397ZM364.36 273v-3.717c0-.294-.026-.595-.077-.903a2.712 2.712 0 0 0-.28-.868 1.646 1.646 0 0 0-.581-.644c-.248-.163-.572-.245-.973-.245a2.06 2.06 0 0 0-.742.133 1.542 1.542 0 0 0-.616.413 2.062 2.062 0 0 0-.413.756c-.098.313-.147.693-.147 1.141l-.91-.343c0-.686.128-1.29.385-1.813a2.888 2.888 0 0 1 1.106-1.232c.48-.294 1.061-.441 1.743-.441.522 0 .961.084 1.316.252.354.168.641.39.861.665.224.271.394.567.511.889.116.322.196.637.238.945.042.308.063.579.063.812v4.2h-1.484Zm-5.313 0v-7.56h1.309v2.184h.175V273h-1.484Zm12.526 0a6.285 6.285 0 0 1-1.4.119 3.174 3.174 0 0 1-1.225-.266 1.67 1.67 0 0 1-.812-.77 2.258 2.258 0 0 1-.266-.952 40.399 40.399 0 0 1-.014-1.106v-6.685h1.47v6.615c0 .303.002.567.007.791.009.224.058.413.147.567.168.289.434.455.798.497.369.037.8.021 1.295-.049V273Zm-5.166-6.384v-1.176h5.166v1.176h-5.166Z"/><path fill="#DEDEE4" d="M273 341c7.18 0 13-5.82 13-13s-5.82-13-13-13-13 5.82-13 13 5.82 13 13 13Zm95.5-26h-69a5.5 5.5 0 1 0 0 11h69a5.5 5.5 0 1 0 0-11ZM341 335h-44a3 3 0 1 0 0 6h44a3 3 0 1 0 0-6Z"/></g></g></g><path fill="#0E0E0E" fill-rule="evenodd" d="M78.304 72.91a3.007 3.007 0 0 1 2.15-.91c2.71 0 4.066 3.35 2.15 5.31l-6.443 6.587a.275.275 0 0 0 0 .383.261.261 0 0 0 .375 0l7.87-8.046a6.25 6.25 0 0 1 8.977 0c2.48 2.535 2.48 6.644 0 9.178l-7.509 7.677a3.002 3.002 0 0 1-2.15.911c-2.71 0-4.066-3.35-2.15-5.31l7.508-7.675a.276.276 0 0 0 0-.383.261.261 0 0 0-.375 0l-7.87 8.046a6.25 6.25 0 0 1-8.978 0c-2.479-2.535-2.479-6.644 0-9.179l6.445-6.588Z" clip-rule="evenodd"/><path fill="#0E0E0E" d="M101.864 92.346V74.984h10.057v2.52h-7.593v4.895h6.178v2.532h-6.178v7.415h-2.464Zm12.418-15.156v-2.447h2.464v2.447h-2.464Zm0 15.156V79.324h2.464v13.022h-2.464Zm14.942 0v-6.402a9.71 9.71 0 0 0-.13-1.555 4.743 4.743 0 0 0-.472-1.495 2.811 2.811 0 0 0-.978-1.11c-.417-.281-.963-.422-1.639-.422-.44 0-.857.077-1.25.23a2.604 2.604 0 0 0-1.038.71c-.29.33-.522.764-.695 1.303-.165.538-.248 1.194-.248 1.965l-1.533-.59c0-1.182.217-2.223.649-3.123.432-.909 1.053-1.616 1.863-2.122.809-.507 1.788-.76 2.936-.76.88 0 1.619.145 2.216.434.598.29 1.081.671 1.45 1.146.378.466.665.976.861 1.53.197.555.33 1.098.401 1.629.071.53.106.996.106 1.398v7.234h-2.499Zm-8.949 0V79.325h2.204v3.761h.295v9.26h-2.499ZM135.03 77.19v-2.447h2.464v2.447h-2.464Zm0 15.156V79.324h2.464v13.022h-2.464Zm4.59 0 4.763-6.583-4.657-6.438h2.924l3.172 4.473 3.136-4.473h2.924l-4.657 6.438L152 92.346h-2.936l-3.242-4.618-3.266 4.618h-2.936Z"/></g></g><rect width="368" height="368" x="1" y="1" stroke="#FFD5BF" stroke-width="2" rx="29"/><defs><filter id="d" width="369" height="367" x="20" y="36" color-interpolation-filters="sRGB" filterUnits="userSpaceOnUse"><feFlood flood-opacity="0" result="BackgroundImageFix"/><feColorMatrix in="SourceAlpha" result="hardAlpha" values="0 0 0 0 0 0 0 0 0 0 0 0 0 0 0 0 0 0 127 0"/><feOffset dy="14"/><feGaussianBlur stdDeviation="10"/><feComposite in2="hardAlpha" operator="out"/><feColorMatrix values="0 0 0 0 0 0 0 0 0 0 0 0 0 0 0 0 0 0 0.1 0"/><feBlend in2="BackgroundImageFix" result="effect1_dropShadow_94_418"/><feBlend in="SourceGraphic" in2="effect1_dropShadow_94_418" result="shape"/></filter><filter id="f" width="660" height="460" x="220" y="126" color-interpolation-filters="sRGB" filterUnits="userSpaceOnUse"><feFlood flood-opacity="0" result="BackgroundImageFix"/><feColorMatrix in="SourceAlpha" result="hardAlpha" values="0 0 0 0 0 0 0 0 0 0 0 0 0 0 0 0 0 0 127 0"/><feOffset dy="14"/><feGaussianBlur stdDeviation="10"/><feComposite in2="hardAlpha" operator="out"/><feColorMatrix values="0 0 0 0 0 0 0 0 0 0 0 0 0 0 0 0 0 0 0.1 0"/><feBlend in2="BackgroundImageFix" result="effect1_dropShadow_94_418"/><feBlend in="SourceGraphic" in2="effect1_dropShadow_94_418" result="shape"/></filter><clipPath id="a"><rect width="370" height="370" fill="#fff" rx="30"/></clipPath></defs></svg>